NotoSans-SemiBoldItalic.ufo
<glyph name="eight" format="2">
  <advance width="1128.0"/>
  <unicode hex="0038"/>
  <outline>
    <contour>
      <point x="508.42622950819674" y="-20.0" type="curve" smooth="yes"/>
      <point x="856.8524590163935" y="-20.0"/>
      <point x="1014.72131147541" y="180.4262295081967"/>
      <point x="1014.72131147541" y="397.655737704918" type="curve" smooth="yes"/>
      <point x="1014.72131147541" y="579.639344262295"/>
      <point x="915.8688524590164" y="684.8524590163935"/>
      <point x="789.9180327868853" y="763.7704918032787" type="curve"/>
      <point x="961.950819672131" y="831.3606557377049"/>
      <point x="1118.1967213114754" y="942.2295081967213"/>
      <point x="1118.1967213114754" y="1156.5737704918033" type="curve" smooth="yes"/>
      <point x="1118.1967213114754" y="1329.8852459016393"/>
      <point x="1001.360655737705" y="1485.0"/>
      <point x="731.0327868852459" y="1485.0" type="curve" smooth="yes"/>
      <point x="456.1639344262295" y="1485.0"/>
      <point x="275.344262295082" y="1321.7377049180327"/>
      <point x="275.344262295082" y="1088.9344262295083" type="curve" smooth="yes"/>
      <point x="275.344262295082" y="944.6885245901639"/>
      <point x="351.54098360655735" y="852.2622950819673"/>
      <point x="445.3606557377049" y="781.5737704918033" type="curve"/>
      <point x="211.21311475409834" y="694.0"/>
      <point x="75.62295081967213" y="557.8852459016393"/>
      <point x="75.62295081967213" y="347.7704918032787" type="curve" smooth="yes"/>
      <point x="75.62295081967213" y="143.45901639344262"/>
      <point x="215.68852459016392" y="-20.0"/>
    </contour>
    <contour>
      <point x="528.6393442622951" y="163.52459016393442" type="curve" smooth="yes"/>
      <point x="398.91803278688525" y="163.52459016393442"/>
      <point x="311.3114754098361" y="240.88524590163937"/>
      <point x="311.3114754098361" y="367.95081967213116" type="curve" smooth="yes"/>
      <point x="311.3114754098361" y="529.0819672131147"/>
      <point x="423.5409836065574" y="612.4262295081967"/>
      <point x="595.3770491803278" y="671.4262295081967" type="curve"/>
      <point x="716.360655737705" y="601.8360655737705"/>
      <point x="782.4754098360655" y="517.5737704918033"/>
      <point x="782.4754098360655" y="394.54098360655735" type="curve" smooth="yes"/>
      <point x="782.4754098360655" y="278.1475409836066"/>
      <point x="704.4262295081967" y="163.52459016393442"/>
    </contour>
    <contour>
      <point x="647.655737704918" y="865.688524590164" type="curve"/>
      <point x="561.8360655737705" y="916.7213114754098"/>
      <point x="502.91803278688525" y="985.8524590163934"/>
      <point x="502.91803278688525" y="1097.344262295082" type="curve" smooth="yes"/>
      <point x="502.91803278688525" y="1217.7704918032787"/>
      <point x="583.5409836065573" y="1300.688524590164"/>
      <point x="711.2786885245902" y="1300.688524590164" type="curve" smooth="yes"/>
      <point x="818.1311475409835" y="1300.688524590164"/>
      <point x="888.3934426229508" y="1235.2131147540983"/>
      <point x="888.3934426229508" y="1130.1639344262296" type="curve" smooth="yes"/>
      <point x="888.3934426229508" y="1001.8688524590164"/>
      <point x="802.2295081967213" y="924.0655737704918"/>
    </contour>
  </outline>
</glyph>
<glyph name="nine" format="2">
  <advance width="1128.0"/>
  <unicode hex="0039"/>
  <outline>
    <contour>
      <point x="332.6885245901639" y="-20.0" type="curve" smooth="yes"/>
      <point x="527.7213114754098" y="-20.0"/>
      <point x="683.5081967213115" y="42.08196721311476"/>
      <point x="804.0819672131148" y="172.22950819672133" type="curve" smooth="yes"/>
      <point x="982.2786885245902" y="366.11475409836066"/>
      <point x="1079.1803278688524" y="730.8360655737705"/>
      <point x="1079.1803278688524" y="1018.27868852459" type="curve" smooth="yes"/>
      <point x="1079.1803278688524" y="1334.311475409836"/>
      <point x="928.0" y="1483.8852459016393"/>
      <point x="683.5737704918033" y="1483.8852459016393" type="curve" smooth="yes"/>
      <point x="314.1311475409836" y="1483.8852459016393"/>
      <point x="153.655737704918" y="1178.5245901639344"/>
      <point x="153.655737704918" y="918.0491803278688" type="curve" smooth="yes"/>
      <point x="153.655737704918" y="680.0"/>
      <point x="272.24590163934425" y="530.1639344262295"/>
      <point x="501.22950819672127" y="530.1639344262295" type="curve" smooth="yes"/>
      <point x="635.4426229508197" y="530.1639344262295"/>
      <point x="738.5901639344263" y="593.6065573770492"/>
      <point x="805.7049180327868" y="688.7213114754098" type="curve"/>
      <point x="814.8196721311475" y="688.7213114754098" type="line"/>
      <point x="744.7704918032787" y="379.0983606557377"/>
      <point x="612.2295081967212" y="175.72131147540983"/>
      <point x="329.1639344262295" y="175.72131147540983" type="curve" smooth="yes"/>
      <point x="236.93442622950818" y="175.72131147540983"/>
      <point x="155.3934426229508" y="197.60655737704917"/>
      <point x="91.57377049180327" y="218.95081967213116" type="curve"/>
      <point x="91.57377049180327" y="13.114754098360656" type="line"/>
      <point x="154.9344262295082" y="-6.229508196721311"/>
      <point x="247.14754098360655" y="-20.0"/>
    </contour>
    <contour>
      <point x="567.0" y="716.327868852459" type="curve" smooth="yes"/>
      <point x="449.6885245901639" y="716.327868852459"/>
      <point x="386.0983606557377" y="793.4918032786885"/>
      <point x="386.0983606557377" y="933.5737704918033" type="curve" smooth="yes"/>
      <point x="386.0983606557377" y="1115.8196721311476"/>
      <point x="483.1803278688525" y="1289.3934426229507"/>
      <point x="663.3934426229508" y="1289.3934426229507" type="curve" smooth="yes"/>
      <point x="784.016393442623" y="1289.3934426229507"/>
      <point x="846.7377049180327" y="1192.4426229508197"/>
      <point x="846.7377049180327" y="1052.573770491803" type="curve" smooth="yes"/>
      <point x="846.7377049180327" y="999.8360655737705"/>
      <point x="839.8360655737704" y="954.344262295082"/>
      <point x="826.5901639344262" y="915.5409836065573" type="curve" smooth="yes"/>
      <point x="787.7377049180328" y="804.0327868852459"/>
      <point x="690.688524590164" y="716.327868852459"/>
    </contour>
  </outline>
</glyph>
<glyph name="question" format="2">
  <advance width="907.1147540983607"/>
  <unicode hex="003F"/>
  <outline>
    <contour>
      <point x="260.0" y="444.3114754098361" type="curve"/>
      <point x="455.5737704918033" y="444.3114754098361" type="line"/>
      <point x="486.2459016393443" y="574.688524590164"/>
      <point x="524.360655737705" y="620.344262295082"/>
      <point x="667.0983606557378" y="720.9672131147541" type="curve" smooth="yes"/>
      <point x="849.1311475409836" y="850.4590163934427"/>
      <point x="963.639344262295" y="963.2786885245902"/>
      <point x="963.639344262295" y="1156.573770491803" type="curve" smooth="yes"/>
      <point x="963.639344262295" y="1368.032786885246"/>
      <point x="822.4262295081967" y="1483.0"/>
      <point x="596.2459016393442" y="1483.0" type="curve" smooth="yes"/>
      <point x="448.21311475409834" y="1483.0"/>
      <point x="303.2295081967213" y="1433.360655737705"/>
      <point x="187.47540983606558" y="1370.2622950819673" type="curve"/>
      <point x="264.42622950819674" y="1196.0819672131147" type="line"/>
      <point x="367.26229508196724" y="1245.27868852459"/>
      <point x="464.27868852459017" y="1287.1639344262294"/>
      <point x="565.1803278688524" y="1287.1639344262294" type="curve" smooth="yes"/>
      <point x="676.4590163934427" y="1287.1639344262294"/>
      <point x="731.6229508196722" y="1228.2295081967213"/>
      <point x="731.6229508196722" y="1129.704918032787" type="curve" smooth="yes"/>
      <point x="731.6229508196722" y="1004.688524590164"/>
      <point x="640.7377049180328" y="938.1803278688525"/>
      <point x="508.8524590163934" y="842.6065573770492" type="curve" smooth="yes"/>
      <point x="352.655737704918" y="728.2622950819672"/>
      <point x="291.655737704918" y="626.0655737704918"/>
    </contour>
    <contour>
      <point x="285.6885245901639" y="-28.11475409836066" type="curve" smooth="yes"/>
      <point x="396.655737704918" y="-28.11475409836066"/>
      <point x="458.49180327868856" y="55.00000000000001"/>
      <point x="458.49180327868856" y="151.8360655737705" type="curve" smooth="yes"/>
      <point x="458.49180327868856" y="232.68852459016392"/>
      <point x="409.5245901639344" y="276.7704918032787"/>
      <point x="335.80327868852464" y="276.7704918032787" type="curve" smooth="yes"/>
      <point x="209.65573770491804" y="276.7704918032787"/>
      <point x="158.0" y="187.91803278688525"/>
      <point x="158.0" y="94.37704918032787" type="curve" smooth="yes"/>
      <point x="158.0" y="24.606557377049185"/>
      <point x="197.88524590163937" y="-28.11475409836066"/>
    </contour>
  </outline>
</glyph>
<glyph name="D" format="2">
  <advance width="1374.8524590163936"/>
  <unicode hex="0044"/>
  <anchor x="572.7540983606557" y="0.0" name="bottom"/>
  <anchor x="768.1967213114755" y="731.0" name="center"/>
  <anchor x="879.0" y="1462.0" name="top"/>
  <anchor x="1527.9672131147543" y="1462.0" name="topright"/>
  <outline>
    <contour>
      <point x="70.27868852459017" y="0.0" type="line"/>
      <point x="470.55737704918033" y="0.0" type="line" smooth="yes"/>
      <point x="1010.7213114754098" y="0.0"/>
      <point x="1311.8524590163934" y="363.4754098360655"/>
      <point x="1311.8524590163934" y="892.2786885245902" type="curve" smooth="yes"/>
      <point x="1311.8524590163934" y="1271.344262295082"/>
      <point x="1102.622950819672" y="1462.0"/>
      <point x="747.4098360655737" y="1462.0" type="curve" smooth="yes"/>
      <point x="379.27868852459017" y="1462.0" type="line"/>
    </contour>
    <contour>
      <point x="349.016393442623" y="201.3770491803279" type="line"/>
      <point x="574.4262295081967" y="1262.0655737704917" type="line"/>
      <point x="722.311475409836" y="1262.0655737704917" type="line" smooth="yes"/>
      <point x="931.4262295081967" y="1262.0655737704917"/>
      <point x="1065.7377049180327" y="1148.1311475409836"/>
      <point x="1065.7377049180327" y="886.311475409836" type="curve" smooth="yes"/>
      <point x="1065.7377049180327" y="509.29508196721315"/>
      <point x="867.9344262295082" y="201.3770491803279"/>
      <point x="482.88524590163934" y="201.3770491803279" type="curve" smooth="yes"/>
    </contour>
  </outline>
</glyph>
<glyph name="G" format="2">
  <advance width="1399.622950819672"/>
  <unicode hex="0047"/>
  <anchor x="677.7704918032788" y="0.0" name="bottom"/>
  <anchor x="941.1475409836065" y="1462.0" name="top"/>
  <anchor x="1552.1803278688524" y="1462.0" name="topright"/>
  <outline>
    <contour>
      <point x="685.1803278688525" y="-20.0" type="curve" smooth="yes"/>
      <point x="879.7540983606557" y="-20.0"/>
      <point x="1013.0819672131148" y="12.885245901639346"/>
      <point x="1139.9508196721313" y="56.77049180327869" type="curve"/>
      <point x="1298.6065573770493" y="792.5737704918033" type="line"/>
      <point x="788.0" y="792.5737704918033" type="line"/>
      <point x="743.7049180327868" y="589.1967213114754" type="line"/>
      <point x="1021.8524590163934" y="589.1967213114754" type="line"/>
      <point x="940.2459016393442" y="216.06557377049182" type="line"/>
      <point x="881.5737704918033" y="198.72131147540983"/>
      <point x="812.6065573770492" y="184.81967213114757"/>
      <point x="724.5409836065573" y="184.81967213114757" type="curve" smooth="yes"/>
      <point x="486.0" y="184.81967213114757"/>
      <point x="382.72131147540983" y="333.1475409836066"/>
      <point x="382.72131147540983" y="556.2786885245902" type="curve" smooth="yes"/>
      <point x="382.72131147540983" y="945.655737704918"/>
      <point x="600.4262295081967" y="1277.622950819672"/>
      <point x="947.7213114754098" y="1277.622950819672" type="curve" smooth="yes"/>
      <point x="1076.5409836065573" y="1277.622950819672"/>
      <point x="1182.688524590164" y="1240.3934426229507"/>
      <point x="1282.9180327868853" y="1191.8524590163934" type="curve"/>
      <point x="1372.8360655737704" y="1392.1311475409836" type="line"/>
      <point x="1246.967213114754" y="1451.7704918032787"/>
      <point x="1121.0819672131147" y="1483.8852459016393"/>
      <point x="955.0327868852459" y="1483.8852459016393" type="curve" smooth="yes"/>
      <point x="444.4262295081967" y="1483.8852459016393"/>
      <point x="136.37704918032787" y="1057.032786885246"/>
      <point x="136.37704918032787" y="538.4098360655738" type="curve" smooth="yes"/>
      <point x="136.37704918032787" y="180.22950819672133"/>
      <point x="340.72131147540983" y="-20.0"/>
    </contour>
  </outline>
</glyph>
<glyph name="I" format="2">
  <advance width="604.8360655737705"/>
  <unicode hex="0049"/>
  <anchor x="194.14754098360658" y="0.0" name="bottom"/>
  <anchor x="498.95081967213116" y="1462.0" name="top"/>
  <anchor x="770.7868852459017" y="1462.0" name="topright"/>
  <outline>
    <contour>
      <point x="69.3934426229508" y="0.0" type="line"/>
      <point x="304.72131147540983" y="0.0" type="line"/>
      <point x="616.1639344262295" y="1462.0" type="line"/>
      <point x="380.3934426229508" y="1462.0" type="line"/>
    </contour>
  </outline>
</glyph>
<glyph name="K" format="2">
  <advance width="1197.032786885246"/>
  <unicode hex="004B"/>
  <anchor x="529.688524590164" y="0.0" name="bottom"/>
  <anchor x="841.1475409836066" y="1462.0" name="top"/>
  <anchor x="1350.1475409836066" y="1462.0" name="topright"/>
  <outline>
    <contour>
      <point x="70.27868852459017" y="0.0" type="line"/>
      <point x="306.72131147540983" y="0.0" type="line"/>
      <point x="423.5245901639344" y="556.5573770491803" type="line"/>
      <point x="573.6065573770492" y="657.2131147540983" type="line"/>
      <point x="825.8524590163935" y="0.0" type="line"/>
      <point x="1086.9344262295083" y="0.0" type="line"/>
      <point x="765.2786885245902" y="793.7704918032787" type="line"/>
      <point x="1382.1311475409834" y="1462.0" type="line"/>
      <point x="1099.1639344262294" y="1462.0" type="line"/>
      <point x="603.672131147541" y="921.5245901639344" type="line"/>
      <point x="463.8360655737705" y="753.7704918032787" type="line"/>
      <point x="616.1639344262296" y="1462.0" type="line"/>
      <point x="379.27868852459017" y="1462.0" type="line"/>
    </contour>
  </outline>
</glyph>
<glyph name="M" format="2">
  <advance width="1757.4098360655737"/>
  <unicode hex="004D"/>
  <anchor x="748.2950819672132" y="0.0" name="bottom"/>
  <anchor x="1041.72131147541" y="1462.0" name="top"/>
  <anchor x="1910.5245901639344" y="1462.0" name="topright"/>
  <outline>
    <contour>
      <point x="69.1639344262295" y="0.0" type="line"/>
      <point x="286.75409836065575" y="0.0" type="line"/>
      <point x="453.72131147540983" y="790.9180327868852" type="line" smooth="yes"/>
      <point x="485.3770491803279" y="943.8688524590164"/>
      <point x="516.1475409836066" y="1129.8360655737704"/>
      <point x="525.032786885246" y="1216.049180327869" type="curve"/>
      <point x="533.032786885246" y="1216.049180327869" type="line"/>
      <point x="646.983606557377" y="0.0" type="line"/>
      <point x="852.1803278688525" y="0.0" type="line"/>
      <point x="1496.983606557377" y="1217.1639344262294" type="line"/>
      <point x="1503.1967213114754" y="1217.1639344262294" type="line"/>
      <point x="1474.655737704918" y="1114.5573770491803"/>
      <point x="1434.344262295082" y="950.5081967213114"/>
      <point x="1399.7704918032787" y="790.0983606557377" type="curve" smooth="yes"/>
      <point x="1233.032786885246" y="0.0" type="line"/>
      <point x="1459.5245901639344" y="0.0" type="line"/>
      <point x="1765.737704918033" y="1462.0" type="line"/>
      <point x="1421.8852459016393" y="1462.0" type="line"/>
      <point x="817.1475409836065" y="312.7049180327869" type="line"/>
      <point x="808.7049180327868" y="312.7049180327869" type="line"/>
      <point x="700.7868852459017" y="1462.0" type="line"/>
      <point x="378.1639344262295" y="1462.0" type="line"/>
    </contour>
  </outline>
</glyph>
<glyph name="N" format="2">
  <advance width="1491.377049180328"/>
  <unicode hex="004E"/>
  <anchor x="620.8360655737705" y="0.0" name="bottom"/>
  <anchor x="950.8032786885246" y="1462.0" name="top"/>
  <anchor x="1644.4918032786886" y="1462.0" name="topright"/>
  <outline>
    <contour>
      <point x="69.1639344262295" y="0.0" type="line"/>
      <point x="286.75409836065575" y="0.0" type="line"/>
      <point x="444.5737704918033" y="747.639344262295" type="line" smooth="yes"/>
      <point x="475.8032786885246" y="892.2131147540983"/>
      <point x="507.1311475409836" y="1103.4262295081967"/>
      <point x="515.0327868852459" y="1165.0819672131147" type="curve"/>
      <point x="522.8032786885246" y="1165.0819672131147" type="line"/>
      <point x="932.3114754098361" y="0.0" type="line"/>
      <point x="1192.377049180328" y="0.0" type="line"/>
      <point x="1501.377049180328" y="1462.0" type="line"/>
      <point x="1283.1147540983607" y="1462.0" type="line"/>
      <point x="1122.1803278688526" y="707.016393442623" type="line" smooth="yes"/>
      <point x="1093.8360655737706" y="578.8688524590164"/>
      <point x="1065.3934426229507" y="404.672131147541"/>
      <point x="1051.9508196721313" y="311.9836065573771" type="curve"/>
      <point x="1045.065573770492" y="311.9836065573771" type="line"/>
      <point x="644.8688524590164" y="1462.0" type="line"/>
      <point x="378.1639344262295" y="1462.0" type="line"/>
    </contour>
  </outline>
</glyph>
<glyph name="U" format="2">
  <advance width="1398.8360655737704"/>
  <unicode hex="0055"/>
  <anchor x="603.8032786885245" y="0.0" name="bottom"/>
  <anchor x="890.7704918032788" y="1462.0" name="top"/>
  <anchor x="1551.9508196721313" y="1462.0" name="topright"/>
  <outline>
    <contour>
      <point x="609.5737704918033" y="-20.0" type="curve" smooth="yes"/>
      <point x="978.9672131147541" y="-20.0"/>
      <point x="1150.27868852459" y="189.95081967213113"/>
      <point x="1216.8360655737704" y="505.9672131147541" type="curve" smooth="yes"/>
      <point x="1420.065573770492" y="1462.0" type="line"/>
      <point x="1183.1803278688524" y="1462.0" type="line"/>
      <point x="984.1639344262295" y="526.6065573770492" type="line" smooth="yes"/>
      <point x="935.5901639344262" y="300.75409836065575"/>
      <point x="842.5409836065573" y="184.81967213114757"/>
      <point x="629.4262295081968" y="184.81967213114757" type="curve" smooth="yes"/>
      <point x="468.9836065573771" y="184.81967213114757"/>
      <point x="389.1475409836066" y="263.9836065573771"/>
      <point x="389.1475409836066" y="400.72131147540983" type="curve" smooth="yes"/>
      <point x="389.1475409836066" y="440.18032786885243"/>
      <point x="396.70491803278696" y="501.57377049180326"/>
      <point x="409.49180327868856" y="557.4918032786885" type="curve" smooth="yes"/>
      <point x="601.2622950819672" y="1462.0" type="line"/>
      <point x="364.8196721311475" y="1462.0" type="line"/>
      <point x="172.72131147540983" y="561.8524590163934" type="line" smooth="yes"/>
      <point x="158.93442622950818" y="497.5737704918033"/>
      <point x="152.7049180327869" y="432.88524590163934"/>
      <point x="152.7049180327869" y="387.65573770491807" type="curve" smooth="yes"/>
      <point x="152.7049180327869" y="132.9672131147541"/>
      <point x="305.45901639344265" y="-20.0"/>
    </contour>
  </outline>
</glyph>
<glyph name="Z" format="2">
  <advance width="1091.8688524590164"/>
  <unicode hex="005A"/>
  <anchor x="436.45901639344265" y="0.0" name="bottom"/>
  <anchor x="740.7704918032787" y="1462.0" name="top"/>
  <anchor x="1244.5409836065573" y="1462.0" name="topright"/>
  <outline>
    <contour>
      <point x="-38.14754098360656" y="0.0" type="line"/>
      <point x="902.7213114754098" y="0.0" type="line"/>
      <point x="944.5737704918032" y="204.72131147540986" type="line"/>
      <point x="298.4098360655738" y="204.72131147540986" type="line"/>
      <point x="1152.311475409836" y="1291.7704918032787" type="line"/>
      <point x="1185.5081967213116" y="1462.0" type="line"/>
      <point x="289.08196721311475" y="1462.0" type="line"/>
      <point x="246.11475409836066" y="1257.27868852459" type="line"/>
      <point x="846.5245901639344" y="1257.27868852459" type="line"/>
      <point x="-5.721311475409838" y="168.672131147541" type="line"/>
    </contour>
  </outline>
</glyph>
<glyph name="j" format="2">
  <advance width="563.4098360655738"/>
  <unicode hex="006A"/>
  <anchor x="-112.85245901639345" y="-492.0" name="bottom"/>
  <anchor x="489.80327868852464" y="1528.688524590164" name="top"/>
  <anchor x="730.0655737704917" y="1528.688524590164" name="topright"/>
  <outline>
    <contour>
      <point x="-112.85245901639344" y="-492.0" type="curve" smooth="yes"/>
      <point x="111.83606557377051" y="-492.0"/>
      <point x="208.68852459016395" y="-346.0655737704918"/>
      <point x="251.68852459016398" y="-141.62295081967213" type="curve" smooth="yes"/>
      <point x="517.2459016393443" y="1106.8524590163936" type="line"/>
      <point x="284.3606557377049" y="1106.8524590163936" type="line"/>
      <point x="26.34426229508197" y="-112.22950819672131" type="line" smooth="yes"/>
      <point x="-0.8852459016393441" y="-240.14754098360652"/>
      <point x="-61.868852459016395" y="-299.5081967213115"/>
      <point x="-143.8688524590164" y="-299.5081967213115" type="curve" smooth="yes"/>
      <point x="-185.77049180327867" y="-299.5081967213115"/>
      <point x="-223.2295081967213" y="-291.27868852459017"/>
      <point x="-260.65573770491807" y="-277.39344262295083" type="curve"/>
      <point x="-260.65573770491807" y="-469.2295081967213" type="line"/>
      <point x="-225.22950819672133" y="-482.11475409836066"/>
      <point x="-169.60655737704917" y="-492.0"/>
    </contour>
    <contour>
      <point x="452.1475409836066" y="1269.8196721311476" type="curve" smooth="yes"/>
      <point x="538.9180327868853" y="1269.8196721311476"/>
      <point x="597.0327868852459" y="1330.1147540983607"/>
      <point x="597.0327868852459" y="1424.295081967213" type="curve" smooth="yes"/>
      <point x="597.0327868852459" y="1496.4590163934424"/>
      <point x="550.327868852459" y="1528.688524590164"/>
      <point x="479.8032786885246" y="1528.688524590164" type="curve" smooth="yes"/>
      <point x="385.4262295081967" y="1528.688524590164"/>
      <point x="331.8032786885246" y="1467.688524590164"/>
      <point x="331.8032786885246" y="1377.770491803279" type="curve" smooth="yes"/>
      <point x="331.8032786885246" y="1303.934426229508"/>
      <point x="383.4262295081967" y="1269.8196721311476"/>
    </contour>
  </outline>
</glyph>
<glyph name="k" format="2">
  <advance width="1079.9508196721313"/>
  <unicode hex="006B"/>
  <anchor x="476.4590163934426" y="0.0" name="bottom"/>
  <anchor x="492.2622950819671" y="1556.0" name="top"/>
  <anchor x="1252.1803278688526" y="1556.0" name="topright"/>
  <outline>
    <contour>
      <point x="47.0327868852459" y="0.0" type="line"/>
      <point x="282.26229508196724" y="0.0" type="line"/>
      <point x="360.16393442622956" y="375.3114754098361" type="line"/>
      <point x="495.7704918032787" y="472.39344262295083" type="line"/>
      <point x="705.5245901639345" y="0.0" type="line"/>
      <point x="965.1639344262295" y="0.0" type="line"/>
      <point x="675.7049180327868" y="621.2459016393442" type="line"/>
      <point x="1158.655737704918" y="1106.8524590163936" type="line"/>
      <point x="887.672131147541" y="1106.8524590163936" type="line"/>
      <point x="397.32786885245906" y="600.639344262295" type="line"/>
      <point x="391.55737704918033" y="600.639344262295" type="line"/>
      <point x="403.55737704918033" y="642.2950819672132"/>
      <point x="439.672131147541" y="752.639344262295"/>
      <point x="472.0655737704918" y="904.360655737705" type="curve" smooth="yes"/>
      <point x="611.7049180327868" y="1556.0" type="line"/>
      <point x="377.0327868852459" y="1556.0" type="line"/>
    </contour>
  </outline>
</glyph>
<glyph name="o" format="2">
  <advance width="1172.918032786885"/>
  <unicode hex="006F"/>
  <anchor x="507.3114754098361" y="0.0" name="bottom"/>
  <anchor x="705.0655737704918" y="553.4262295081968" name="center"/>
  <anchor x="678.032786885246" y="1106.8524590163936" name="top"/>
  <anchor x="1249.8032786885246" y="1106.8524590163936" name="topright"/>
  <outline>
    <contour>
      <point x="512.4262295081968" y="-17.770491803278688" type="curve" smooth="yes"/>
      <point x="895.016393442623" y="-17.770491803278688"/>
      <point x="1079.5737704918033" y="337.62295081967216"/>
      <point x="1079.5737704918033" y="691.5409836065575" type="curve" smooth="yes"/>
      <point x="1079.5737704918033" y="961.0655737704917"/>
      <point x="921.1475409836065" y="1123.950819672131"/>
      <point x="663.3770491803278" y="1123.950819672131" type="curve" smooth="yes"/>
      <point x="285.88524590163934" y="1123.950819672131"/>
      <point x="94.45901639344262" y="769.327868852459"/>
      <point x="94.45901639344262" y="407.7704918032787" type="curve" smooth="yes"/>
      <point x="94.45901639344262" y="144.11475409836066"/>
      <point x="259.3114754098361" y="-17.770491803278688"/>
    </contour>
    <contour>
      <point x="529.0655737704918" y="173.72131147540983" type="curve" smooth="yes"/>
      <point x="400.1967213114754" y="173.72131147540983"/>
      <point x="330.5737704918033" y="255.55737704918036"/>
      <point x="330.5737704918033" y="403.8688524590164" type="curve" smooth="yes"/>
      <point x="330.5737704918033" y="663.8360655737704"/>
      <point x="447.2295081967213" y="932.016393442623"/>
      <point x="654.7540983606557" y="932.016393442623" type="curve" smooth="yes"/>
      <point x="793.0819672131148" y="932.016393442623"/>
      <point x="842.344262295082" y="820.1475409836066"/>
      <point x="842.344262295082" y="703.2459016393443" type="curve" smooth="yes"/>
      <point x="842.344262295082" y="394.24590163934425"/>
      <point x="711.2295081967212" y="173.72131147540983"/>
    </contour>
  </outline>
</glyph>
<glyph name="r" format="2">
  <advance width="835.8032786885246"/>
  <unicode hex="0072"/>
  <anchor x="173.03278688524588" y="0.0" name="bottom"/>
  <anchor x="594.4262295081968" y="1106.8524590163936" name="top"/>
  <anchor x="912.6885245901639" y="1106.8524590163936" name="topright"/>
  <outline>
    <contour>
      <point x="48.147540983606554" y="0.0" type="line"/>
      <point x="282.26229508196724" y="0.0" type="line"/>
      <point x="388.2622950819672" y="501.11475409836066" type="line" smooth="yes"/>
      <point x="435.4754098360656" y="726.0819672131148"/>
      <point x="571.1639344262295" y="909.7377049180328"/>
      <point x="751.3770491803278" y="909.7377049180328" type="curve" smooth="yes"/>
      <point x="789.0327868852459" y="909.7377049180328"/>
      <point x="823.8032786885246" y="903.967213114754"/>
      <point x="854.1639344262295" y="895.967213114754" type="curve"/>
      <point x="905.1147540983607" y="1114.622950819672" type="line"/>
      <point x="874.311475409836" y="1123.295081967213"/>
      <point x="832.1967213114754" y="1127.295081967213"/>
      <point x="796.295081967213" y="1127.295081967213" type="curve" smooth="yes"/>
      <point x="644.7213114754098" y="1127.295081967213"/>
      <point x="543.8688524590164" y="1027.9180327868853"/>
      <point x="456.09836065573774" y="902.0819672131147" type="curve"/>
      <point x="445.65573770491807" y="902.0819672131147" type="line"/>
      <point x="467.21311475409834" y="1106.8524590163936" type="line"/>
      <point x="283.4754098360656" y="1106.8524590163936" type="line"/>
    </contour>
  </outline>
</glyph>
<glyph name="s" format="2">
  <advance width="922.1803278688525"/>
  <unicode hex="0073"/>
  <anchor x="344.1475409836066" y="0.0" name="bottom"/>
  <anchor x="555.1475409836065" y="1106.8524590163936" name="top"/>
  <anchor x="999.0655737704918" y="1106.8524590163936" name="topright"/>
  <outline>
    <contour>
      <point x="335.1475409836066" y="-20.0" type="curve" smooth="yes"/>
      <point x="605.983606557377" y="-20.0"/>
      <point x="781.0655737704918" y="103.52459016393442"/>
      <point x="781.0655737704918" y="340.0163934426229" type="curve" smooth="yes"/>
      <point x="781.0655737704918" y="492.688524590164"/>
      <point x="679.7213114754098" y="570.8852459016393"/>
      <point x="542.4918032786885" y="647.5737704918032" type="curve" smooth="yes"/>
      <point x="410.2131147540984" y="718.2786885245902"/>
      <point x="374.327868852459" y="754.295081967213"/>
      <point x="374.327868852459" y="817.8852459016393" type="curve" smooth="yes"/>
      <point x="374.327868852459" y="895.2622950819672"/>
      <point x="443.016393442623" y="943.0983606557377"/>
      <point x="538.1147540983607" y="943.0983606557377" type="curve" smooth="yes"/>
      <point x="643.3934426229508" y="943.0983606557377"/>
      <point x="730.4918032786885" y="907.655737704918"/>
      <point x="805.0327868852459" y="868.0163934426229" type="curve"/>
      <point x="881.1803278688525" y="1042.8852459016393" type="line"/>
      <point x="784.5737704918032" y="1094.7213114754097"/>
      <point x="666.6885245901639" y="1127.2950819672133"/>
      <point x="535.4590163934427" y="1127.2950819672133" type="curve" smooth="yes"/>
      <point x="291.1967213114754" y="1127.2950819672133"/>
      <point x="139.0" y="1002.2950819672132"/>
      <point x="139.0" y="795.9344262295083" type="curve" smooth="yes"/>
      <point x="139.0" y="656.0491803278688"/>
      <point x="218.11475409836066" y="576.704918032787"/>
      <point x="366.59016393442624" y="493.1311475409836" type="curve" smooth="yes"/>
      <point x="506.2622950819672" y="414.4590163934426"/>
      <point x="543.5081967213115" y="378.99999999999994"/>
      <point x="543.5081967213115" y="310.0655737704918" type="curve" smooth="yes"/>
      <point x="543.5081967213115" y="216.91803278688525"/>
      <point x="456.6229508196721" y="160.63934426229508"/>
      <point x="324.72131147540983" y="160.63934426229508" type="curve" smooth="yes"/>
      <point x="211.1639344262295" y="160.63934426229508"/>
      <point x="99.0327868852459" y="200.327868852459"/>
      <point x="15.754098360655739" y="249.52459016393442" type="curve"/>
      <point x="15.754098360655739" y="47.229508196721305" type="line"/>
      <point x="98.8360655737705" y="3.5737704918032787"/>
      <point x="197.72131147540983" y="-20.0"/>
    </contour>
  </outline>
</glyph>
<glyph name="u" format="2">
  <advance width="1208.5737704918033"/>
  <unicode hex="0075"/>
  <anchor x="469.62295081967216" y="0.0" name="bottom"/>
  <anchor x="722.5081967213115" y="1106.8524590163936" name="top"/>
  <anchor x="1285.4590163934427" y="1106.8524590163936" name="topright"/>
  <outline>
    <contour>
      <point x="390.5409836065574" y="-20.0" type="curve" smooth="yes"/>
      <point x="558.8032786885246" y="-20.0"/>
      <point x="670.7049180327868" y="89.60655737704917"/>
      <point x="752.2459016393442" y="204.77049180327867" type="curve"/>
      <point x="762.688524590164" y="204.77049180327867" type="line"/>
      <point x="740.5737704918033" y="0.0" type="line"/>
      <point x="924.8688524590164" y="0.0" type="line"/>
      <point x="1159.639344262295" y="1106.8524590163936" type="line"/>
      <point x="927.1967213114754" y="1106.8524590163936" type="line"/>
      <point x="828.0819672131148" y="638.2786885245902" type="line" smooth="yes"/>
      <point x="762.032786885246" y="332.16393442622956"/>
      <point x="612.0819672131148" y="170.60655737704917"/>
      <point x="473.4098360655738" y="170.60655737704917" type="curve" smooth="yes"/>
      <point x="384.688524590164" y="170.60655737704917"/>
      <point x="345.9016393442623" y="217.4098360655738"/>
      <point x="345.9016393442623" y="303.6393442622951" type="curve" smooth="yes"/>
      <point x="345.9016393442623" y="337.75409836065575"/>
      <point x="351.9016393442623" y="379.8688524590164"/>
      <point x="363.016393442623" y="433.22950819672127" type="curve" smooth="yes"/>
      <point x="506.1475409836066" y="1106.8524590163936" type="line"/>
      <point x="271.4754098360656" y="1106.8524590163936" type="line"/>
      <point x="135.0" y="466.0655737704918" type="line" smooth="yes"/>
      <point x="121.22950819672131" y="396.655737704918"/>
      <point x="112.11475409836065" y="329.37704918032784"/>
      <point x="112.11475409836065" y="273.6885245901639" type="curve" smooth="yes"/>
      <point x="112.11475409836065" y="87.27868852459017"/>
      <point x="213.0327868852459" y="-20.0"/>
    </contour>
  </outline>
</glyph>
<glyph name="v" format="2">
  <advance width="997.1639344262295"/>
  <unicode hex="0076"/>
  <anchor x="374.5737704918033" y="0.0" name="bottom"/>
  <anchor x="581.3442622950819" y="1106.8524590163936" name="top"/>
  <anchor x="1073.6065573770493" y="1106.8524590163936" name="topright"/>
  <outline>
    <contour>
      <point x="231.63934426229508" y="0.0" type="line"/>
      <point x="506.1475409836065" y="0.0" type="line"/>
      <point x="1104.5737704918033" y="1106.8524590163936" type="line"/>
      <point x="854.0327868852459" y="1106.8524590163936" type="line"/>
      <point x="542.5409836065573" y="507.27868852459017" type="line" smooth="yes"/>
      <point x="504.39344262295083" y="435.65573770491807"/>
      <point x="444.5409836065574" y="295.983606557377"/>
      <point x="408.8360655737705" y="209.59016393442624" type="curve"/>
      <point x="400.5081967213115" y="209.59016393442624" type="line"/>
      <point x="400.5081967213115" y="274.672131147541"/>
      <point x="393.60655737704917" y="424.1475409836066"/>
      <point x="385.1475409836066" y="506.9180327868852" type="curve" smooth="yes"/>
      <point x="331.2295081967213" y="1106.8524590163936" type="line"/>
      <point x="99.77049180327869" y="1106.8524590163936" type="line"/>
    </contour>
  </outline>
</glyph>
<glyph name="z" format="2">
  <advance width="920.2950819672132"/>
  <unicode hex="007A"/>
  <anchor x="363.327868852459" y="0.0" name="bottom"/>
  <anchor x="578.7540983606557" y="1106.8524590163936" name="top"/>
  <anchor x="997.1803278688525" y="1106.8524590163936" name="topright"/>
  <outline>
    <contour>
      <point x="-38.08196721311476" y="0.0" type="line"/>
      <point x="719.016393442623" y="0.0" type="line"/>
      <point x="755.7540983606557" y="178.3770491803279" type="line"/>
      <point x="270.49180327868856" y="178.3770491803279" type="line"/>
      <point x="893.9016393442623" y="936.9508196721312" type="line"/>
      <point x="929.0983606557377" y="1106.8524590163936" type="line"/>
      <point x="225.91803278688525" y="1106.8524590163936" type="line"/>
      <point x="187.73770491803276" y="928.4754098360656" type="line"/>
      <point x="625.983606557377" y="928.4754098360656" type="line"/>
      <point x="-8.655737704918032" y="148.22950819672133" type="line"/>
    </contour>
  </outline>
</glyph>
<glyph name="bar" format="2">
  <advance width="1128.0"/>
  <unicode hex="007C"/>
  <outline>
    <contour>
      <point x="497.9180327868852" y="-481.1639344262295" type="line"/>
      <point x="677.344262295082" y="-481.1639344262295" type="line"/>
      <point x="677.344262295082" y="1553.344262295082" type="line"/>
      <point x="497.9180327868852" y="1553.344262295082" type="line"/>
    </contour>
  </outline>
</glyph>
<glyph name="currency" format="2">
  <advance width="1128.0"/>
  <unicode hex="00A4"/>
  <outline>
    <contour>
      <point x="928.5081967213115" y="271.27868852459017" type="line"/>
      <point x="1046.6393442622953" y="388.9672131147541" type="line"/>
      <point x="920.5245901639344" y="515.0819672131148" type="line"/>
      <point x="958.8688524590165" y="574.5245901639345"/>
      <point x="981.8852459016393" y="644.5409836065575"/>
      <point x="981.8852459016393" y="723.0" type="curve" smooth="yes"/>
      <point x="981.8852459016393" y="799.4590163934427"/>
      <point x="956.8688524590164" y="872.1311475409835"/>
      <point x="920.5245901639344" y="930.9180327868853" type="curve"/>
      <point x="1049.5245901639344" y="1059.9180327868853" type="line"/>
      <point x="928.5081967213115" y="1176.7213114754097" type="line"/>
      <point x="800.3934426229508" y="1047.72131147541" type="line"/>
      <point x="739.3934426229508" y="1086.950819672131"/>
      <point x="670.9344262295083" y="1109.967213114754"/>
      <point x="594.9180327868853" y="1109.967213114754" type="curve" smooth="yes"/>
      <point x="520.2295081967213" y="1109.967213114754"/>
      <point x="447.67213114754094" y="1086.0655737704917"/>
      <point x="387.88524590163934" y="1048.6065573770493" type="curve"/>
      <point x="260.88524590163934" y="1176.7213114754097" type="line"/>
      <point x="142.31147540983608" y="1057.032786885246" type="line"/>
      <point x="271.3114754098361" y="928.9180327868852" type="line"/>
      <point x="232.7377049180328" y="868.688524590164"/>
      <point x="209.5081967213115" y="798.344262295082"/>
      <point x="209.5081967213115" y="723.0" type="curve" smooth="yes"/>
      <point x="209.5081967213115" y="645.4262295081968"/>
      <point x="231.85245901639342" y="576.5245901639344"/>
      <point x="271.3114754098361" y="517.0819672131147" type="curve"/>
      <point x="144.31147540983605" y="390.9672131147541" type="line"/>
      <point x="260.88524590163934" y="273.27868852459017" type="line"/>
      <point x="387.0" y="398.50819672131144" type="line"/>
      <point x="445.11475409836066" y="360.1639344262295"/>
      <point x="517.5737704918033" y="338.03278688524586"/>
      <point x="594.9180327868853" y="338.03278688524586" type="curve" smooth="yes"/>
      <point x="670.9344262295083" y="338.03278688524586"/>
      <point x="742.2786885245902" y="360.81967213114757"/>
      <point x="800.3934426229508" y="397.39344262295083" type="curve"/>
    </contour>
    <contour>
      <point x="594.9180327868852" y="506.016393442623" type="curve" smooth="yes"/>
      <point x="474.3114754098361" y="506.016393442623"/>
      <point x="377.49180327868856" y="601.2786885245902"/>
      <point x="377.49180327868856" y="723.0" type="curve" smooth="yes"/>
      <point x="377.49180327868856" y="846.2786885245902"/>
      <point x="474.3114754098361" y="943.0983606557377"/>
      <point x="594.9180327868852" y="943.0983606557377" type="curve" smooth="yes"/>
      <point x="718.1967213114754" y="943.0983606557377"/>
      <point x="817.016393442623" y="846.2786885245902"/>
      <point x="817.016393442623" y="723.0" type="curve" smooth="yes"/>
      <point x="817.016393442623" y="601.2786885245902"/>
      <point x="718.1967213114755" y="506.016393442623"/>
    </contour>
  </outline>
</glyph>
<glyph name="brokenbar" format="2">
  <advance width="1128.0"/>
  <unicode hex="00A6"/>
  <outline>
    <contour>
      <point x="497.9180327868852" y="757.8524590163934" type="line"/>
      <point x="677.344262295082" y="757.8524590163934" type="line"/>
      <point x="677.344262295082" y="1553.344262295082" type="line"/>
      <point x="497.9180327868852" y="1553.344262295082" type="line"/>
    </contour>
    <contour>
      <point x="497.9180327868852" y="-481.1639344262295" type="line"/>
      <point x="677.344262295082" y="-481.1639344262295" type="line"/>
      <point x="677.344262295082" y="314.88524590163934" type="line"/>
      <point x="497.9180327868852" y="314.88524590163934" type="line"/>
    </contour>
  </outline>
</glyph>
<glyph name="copyright" format="2">
  <advance width="1704.0"/>
  <unicode hex="00A9"/>
  <outline>
    <contour>
      <point x="852.0" y="-20.000000000000004" type="curve" smooth="yes"/>
      <point x="1288.0" y="-20.000000000000004"/>
      <point x="1604.0" y="295.0"/>
      <point x="1604.0" y="731.0" type="curve" smooth="yes"/>
      <point x="1604.0" y="1167.0"/>
      <point x="1268.0" y="1483.0"/>
      <point x="852.0" y="1483.0" type="curve" smooth="yes"/>
      <point x="419.5409836065574" y="1483.0"/>
      <point x="100.0" y="1158.1475409836064"/>
      <point x="100.0" y="731.0" type="curve" smooth="yes"/>
      <point x="100.0" y="295.0"/>
      <point x="416.0" y="-20.000000000000004"/>
    </contour>
    <contour>
      <point x="883.0" y="267.5737704918033" type="curve" smooth="yes"/>
      <point x="979.0" y="267.5737704918033"/>
      <point x="1040.0" y="288.57377049180326"/>
      <point x="1106.0" y="317.1311475409836" type="curve"/>
      <point x="1106.0" y="453.0" type="line"/>
      <point x="1038.0" y="426.0"/>
      <point x="954.0" y="406.0"/>
      <point x="891.0" y="406.0" type="curve" smooth="yes"/>
      <point x="711.0" y="406.0"/>
      <point x="639.0" y="522.0"/>
      <point x="639.0" y="731.0" type="curve" smooth="yes"/>
      <point x="639.0" y="932.0"/>
      <point x="731.0" y="1055.0"/>
      <point x="893.0" y="1055.0" type="curve" smooth="yes"/>
      <point x="950.0" y="1055.0"/>
      <point x="1015.9999999999999" y="1036.0"/>
      <point x="1083.0" y="1001.0" type="curve"/>
      <point x="1143.0" y="1131.7540983606557" type="line"/>
      <point x="1067.0" y="1170.7540983606557"/>
      <point x="975.0" y="1193.3114754098362"/>
      <point x="891.0" y="1193.3114754098362" type="curve" smooth="yes"/>
      <point x="621.016393442623" y="1193.3114754098362"/>
      <point x="473.6885245901639" y="1000.0983606557377"/>
      <point x="473.6885245901639" y="731.0" type="curve" smooth="yes"/>
      <point x="473.6885245901639" y="452.344262295082"/>
      <point x="608.4590163934425" y="267.5737704918033"/>
    </contour>
    <contour>
      <point x="852.0" y="98.18032786885246" type="curve" smooth="yes"/>
      <point x="486.75409836065575" y="98.18032786885246"/>
      <point x="226.0655737704918" y="373.4590163934426"/>
      <point x="226.0655737704918" y="731.0" type="curve" smooth="yes"/>
      <point x="226.0655737704918" y="1100.688524590164"/>
      <point x="490.29508196721315" y="1365.1475409836064"/>
      <point x="852.0" y="1365.1475409836064" type="curve" smooth="yes"/>
      <point x="1211.934426229508" y="1365.1475409836064"/>
      <point x="1475.049180327869" y="1079.688524590164"/>
      <point x="1475.049180327869" y="731.0" type="curve" smooth="yes"/>
      <point x="1475.049180327869" y="361.75409836065575"/>
      <point x="1195.8032786885246" y="98.18032786885246"/>
    </contour>
  </outline>
</glyph>
<glyph name="micro" format="2">
  <advance width="1220.5737704918033"/>
  <unicode hex="00B5"/>
  <outline>
    <contour>
      <point x="-55.18032786885246" y="-492.0" type="line"/>
      <point x="177.47540983606558" y="-492.0" type="line"/>
      <point x="243.91803278688525" y="-174.2295081967213" type="line" smooth="yes"/>
      <point x="255.68852459016398" y="-113.47540983606558"/>
      <point x="272.81967213114757" y="0.7213114754098306"/>
      <point x="281.37704918032784" y="62.04918032786885" type="curve"/>
      <point x="290.26229508196724" y="62.04918032786885" type="line"/>
      <point x="321.72131147540983" y="8.885245901639342"/>
      <point x="375.8360655737705" y="-20.0"/>
      <point x="446.0655737704918" y="-20.0" type="curve" smooth="yes"/>
      <point x="587.7377049180328" y="-20.0"/>
      <point x="688.2295081967212" y="77.19672131147539"/>
      <point x="765.5737704918033" y="191.04918032786884" type="curve"/>
      <point x="775.5737704918033" y="191.04918032786884" type="line"/>
      <point x="755.344262295082" y="0.0" type="line"/>
      <point x="936.8688524590164" y="0.0" type="line"/>
      <point x="1172.1967213114754" y="1106.8524590163936" type="line"/>
      <point x="940.8688524590164" y="1106.8524590163936" type="line"/>
      <point x="838.967213114754" y="633.3934426229508" type="line" smooth="yes"/>
      <point x="773.5737704918033" y="332.81967213114757"/>
      <point x="627.8360655737705" y="170.60655737704917"/>
      <point x="488.18032786885243" y="170.60655737704917" type="curve" smooth="yes"/>
      <point x="403.55737704918033" y="170.60655737704917"/>
      <point x="358.78688524590166" y="220.06557377049182"/>
      <point x="358.78688524590166" y="306.7540983606557" type="curve" smooth="yes"/>
      <point x="358.78688524590166" y="338.6393442622951"/>
      <point x="364.78688524590166" y="382.5245901639345"/>
      <point x="376.45901639344265" y="436.7704918032787" type="curve" smooth="yes"/>
      <point x="517.032786885246" y="1106.8524590163936" type="line"/>
      <point x="283.4754098360656" y="1106.8524590163936" type="line"/>
    </contour>
  </outline>
</glyph>
<glyph name="onesuperior" format="2">
  <advance width="746.4590163934427"/>
  <unicode hex="00B9"/>
  <outline>
    <contour>
      <point x="376.1639344262295" y="850.0" type="line"/>
      <point x="566.4262295081967" y="850.0" type="line"/>
      <point x="752.8688524590164" y="1726.0" type="line"/>
      <point x="590.4590163934427" y="1726.0" type="line"/>
      <point x="251.21311475409834" y="1511.8852459016393" type="line"/>
      <point x="328.5737704918033" y="1384.901639344262" type="line"/>
      <point x="446.1967213114754" y="1459.655737704918" type="line" smooth="yes"/>
      <point x="472.55737704918033" y="1478.9016393442623"/>
      <point x="506.77049180327873" y="1508.1311475409836"/>
      <point x="530.655737704918" y="1528.1311475409836" type="curve"/>
      <point x="515.0983606557377" y="1475.5573770491803"/>
      <point x="490.3114754098361" y="1387.2950819672133"/>
      <point x="474.0983606557377" y="1312.2131147540983" type="curve" smooth="yes"/>
    </contour>
  </outline>
</glyph>
<glyph name="ordmasculine" format="2">
  <advance width="720.5573770491803"/>
  <unicode hex="00BA"/>
  <anchor x="404.2950819672131" y="768.9508196721312" name="bottom"/>
  <anchor x="555.1475409836065" y="1491.0" name="top"/>
  <outline>
    <contour>
      <point x="432.19672131147536" y="768.0655737704918" type="curve" smooth="yes"/>
      <point x="693.4262295081967" y="768.0655737704918"/>
      <point x="785.2295081967213" y="1009.5409836065575"/>
      <point x="785.2295081967213" y="1205.0491803278687" type="curve" smooth="yes"/>
      <point x="785.2295081967213" y="1361.8032786885246"/>
      <point x="710.344262295082" y="1477.229508196721"/>
      <point x="530.3770491803278" y="1477.229508196721" type="curve" smooth="yes"/>
      <point x="293.42622950819674" y="1477.229508196721"/>
      <point x="173.34426229508196" y="1268.655737704918"/>
      <point x="173.34426229508196" y="1044.5901639344263" type="curve" smooth="yes"/>
      <point x="173.34426229508196" y="864.0327868852459"/>
      <point x="274.81967213114757" y="768.0655737704918"/>
    </contour>
    <contour>
      <point x="446.1803278688525" y="899.8524590163935" type="curve" smooth="yes"/>
      <point x="374.55737704918033" y="899.8524590163935"/>
      <point x="333.2950819672131" y="946.0"/>
      <point x="333.2950819672131" y="1041.5081967213114" type="curve" smooth="yes"/>
      <point x="333.2950819672131" y="1186.4754098360656"/>
      <point x="395.77049180327873" y="1343.8852459016393"/>
      <point x="518.8524590163935" y="1343.8852459016393" type="curve" smooth="yes"/>
      <point x="585.5737704918033" y="1343.8852459016393"/>
      <point x="625.5081967213115" y="1302.1967213114754"/>
      <point x="625.5081967213115" y="1207.344262295082" type="curve" smooth="yes"/>
      <point x="625.5081967213115" y="1060.5081967213114"/>
      <point x="565.9180327868852" y="899.8524590163935"/>
    </contour>
  </outline>
</glyph>
<glyph name="multiply" format="2">
  <advance width="1171.0"/>
  <unicode hex="00D7"/>
  <outline>
    <contour>
      <point x="944.9016393442622" y="1176.8852459016393" type="line"/>
      <point x="614.8196721311475" y="848.9016393442623" type="line"/>
      <point x="288.73770491803276" y="1176.8852459016393" type="line"/>
      <point x="162.2622950819672" y="1049.081967213115" type="line"/>
      <point x="488.57377049180326" y="723.0" type="line"/>
      <point x="164.2622950819672" y="395.8032786885246" type="line"/>
      <point x="289.8524590163935" y="270.0" type="line"/>
      <point x="613.7049180327868" y="595.1967213114755" type="line"/>
      <point x="943.7868852459017" y="269.11475409836066" type="line"/>
      <point x="1067.032786885246" y="394.91803278688525" type="line"/>
      <point x="740.9508196721312" y="723.0" type="line"/>
      <point x="1069.9180327868853" y="1051.967213114754" type="line"/>
    </contour>
  </outline>
</glyph>
<glyph name="Thorn" format="2">
  <advance width="1196.409836065574"/>
  <unicode hex="00DE"/>
  <anchor x="481.37704918032784" y="0.0" name="bottom"/>
  <anchor x="792.377049180328" y="1462.0" name="top"/>
  <outline>
    <contour>
      <point x="70.27868852459017" y="0.0" type="line"/>
      <point x="306.72131147540983" y="0.0" type="line"/>
      <point x="372.0655737704918" y="306.37704918032784" type="line"/>
      <point x="503.72131147540983" y="306.37704918032784" type="line" smooth="yes"/>
      <point x="899.6065573770492" y="306.37704918032784"/>
      <point x="1146.295081967213" y="480.73770491803276"/>
      <point x="1146.295081967213" y="818.1475409836065" type="curve" smooth="yes"/>
      <point x="1146.295081967213" y="1058.7704918032787"/>
      <point x="1016.6393442622951" y="1219.065573770492"/>
      <point x="684.1639344262295" y="1219.065573770492" type="curve" smooth="yes"/>
      <point x="564.4918032786885" y="1219.065573770492" type="line"/>
      <point x="616.1639344262296" y="1462.0" type="line"/>
      <point x="379.27868852459017" y="1462.0" type="line"/>
    </contour>
    <contour>
      <point x="413.6885245901639" y="505.7540983606557" type="line"/>
      <point x="522.4098360655738" y="1019.1311475409835" type="line"/>
      <point x="664.9180327868853" y="1019.1311475409835" type="line" smooth="yes"/>
      <point x="825.6885245901639" y="1019.1311475409835"/>
      <point x="905.622950819672" y="957.1147540983607"/>
      <point x="905.622950819672" y="811.2622950819672" type="curve" smooth="yes"/>
      <point x="905.622950819672" y="606.1147540983607"/>
      <point x="757.5409836065573" y="505.7540983606557"/>
      <point x="532.0655737704918" y="505.7540983606557" type="curve" smooth="yes"/>
    </contour>
  </outline>
</glyph>
<glyph name="germandbls" format="2">
  <advance width="1264.1639344262294"/>
  <unicode hex="00DF"/>
  <anchor x="410.63934426229514" y="-492.0" name="bottom"/>
  <anchor x="848.6393442622951" y="1567.0" name="top"/>
  <outline>
    <contour>
      <point x="-117.27868852459017" y="-492.0" type="curve" smooth="yes"/>
      <point x="112.49180327868854" y="-492.0"/>
      <point x="212.45901639344265" y="-346.0327868852459"/>
      <point x="261.016393442623" y="-120.80327868852459" type="curve" smooth="yes"/>
      <point x="525.0491803278688" y="1140.0" type="line" smooth="yes"/>
      <point x="555.1803278688525" y="1284.311475409836"/>
      <point x="625.4590163934427" y="1379.1639344262296"/>
      <point x="786.1147540983607" y="1379.1639344262296" type="curve" smooth="yes"/>
      <point x="899.672131147541" y="1379.1639344262296"/>
      <point x="965.7213114754098" y="1328.3934426229507"/>
      <point x="965.7213114754098" y="1243.0491803278687" type="curve" smooth="yes"/>
      <point x="965.7213114754098" y="1155.9016393442623"/>
      <point x="894.5573770491803" y="1100.5409836065573"/>
      <point x="805.4426229508197" y="1044.8524590163936" type="curve" smooth="yes"/>
      <point x="697.4918032786886" y="975.967213114754"/>
      <point x="605.688524590164" y="906.7377049180328"/>
      <point x="605.688524590164" y="768.9508196721312" type="curve" smooth="yes"/>
      <point x="605.688524590164" y="675.655737704918"/>
      <point x="656.8852459016393" y="606.4426229508197"/>
      <point x="766.9016393442623" y="522.4262295081967" type="curve" smooth="yes"/>
      <point x="865.8852459016393" y="443.5409836065574"/>
      <point x="901.344262295082" y="404.08196721311475"/>
      <point x="901.344262295082" y="328.6885245901639" type="curve" smooth="yes"/>
      <point x="901.344262295082" y="233.60655737704917"/>
      <point x="829.0819672131148" y="160.63934426229508"/>
      <point x="677.9180327868852" y="160.63934426229508" type="curve" smooth="yes"/>
      <point x="583.9180327868853" y="160.63934426229508"/>
      <point x="490.0163934426229" y="200.32786885245903"/>
      <point x="425.4918032786885" y="245.32786885245903" type="curve"/>
      <point x="425.4918032786885" y="46.57377049180328" type="line"/>
      <point x="490.016393442623" y="4.459016393442623"/>
      <point x="583.5573770491803" y="-20.0"/>
      <point x="707.4426229508197" y="-20.0" type="curve" smooth="yes"/>
      <point x="961.3934426229508" y="-20.0"/>
      <point x="1138.9016393442623" y="111.91803278688525"/>
      <point x="1138.9016393442623" y="352.2295081967213" type="curve" smooth="yes"/>
      <point x="1138.9016393442623" y="483.655737704918"/>
      <point x="1069.1311475409836" y="562.5409836065573"/>
      <point x="962.4754098360656" y="648.7704918032787" type="curve" smooth="yes"/>
      <point x="905.983606557377" y="692.8360655737705"/>
      <point x="845.8688524590164" y="735.655737704918"/>
      <point x="845.8688524590164" y="783.9344262295082" type="curve" smooth="yes"/>
      <point x="845.8688524590164" y="847.1967213114755"/>
      <point x="914.8196721311475" y="892.1311475409836"/>
      <point x="993.2950819672132" y="945.3934426229508" type="curve" smooth="yes"/>
      <point x="1115.4262295081967" y="1025.8196721311476"/>
      <point x="1204.1311475409836" y="1112.9344262295083"/>
      <point x="1204.1311475409836" y="1268.7704918032787" type="curve" smooth="yes"/>
      <point x="1204.1311475409836" y="1454.950819672131"/>
      <point x="1049.639344262295" y="1567.0"/>
      <point x="806.9836065573771" y="1567.0" type="curve" smooth="yes"/>
      <point x="508.4590163934426" y="1567.0"/>
      <point x="352.26229508196724" y="1433.344262295082"/>
      <point x="293.4918032786885" y="1154.6065573770493" type="curve" smooth="yes"/>
      <point x="26.114754098360656" y="-107.57377049180329" type="line" smooth="yes"/>
      <point x="-3.114754098360655" y="-244.93442622950818"/>
      <point x="-60.77049180327868" y="-298.39344262295083"/>
      <point x="-145.0" y="-298.39344262295083" type="curve" smooth="yes"/>
      <point x="-186.22950819672133" y="-298.39344262295083"/>
      <point x="-220.34426229508196" y="-291.27868852459017"/>
      <point x="-257.7704918032787" y="-276.2786885245901" type="curve"/>
      <point x="-257.7704918032787" y="-469.2295081967213" type="line"/>
      <point x="-222.34426229508196" y="-482.11475409836066"/>
      <point x="-166.72131147540983" y="-492.0"/>
    </contour>
  </outline>
</glyph>
<glyph name="ae" format="2">
  <advance width="1726.360655737705"/>
  <unicode hex="00E6"/>
  <anchor x="745.5737704918033" y="0.0" name="bottom"/>
  <anchor x="980.7868852459017" y="1106.8524590163936" name="top"/>
  <outline>
    <contour>
      <point x="378.37704918032784" y="-20.0" type="curve" smooth="yes"/>
      <point x="525.9508196721312" y="-20.0"/>
      <point x="620.6393442622951" y="58.70491803278688"/>
      <point x="717.9180327868853" y="177.327868852459" type="curve"/>
      <point x="726.8032786885245" y="177.327868852459" type="line"/>
      <point x="707.2295081967213" y="0.0" type="line"/>
      <point x="857.327868852459" y="0.0" type="line"/>
      <point x="880.5737704918032" y="116.85245901639342" type="line"/>
      <point x="938.672131147541" y="23.475409836065566"/>
      <point x="1041.4918032786884" y="-20.0"/>
      <point x="1185.377049180328" y="-20.0" type="curve" smooth="yes"/>
      <point x="1309.688524590164" y="-20.0"/>
      <point x="1422.4262295081967" y="10.426229508196723"/>
      <point x="1529.0983606557377" y="59.868852459016395" type="curve"/>
      <point x="1529.0983606557377" y="248.40983606557376" type="line"/>
      <point x="1430.1803278688526" y="201.40983606557378"/>
      <point x="1325.5737704918033" y="163.52459016393442"/>
      <point x="1224.5737704918033" y="163.52459016393442" type="curve" smooth="yes"/>
      <point x="1057.4426229508197" y="163.52459016393442"/>
      <point x="988.9508196721312" y="261.09836065573774"/>
      <point x="988.9508196721312" y="402.0983606557377" type="curve" smooth="yes"/>
      <point x="988.9508196721312" y="421.11475409836066"/>
      <point x="990.0655737704918" y="440.81967213114757"/>
      <point x="992.0655737704918" y="461.27868852459017" type="curve"/>
      <point x="1037.9344262295083" y="461.27868852459017" type="line" smooth="yes"/>
      <point x="1481.409836065574" y="461.27868852459017"/>
      <point x="1678.7049180327867" y="625.3114754098361"/>
      <point x="1678.7049180327867" y="849.6065573770492" type="curve" smooth="yes"/>
      <point x="1678.7049180327867" y="1025.3770491803277"/>
      <point x="1554.360655737705" y="1127.2950819672133"/>
      <point x="1378.3770491803277" y="1127.2950819672133" type="curve" smooth="yes"/>
      <point x="1245.8688524590164" y="1127.2950819672133"/>
      <point x="1134.983606557377" y="1072.688524590164"/>
      <point x="1067.6393442622953" y="987.8688524590164" type="curve"/>
      <point x="1091.7704918032787" y="1106.8524590163936" type="line"/>
      <point x="944.4590163934427" y="1106.8524590163936" type="line"/>
      <point x="881.8852459016393" y="948.8032786885246" type="line"/>
      <point x="870.8852459016393" y="948.8032786885246" type="line"/>
      <point x="819.9180327868853" y="1052.5737704918033"/>
      <point x="746.2459016393443" y="1127.2950819672133"/>
      <point x="612.5901639344263" y="1127.2950819672133" type="curve" smooth="yes"/>
      <point x="313.8196721311475" y="1127.2950819672133"/>
      <point x="94.45901639344262" y="770.4262295081967"/>
      <point x="94.45901639344262" y="366.60655737704917" type="curve" smooth="yes"/>
      <point x="94.45901639344262" y="115.42622950819673"/>
      <point x="209.4262295081967" y="-20.0"/>
    </contour>
    <contour>
      <point x="464.49180327868856" y="170.60655737704917" type="curve" smooth="yes"/>
      <point x="386.672131147541" y="170.60655737704917"/>
      <point x="332.5737704918033" y="233.5409836065574"/>
      <point x="332.5737704918033" y="372.8032786885246" type="curve" smooth="yes"/>
      <point x="332.5737704918033" y="657.8524590163935"/>
      <point x="468.5573770491804" y="935.1311475409835"/>
      <point x="648.5409836065573" y="935.1311475409835" type="curve" smooth="yes"/>
      <point x="747.7868852459017" y="935.1311475409835"/>
      <point x="800.8196721311475" y="853.983606557377"/>
      <point x="800.8196721311475" y="735.1639344262295" type="curve" smooth="yes"/>
      <point x="800.8196721311475" y="674.5081967213114"/>
      <point x="793.9344262295082" y="608.3934426229508"/>
      <point x="776.0327868852459" y="539.4754098360655" type="curve" smooth="yes"/>
      <point x="721.655737704918" y="331.5737704918033"/>
      <point x="598.2131147540983" y="170.60655737704917"/>
    </contour>
    <contour>
      <point x="1021.7213114754098" y="632.5081967213115" type="line"/>
      <point x="1072.327868852459" y="827.3934426229508"/>
      <point x="1200.5737704918033" y="948.1967213114754"/>
      <point x="1333.1967213114754" y="948.1967213114754" type="curve" smooth="yes"/>
      <point x="1401.426229508197" y="948.1967213114754"/>
      <point x="1451.5737704918033" y="913.8524590163934"/>
      <point x="1451.5737704918033" y="836.4754098360656" type="curve" smooth="yes"/>
      <point x="1451.5737704918033" y="702.5737704918032"/>
      <point x="1291.4754098360656" y="632.5081967213115"/>
      <point x="1051.672131147541" y="632.5081967213115" type="curve" smooth="yes"/>
    </contour>
  </outline>
</glyph>
<glyph name="hbar" format="2">
  <advance width="1208.5737704918033"/>
  <unicode hex="0127"/>
  <anchor x="487.18032786885243" y="0.0" name="bottom"/>
  <anchor x="817.8524590163935" y="1556.0" name="top"/>
  <outline>
    <contour>
      <point x="48.147540983606554" y="0.0" type="line"/>
      <point x="282.26229508196724" y="0.0" type="line"/>
      <point x="372.72131147540983" y="432.21311475409834" type="line" smooth="yes"/>
      <point x="437.655737704918" y="737.0983606557377"/>
      <point x="590.2786885245902" y="899.7704918032787"/>
      <point x="727.7213114754098" y="899.7704918032787" type="curve" smooth="yes"/>
      <point x="815.4426229508197" y="899.7704918032787"/>
      <point x="856.016393442623" y="851.8524590163934"/>
      <point x="856.016393442623" y="762.2786885245902" type="curve" smooth="yes"/>
      <point x="856.016393442623" y="730.3934426229507"/>
      <point x="850.0163934426229" y="688.2786885245902"/>
      <point x="838.344262295082" y="635.4754098360655" type="curve" smooth="yes"/>
      <point x="703.311475409836" y="0.0" type="line"/>
      <point x="936.8688524590165" y="0.0" type="line"/>
      <point x="1067.9016393442623" y="616.2459016393442" type="line" smooth="yes"/>
      <point x="1081.344262295082" y="682.016393442623"/>
      <point x="1090.4590163934424" y="738.7704918032787"/>
      <point x="1090.4590163934424" y="790.0" type="curve" smooth="yes"/>
      <point x="1090.4590163934424" y="980.983606557377"/>
      <point x="990.0" y="1090.9344262295083"/>
      <point x="808.704918032787" y="1090.9344262295083" type="curve" smooth="yes"/>
      <point x="651.1803278688525" y="1090.9344262295083"/>
      <point x="544.0327868852459" y="992.7213114754098"/>
      <point x="465.37704918032784" y="890.2786885245902" type="curve"/>
      <point x="456.26229508196724" y="890.2786885245902" type="line"/>
      <point x="473.1475409836066" y="954.6393442622951"/>
      <point x="507.2622950819672" y="1076.5737704918033"/>
      <point x="540.7213114754098" y="1218.8524590163934" type="curve"/>
      <point x="863.688524590164" y="1218.8524590163934" type="line"/>
      <point x="899.4426229508197" y="1382.1803278688526" type="line"/>
      <point x="574.2459016393442" y="1382.1803278688526" type="line"/>
      <point x="611.7049180327868" y="1556.0" type="line"/>
      <point x="378.1475409836066" y="1556.0" type="line"/>
      <point x="340.91803278688525" y="1382.1803278688526" type="line"/>
      <point x="187.04918032786884" y="1382.1803278688526" type="line"/>
      <point x="150.73770491803276" y="1218.8524590163934" type="line"/>
      <point x="308.27868852459017" y="1218.8524590163934" type="line"/>
    </contour>
  </outline>
</glyph>
<glyph name="uni0185" format="2">
  <advance width="1189.0491803278687"/>
  <unicode hex="0185"/>
  <anchor x="477.1967213114754" y="0.0" name="bottom"/>
  <anchor x="808.311475409836" y="1556.0" name="top"/>
  <outline>
    <contour>
      <point x="528.8360655737705" y="-20.0" type="curve" smooth="yes"/>
      <point x="914.1967213114754" y="-20.0"/>
      <point x="1092.9180327868853" y="380.2950819672131"/>
      <point x="1092.9180327868853" y="731.2295081967212" type="curve" smooth="yes"/>
      <point x="1092.9180327868853" y="983.8852459016393"/>
      <point x="980.0491803278688" y="1126.1803278688526"/>
      <point x="783.032786885246" y="1126.1803278688526" type="curve" smooth="yes"/>
      <point x="632.5573770491803" y="1126.1803278688526"/>
      <point x="537.016393442623" y="1021.7540983606557"/>
      <point x="460.45901639344265" y="928.4098360655738" type="curve"/>
      <point x="450.13114754098365" y="928.4098360655738" type="line"/>
      <point x="466.45901639344265" y="974.2950819672132"/>
      <point x="502.80327868852464" y="1103.1475409836064"/>
      <point x="521.4754098360656" y="1186.8524590163936" type="curve" smooth="yes"/>
      <point x="600.1475409836066" y="1556.0" type="line"/>
      <point x="366.5901639344262" y="1556.0" type="line"/>
      <point x="153.36065573770492" y="554.0819672131147" type="line" smooth="yes"/>
      <point x="138.80327868852459" y="489.40983606557376"/>
      <point x="130.5737704918033" y="427.50819672131144"/>
      <point x="130.5737704918033" y="373.95081967213116" type="curve" smooth="yes"/>
      <point x="130.5737704918033" y="115.95081967213115"/>
      <point x="283.24590163934425" y="-20.0"/>
    </contour>
    <contour>
      <point x="530.8360655737705" y="170.60655737704917" type="curve" smooth="yes"/>
      <point x="418.4098360655738" y="170.60655737704917"/>
      <point x="357.0491803278689" y="242.21311475409834"/>
      <point x="357.0491803278689" y="381.81967213114757" type="curve" smooth="yes"/>
      <point x="357.0491803278689" y="609.1475409836065"/>
      <point x="501.7704918032787" y="935.1311475409835"/>
      <point x="699.5081967213115" y="935.1311475409835" type="curve" smooth="yes"/>
      <point x="804.7868852459017" y="935.1311475409835"/>
      <point x="855.3606557377049" y="866.655737704918"/>
      <point x="855.3606557377049" y="728.3770491803278" type="curve" smooth="yes"/>
      <point x="855.3606557377049" y="499.2950819672131"/>
      <point x="745.3934426229507" y="170.60655737704917"/>
    </contour>
  </outline>
</glyph>
<glyph name="uni0187" format="2">
  <advance width="1224.5737704918033"/>
  <unicode hex="0187"/>
  <anchor x="495.1803278688525" y="0.0" name="bottom"/>
  <anchor x="806.7377049180327" y="1462.0" name="top"/>
  <outline>
    <contour>
      <point x="664.016393442623" y="-20.0" type="curve" smooth="yes"/>
      <point x="827.4098360655738" y="-20.0"/>
      <point x="944.1147540983607" y="12.180327868852462"/>
      <point x="1039.4918032786886" y="48.08196721311475" type="curve"/>
      <point x="1039.4918032786886" y="252.344262295082" type="line"/>
      <point x="931.5081967213115" y="212.91803278688525"/>
      <point x="820.967213114754" y="184.81967213114757"/>
      <point x="709.295081967213" y="184.81967213114757" type="curve" smooth="yes"/>
      <point x="495.80327868852464" y="184.81967213114757"/>
      <point x="382.72131147540983" y="318.45901639344265"/>
      <point x="382.72131147540983" y="554.5081967213115" type="curve" smooth="yes"/>
      <point x="382.72131147540983" y="886.655737704918"/>
      <point x="549.9180327868853" y="1279.3934426229507"/>
      <point x="923.3934426229508" y="1279.3934426229507" type="curve" smooth="yes"/>
      <point x="1049.7377049180327" y="1279.3934426229507"/>
      <point x="1171.8196721311476" y="1234.393442622951"/>
      <point x="1260.7540983606557" y="1186.983606557377" type="curve"/>
      <point x="1326.2786885245903" y="1456.9016393442623" type="line" smooth="yes"/>
      <point x="1348.4918032786884" y="1548.655737704918"/>
      <point x="1384.1475409836066" y="1582.7540983606557"/>
      <point x="1444.262295081967" y="1582.7540983606557" type="curve" smooth="yes"/>
      <point x="1481.6885245901638" y="1582.7540983606557"/>
      <point x="1512.688524590164" y="1574.1967213114754"/>
      <point x="1543.688524590164" y="1564.1967213114754" type="curve"/>
      <point x="1543.688524590164" y="1751.377049180328" type="line"/>
      <point x="1518.032786885246" y="1763.377049180328"/>
      <point x="1474.1475409836064" y="1776.0327868852457"/>
      <point x="1420.295081967213" y="1776.0327868852457" type="curve" smooth="yes"/>
      <point x="1284.918032786885" y="1776.0327868852457"/>
      <point x="1188.4918032786884" y="1709.967213114754"/>
      <point x="1141.0819672131147" y="1514.704918032787" type="curve" smooth="yes"/>
      <point x="1128.8524590163936" y="1459.5409836065573" type="line"/>
      <point x="1067.065573770492" y="1475.8852459016393"/>
      <point x="1002.049180327869" y="1483.8852459016393"/>
      <point x="923.3934426229508" y="1483.8852459016393" type="curve" smooth="yes"/>
      <point x="384.8524590163935" y="1483.8852459016393"/>
      <point x="136.37704918032787" y="980.7704918032787"/>
      <point x="136.37704918032787" y="545.1967213114755" type="curve" smooth="yes"/>
      <point x="136.37704918032787" y="197.42622950819674"/>
      <point x="325.62295081967216" y="-20.0"/>
    </contour>
  </outline>
</glyph>
<glyph name="uni018B" format="2">
  <advance width="1188.032786885246"/>
  <unicode hex="018B"/>
  <anchor x="476.9672131147541" y="0.0" name="bottom"/>
  <anchor x="788.4098360655737" y="1462.0" name="top"/>
  <outline>
    <contour>
      <point x="547.6229508196722" y="0.0" type="curve" smooth="yes"/>
      <point x="886.8032786885246" y="0.0" type="line"/>
      <point x="1196.8032786885244" y="1462.0" type="line"/>
      <point x="369.24590163934425" y="1462.0" type="line"/>
      <point x="326.27868852459017" y="1258.3934426229507" type="line"/>
      <point x="918.0655737704918" y="1258.3934426229507" type="line"/>
      <point x="836.1147540983607" y="869.2295081967213" type="line"/>
      <point x="718.3934426229508" y="869.2295081967213" type="line" smooth="yes"/>
      <point x="332.62295081967216" y="869.2295081967213"/>
      <point x="82.50819672131146" y="708.7540983606557"/>
      <point x="82.50819672131146" y="385.90163934426226" type="curve" smooth="yes"/>
      <point x="82.50819672131146" y="158.06557377049182"/>
      <point x="216.14754098360658" y="0.0"/>
    </contour>
    <contour>
      <point x="566.3114754098361" y="200.49180327868856" type="line" smooth="yes"/>
      <point x="412.2295081967213" y="200.49180327868856"/>
      <point x="323.0655737704918" y="261.72131147540983"/>
      <point x="323.0655737704918" y="394.2295081967213" type="curve" smooth="yes"/>
      <point x="323.0655737704918" y="580.704918032787"/>
      <point x="473.5737704918033" y="668.7377049180328"/>
      <point x="690.4918032786885" y="668.7377049180328" type="curve" smooth="yes"/>
      <point x="791.8196721311476" y="668.7377049180328" type="line"/>
      <point x="692.6557377049181" y="200.49180327868856" type="line"/>
    </contour>
  </outline>
</glyph>
<glyph name="florin" format="2">
  <advance width="1128.0"/>
  <unicode hex="0192"/>
  <anchor x="-103.99999999999999" y="-492.0" name="bottom"/>
  <anchor x="315.0" y="1483.0" name="top"/>
  <outline>
    <contour>
      <point x="135.19672131147541" y="-492.0" type="curve" smooth="yes"/>
      <point x="357.65573770491807" y="-492.0"/>
      <point x="457.18032786885243" y="-342.72131147540983"/>
      <point x="503.5245901639345" y="-125.45901639344262" type="curve" smooth="yes"/>
      <point x="703.4262295081967" y="822.2786885245902" type="line"/>
      <point x="932.9016393442623" y="822.2786885245902" type="line"/>
      <point x="969.639344262295" y="998.8852459016393" type="line"/>
      <point x="741.1639344262296" y="998.8852459016393" type="line"/>
      <point x="763.7540983606558" y="1108.262295081967" type="line" smooth="yes"/>
      <point x="790.344262295082" y="1241.0819672131147"/>
      <point x="844.0327868852459" y="1293.393442622951"/>
      <point x="938.4262295081967" y="1293.393442622951" type="curve" smooth="yes"/>
      <point x="990.3114754098361" y="1293.393442622951"/>
      <point x="1033.5409836065573" y="1279.3934426229507"/>
      <point x="1072.5409836065573" y="1264.065573770492" type="curve"/>
      <point x="1134.1475409836066" y="1439.5737704918033" type="line"/>
      <point x="1081.4098360655737" y="1464.0"/>
      <point x="1002.2950819672132" y="1483.0"/>
      <point x="923.1147540983605" y="1483.0" type="curve" smooth="yes"/>
      <point x="712.5901639344262" y="1483.0"/>
      <point x="587.3934426229508" y="1392.344262295082"/>
      <point x="531.7377049180327" y="1118.0" type="curve" smooth="yes"/>
      <point x="508.7213114754099" y="1002.2295081967213" type="line"/>
      <point x="310.8032786885246" y="928.9180327868853" type="line"/>
      <point x="291.27868852459017" y="822.2786885245902" type="line"/>
      <point x="470.9836065573771" y="822.2786885245902" type="line"/>
      <point x="276.6229508196721" y="-94.3934426229508" type="line" smooth="yes"/>
      <point x="248.2786885245902" y="-234.57377049180323"/>
      <point x="183.27868852459014" y="-299.5081967213115"/>
      <point x="101.27868852459015" y="-299.5081967213115" type="curve" smooth="yes"/>
      <point x="58.93442622950819" y="-299.5081967213115"/>
      <point x="24.81967213114754" y="-291.27868852459017"/>
      <point x="-13.72131147540984" y="-277.3934426229508" type="curve"/>
      <point x="-13.72131147540984" y="-469.22950819672127" type="line"/>
      <point x="22.819672131147534" y="-482.11475409836066"/>
      <point x="78.88524590163935" y="-492.0"/>
    </contour>
  </outline>
</glyph>
<glyph name="uni0194" format="2">
  <advance width="1164.5245901639346"/>
  <unicode hex="0194"/>
  <anchor x="360.37704918032784" y="-492.0" name="bottom"/>
  <anchor x="776.3770491803278" y="1462.0" name="top"/>
  <outline>
    <contour>
      <point x="382.5245901639345" y="-492.0" type="curve" smooth="yes"/>
      <point x="581.7868852459017" y="-492.0"/>
      <point x="681.2131147540983" y="-342.65573770491807"/>
      <point x="681.2131147540983" y="-124.62295081967213" type="curve" smooth="yes"/>
      <point x="681.2131147540983" y="-21.96721311475409"/>
      <point x="664.2131147540983" y="95.45901639344262"/>
      <point x="631.2131147540983" y="224.26229508196724" type="curve"/>
      <point x="1356.1803278688524" y="1462.0" type="line"/>
      <point x="1098.049180327869" y="1462.0" type="line"/>
      <point x="699.4262295081967" y="763.0819672131148" type="line" smooth="yes"/>
      <point x="641.4098360655738" y="661.0655737704918"/>
      <point x="587.7213114754098" y="543.6229508196722"/>
      <point x="552.4918032786885" y="451.1639344262295" type="curve"/>
      <point x="549.3770491803278" y="541.6393442622951"/>
      <point x="534.7213114754098" y="672.1311475409835"/>
      <point x="519.4918032786885" y="769.4098360655738" type="curve" smooth="yes"/>
      <point x="415.26229508196724" y="1462.0" type="line"/>
      <point x="181.80327868852459" y="1462.0" type="line"/>
      <point x="394.0655737704918" y="235.37704918032787" type="line"/>
      <point x="248.91803278688525" y="41.81967213114754"/>
      <point x="157.8360655737705" y="-114.85245901639345"/>
      <point x="157.8360655737705" y="-259.1475409836066" type="curve" smooth="yes"/>
      <point x="157.8360655737705" y="-392.34426229508193"/>
      <point x="242.68852459016395" y="-492.0"/>
    </contour>
    <contour>
      <point x="401.39344262295083" y="-321.8196721311475" type="curve" smooth="yes"/>
      <point x="372.0655737704918" y="-321.8196721311475"/>
      <point x="352.18032786885243" y="-300.1475409836065"/>
      <point x="352.18032786885243" y="-252.0327868852459" type="curve" smooth="yes"/>
      <point x="352.18032786885243" y="-192.78688524590163"/>
      <point x="386.0655737704918" y="-80.0327868852459"/>
      <point x="478.2950819672131" y="50.99999999999999" type="curve"/>
      <point x="493.2950819672131" y="-3.770491803278688"/>
      <point x="499.2950819672131" y="-63.213114754098356"/>
      <point x="499.2950819672131" y="-114.77049180327869" type="curve" smooth="yes"/>
      <point x="499.2950819672131" y="-212.54098360655738"/>
      <point x="472.2950819672131" y="-321.8196721311475"/>
    </contour>
  </outline>
</glyph>
<glyph name="uni0196" format="2">
  <advance width="702.0655737704918"/>
  <unicode hex="0196"/>
  <anchor x="234.4262295081967" y="0.0" name="bottom"/>
  <anchor x="545.8688524590164" y="1462.0" name="top"/>
  <outline>
    <contour>
      <point x="372.3770491803279" y="-20.0" type="curve" smooth="yes"/>
      <point x="456.0655737704918" y="-20.0"/>
      <point x="541.3770491803278" y="0.8852459016393448"/>
      <point x="588.2131147540983" y="23.524590163934427" type="curve"/>
      <point x="588.2131147540983" y="200.0327868852459" type="line"/>
      <point x="530.5573770491803" y="180.81967213114757"/>
      <point x="490.4426229508197" y="169.49180327868854"/>
      <point x="441.0163934426229" y="169.49180327868854" type="curve" smooth="yes"/>
      <point x="372.9672131147541" y="169.49180327868854"/>
      <point x="344.09836065573774" y="206.98360655737707"/>
      <point x="344.09836065573774" y="265.45901639344265" type="curve" smooth="yes"/>
      <point x="344.09836065573774" y="294.27868852459017"/>
      <point x="350.327868852459" y="331.311475409836"/>
      <point x="358.327868852459" y="368.6393442622951" type="curve" smooth="yes"/>
      <point x="590.1147540983607" y="1462.0" type="line"/>
      <point x="354.22950819672127" y="1462.0" type="line"/>
      <point x="125.0" y="380.5081967213115" type="line" smooth="yes"/>
      <point x="109.90163934426229" y="310.11475409836066"/>
      <point x="103.11475409836065" y="264.42622950819674"/>
      <point x="103.11475409836065" y="227.40983606557376" type="curve" smooth="yes"/>
      <point x="103.11475409836065" y="41.885245901639344"/>
      <point x="214.77049180327867" y="-20.0"/>
    </contour>
  </outline>
</glyph>
<glyph name="uni019C" format="2">
  <advance width="1995.8688524590164"/>
  <unicode hex="019C"/>
  <anchor x="880.6065573770492" y="0.0" name="bottom"/>
  <anchor x="1192.1639344262294" y="1462.0" name="top"/>
  <outline>
    <contour>
      <point x="463.91803278688525" y="-20.0" type="curve" smooth="yes"/>
      <point x="625.049180327869" y="-20.0"/>
      <point x="757.6229508196722" y="45.885245901639344"/>
      <point x="860.1967213114755" y="175.14754098360655" type="curve"/>
      <point x="869.9672131147541" y="175.14754098360655" type="line"/>
      <point x="913.3934426229508" y="46.77049180327869"/>
      <point x="1008.5081967213115" y="-20.0"/>
      <point x="1155.8524590163936" y="-20.0" type="curve" smooth="yes"/>
      <point x="1303.7704918032787" y="-20.0"/>
      <point x="1428.311475409836" y="41.22950819672131"/>
      <point x="1516.967213114754" y="162.68852459016392" type="curve"/>
      <point x="1528.5081967213114" y="162.68852459016392" type="line"/>
      <point x="1519.590163934426" y="0.0" type="line"/>
      <point x="1694.6393442622953" y="0.0" type="line"/>
      <point x="2003.639344262295" y="1462.0" type="line"/>
      <point x="1769.1967213114756" y="1462.0" type="line"/>
      <point x="1584.7377049180327" y="593.9344262295082" type="line" smooth="yes"/>
      <point x="1534.4918032786884" y="360.8196721311475"/>
      <point x="1446.8852459016393" y="183.7049180327869"/>
      <point x="1241.4426229508197" y="183.7049180327869" type="curve" smooth="yes"/>
      <point x="1132.295081967213" y="183.7049180327869"/>
      <point x="1080.049180327869" y="244.40983606557378"/>
      <point x="1080.049180327869" y="349.8852459016394" type="curve" smooth="yes"/>
      <point x="1080.049180327869" y="379.44262295081967"/>
      <point x="1084.049180327869" y="414.44262295081967"/>
      <point x="1092.6065573770493" y="452.1147540983606" type="curve" smooth="yes"/>
      <point x="1306.2950819672133" y="1462.0" type="line"/>
      <point x="1069.295081967213" y="1462.0" type="line"/>
      <point x="877.2786885245902" y="556.0327868852459" type="line" smooth="yes"/>
      <point x="829.360655737705" y="332.11475409836066"/>
      <point x="732.0819672131148" y="183.7049180327869"/>
      <point x="534.3114754098361" y="183.7049180327869" type="curve" smooth="yes"/>
      <point x="426.60655737704917" y="183.7049180327869"/>
      <point x="374.45901639344265" y="243.29508196721312"/>
      <point x="374.45901639344265" y="350.344262295082" type="curve" smooth="yes"/>
      <point x="374.45901639344265" y="380.7868852459016"/>
      <point x="378.45901639344265" y="414.22950819672127"/>
      <point x="386.9016393442623" y="452.11475409836066" type="curve" smooth="yes"/>
      <point x="600.1475409836066" y="1462.0" type="line"/>
      <point x="363.70491803278685" y="1462.0" type="line"/>
      <point x="145.59016393442622" y="432.1967213114754" type="line" smooth="yes"/>
      <point x="135.0327868852459" y="387.1967213114754"/>
      <point x="131.0327868852459" y="347.08196721311475"/>
      <point x="131.0327868852459" y="308.08196721311475" type="curve" smooth="yes"/>
      <point x="131.0327868852459" y="94.19672131147541"/>
      <point x="270.59016393442624" y="-20.0"/>
    </contour>
  </outline>
</glyph>
<glyph name="uni019D" format="2">
  <advance width="1491.377049180328"/>
  <unicode hex="019D"/>
  <anchor x="524.8032786885246" y="-492.0" name="bottom"/>
  <anchor x="940.8032786885246" y="1462.0" name="top"/>
  <outline>
    <contour>
      <point x="-62.508196721311464" y="-492.0" type="curve" smooth="yes"/>
      <point x="114.34426229508198" y="-492.0"/>
      <point x="203.8688524590164" y="-390.08196721311475"/>
      <point x="251.95081967213116" y="-165.55737704918033" type="curve" smooth="yes"/>
      <point x="444.5737704918033" y="745.4098360655737" type="line" smooth="yes"/>
      <point x="474.6885245901639" y="889.983606557377"/>
      <point x="507.1311475409836" y="1103.4262295081967"/>
      <point x="515.0327868852459" y="1165.0819672131147" type="curve"/>
      <point x="522.8032786885246" y="1165.0819672131147" type="line"/>
      <point x="932.3114754098361" y="0.0" type="line"/>
      <point x="1192.377049180328" y="0.0" type="line"/>
      <point x="1501.377049180328" y="1462.0" type="line"/>
      <point x="1283.1147540983607" y="1462.0" type="line"/>
      <point x="1122.1803278688526" y="707.016393442623" type="line" smooth="yes"/>
      <point x="1093.8360655737706" y="578.8688524590164"/>
      <point x="1065.3934426229507" y="404.672131147541"/>
      <point x="1051.9508196721313" y="311.9836065573771" type="curve"/>
      <point x="1045.065573770492" y="311.9836065573771" type="line"/>
      <point x="644.8688524590164" y="1462.0" type="line"/>
      <point x="378.1639344262295" y="1462.0" type="line"/>
      <point x="38.147540983606554" y="-145.62295081967213" type="line" smooth="yes"/>
      <point x="14.45901639344262" y="-253.81967213114754"/>
      <point x="-35.65573770491803" y="-293.7049180327869"/>
      <point x="-105.9016393442623" y="-293.7049180327869" type="curve" smooth="yes"/>
      <point x="-144.7704918032787" y="-293.7049180327869"/>
      <point x="-180.19672131147541" y="-281.1475409836066"/>
      <point x="-200.54098360655738" y="-271.3606557377049" type="curve"/>
      <point x="-200.54098360655738" y="-461.88524590163934" type="line"/>
      <point x="-169.34426229508196" y="-477.0"/>
      <point x="-114.59016393442623" y="-492.0"/>
    </contour>
  </outline>
</glyph>
<glyph name="Ohorn" format="2">
  <advance width="1520.8032786885246"/>
  <unicode hex="01A0"/>
  <anchor x="643.5737704918033" y="0.0" name="bottom"/>
  <anchor x="891.655737704918" y="1462.0" name="top"/>
  <outline>
    <contour>
      <point x="679.3770491803278" y="-20.0" type="curve" smooth="yes"/>
      <point x="1179.377049180328" y="-20.0"/>
      <point x="1421.409836065574" y="428.672131147541"/>
      <point x="1421.409836065574" y="921.8360655737705" type="curve" smooth="yes"/>
      <point x="1421.409836065574" y="1002.0163934426229"/>
      <point x="1409.393442622951" y="1073.6229508196723"/>
      <point x="1389.032786885246" y="1137.7704918032787" type="curve"/>
      <point x="1580.049180327869" y="1213.1147540983607"/>
      <point x="1694.2131147540983" y="1331.1967213114754"/>
      <point x="1748.9508196721313" y="1533.1147540983607" type="curve"/>
      <point x="1740.065573770492" y="1556.0" type="line"/>
      <point x="1496.1475409836066" y="1556.0" type="line"/>
      <point x="1474.5901639344263" y="1415.4262295081967"/>
      <point x="1428.27868852459" y="1320.5409836065573"/>
      <point x="1330.967213114754" y="1272.4262295081967" type="curve"/>
      <point x="1242.967213114754" y="1407.8852459016393"/>
      <point x="1094.295081967213" y="1485.0"/>
      <point x="891.4262295081967" y="1485.0" type="curve" smooth="yes"/>
      <point x="399.0" y="1485.0"/>
      <point x="136.37704918032787" y="1025.327868852459"/>
      <point x="136.37704918032787" y="542.5737704918033" type="curve" smooth="yes"/>
      <point x="136.37704918032787" y="198.7704918032787"/>
      <point x="327.1639344262295" y="-20.0"/>
    </contour>
    <contour>
      <point x="692.4590163934425" y="184.81967213114757" type="curve" smooth="yes"/>
      <point x="498.45901639344265" y="184.81967213114757"/>
      <point x="382.72131147540983" y="314.688524590164"/>
      <point x="382.72131147540983" y="544.8032786885246" type="curve" smooth="yes"/>
      <point x="382.72131147540983" y="947.7868852459017"/>
      <point x="578.4262295081967" y="1280.5081967213114"/>
      <point x="873.1147540983607" y="1280.5081967213114" type="curve" smooth="yes"/>
      <point x="1064.4262295081967" y="1280.5081967213114"/>
      <point x="1175.1803278688526" y="1145.672131147541"/>
      <point x="1175.1803278688526" y="920.5245901639345" type="curve" smooth="yes"/>
      <point x="1175.1803278688526" y="504.4262295081967"/>
      <point x="979.5081967213115" y="184.81967213114757"/>
    </contour>
  </outline>
</glyph>
<glyph name="ohorn" format="2">
  <advance width="1231.1639344262296"/>
  <unicode hex="01A1"/>
  <anchor x="498.6393442622951" y="0.0" name="bottom"/>
  <anchor x="675.2786885245902" y="1106.8524590163936" name="top"/>
  <outline>
    <contour>
      <point x="512.4262295081968" y="-17.770491803278688" type="curve" smooth="yes"/>
      <point x="895.016393442623" y="-17.770491803278688"/>
      <point x="1079.5737704918033" y="337.62295081967216"/>
      <point x="1079.5737704918033" y="691.5409836065575" type="curve" smooth="yes"/>
      <point x="1079.5737704918033" y="751.3606557377049"/>
      <point x="1072.2295081967213" y="804.3934426229508"/>
      <point x="1054.983606557377" y="852.3114754098361" type="curve"/>
      <point x="1275.2295081967213" y="932.5081967213115"/>
      <point x="1372.7868852459017" y="1053.7049180327867"/>
      <point x="1422.8688524590164" y="1251.409836065574" type="curve"/>
      <point x="1413.983606557377" y="1274.8524590163934" type="line"/>
      <point x="1174.72131147541" y="1274.8524590163934" type="line"/>
      <point x="1153.1639344262296" y="1142.6065573770493"/>
      <point x="1113.2786885245903" y="1029.0819672131147"/>
      <point x="992.9180327868852" y="979.6229508196722" type="curve"/>
      <point x="921.1475409836065" y="1072.5081967213114"/>
      <point x="807.8196721311475" y="1123.950819672131"/>
      <point x="663.3770491803278" y="1123.950819672131" type="curve" smooth="yes"/>
      <point x="285.88524590163934" y="1123.950819672131"/>
      <point x="94.45901639344262" y="769.327868852459"/>
      <point x="94.45901639344262" y="407.7704918032787" type="curve" smooth="yes"/>
      <point x="94.45901639344262" y="144.11475409836066"/>
      <point x="259.3114754098361" y="-17.770491803278688"/>
    </contour>
    <contour>
      <point x="529.0655737704918" y="173.72131147540983" type="curve" smooth="yes"/>
      <point x="400.1967213114754" y="173.72131147540983"/>
      <point x="330.5737704918033" y="255.55737704918036"/>
      <point x="330.5737704918033" y="403.8688524590164" type="curve" smooth="yes"/>
      <point x="330.5737704918033" y="663.8360655737704"/>
      <point x="447.2295081967213" y="932.016393442623"/>
      <point x="654.7540983606557" y="932.016393442623" type="curve" smooth="yes"/>
      <point x="793.0819672131148" y="932.016393442623"/>
      <point x="842.344262295082" y="820.1475409836066"/>
      <point x="842.344262295082" y="703.2459016393443" type="curve" smooth="yes"/>
      <point x="842.344262295082" y="394.24590163934425"/>
      <point x="711.2295081967212" y="173.72131147540983"/>
    </contour>
  </outline>
</glyph>
<glyph name="uni01A4" format="2">
  <advance width="1385.8196721311476"/>
  <unicode hex="01A4"/>
  <anchor x="575.0819672131147" y="0.0" name="bottom"/>
  <anchor x="886.5245901639344" y="1462.0" name="top"/>
  <outline>
    <contour>
      <point x="256.1475409836066" y="0.0" type="line"/>
      <point x="492.59016393442624" y="0.0" type="line"/>
      <point x="607.8360655737705" y="548.4262295081968" type="line"/>
      <point x="749.9016393442623" y="548.4262295081968" type="line" smooth="yes"/>
      <point x="1144.2295081967213" y="548.4262295081968"/>
      <point x="1390.2459016393443" y="723.6721311475409"/>
      <point x="1390.2459016393443" y="1061.081967213115" type="curve" smooth="yes"/>
      <point x="1390.2459016393443" y="1300.590163934426"/>
      <point x="1262.8196721311474" y="1462.0"/>
      <point x="929.2295081967213" y="1462.0" type="curve" smooth="yes"/>
      <point x="510.8196721311475" y="1462.0" type="line" smooth="yes"/>
      <point x="257.1475409836066" y="1462.0"/>
      <point x="136.55737704918033" y="1325.295081967213"/>
      <point x="136.55737704918033" y="1126.5081967213116" type="curve" smooth="yes"/>
      <point x="136.55737704918033" y="1101.6229508196723"/>
      <point x="140.78688524590166" y="1067.27868852459"/>
      <point x="148.34426229508196" y="1049.065573770492" type="curve"/>
      <point x="334.65573770491807" y="1049.065573770492" type="line"/>
      <point x="330.42622950819674" y="1063.9672131147543"/>
      <point x="326.42622950819674" y="1087.8688524590164"/>
      <point x="326.42622950819674" y="1108.311475409836" type="curve" smooth="yes"/>
      <point x="326.42622950819674" y="1206.5409836065573"/>
      <point x="385.1967213114754" y="1262.0655737704917"/>
      <point x="479.65573770491807" y="1262.0655737704917" type="curve" smooth="yes"/>
      <point x="522.1803278688525" y="1262.0655737704917" type="line"/>
    </contour>
    <contour>
      <point x="650.4590163934427" y="746.688524590164" type="line"/>
      <point x="759.7377049180328" y="1262.0655737704917" type="line"/>
      <point x="909.983606557377" y="1262.0655737704917" type="line" smooth="yes"/>
      <point x="1070.7540983606557" y="1262.0655737704917"/>
      <point x="1150.1311475409836" y="1198.934426229508"/>
      <point x="1150.1311475409836" y="1054.1967213114754" type="curve" smooth="yes"/>
      <point x="1150.1311475409836" y="849.049180327869"/>
      <point x="1003.7213114754098" y="746.688524590164"/>
      <point x="776.1311475409836" y="746.688524590164" type="curve" smooth="yes"/>
    </contour>
  </outline>
</glyph>
<glyph name="uni01A5" format="2">
  <advance width="1200.606557377049"/>
  <unicode hex="01A5"/>
  <anchor x="379.1967213114754" y="-492.0" name="bottom"/>
  <anchor x="817.1967213114754" y="1568.7704918032787" name="top"/>
  <outline>
    <contour>
      <point x="-55.18032786885246" y="-492.0" type="line"/>
      <point x="177.26229508196724" y="-492.0" type="line"/>
      <point x="264.8688524590164" y="-77.31147540983608" type="line" smooth="yes"/>
      <point x="281.1803278688525" y="-4.409836065573778"/>
      <point x="293.1803278688525" y="86.27868852459017"/>
      <point x="297.8360655737705" y="156.93442622950818" type="curve"/>
      <point x="306.95081967213116" y="156.93442622950818" type="line"/>
      <point x="357.04918032786884" y="60.475409836065566"/>
      <point x="442.73770491803276" y="-20.0"/>
      <point x="585.7540983606558" y="-20.0" type="curve" smooth="yes"/>
      <point x="921.2950819672132" y="-20.0"/>
      <point x="1104.0327868852457" y="370.11475409836066"/>
      <point x="1104.0327868852457" y="736.5737704918033" type="curve" smooth="yes"/>
      <point x="1104.0327868852457" y="996.2950819672132"/>
      <point x="981.1639344262295" y="1126.1803278688526"/>
      <point x="797.9508196721312" y="1126.1803278688526" type="curve" smooth="yes"/>
      <point x="668.4098360655737" y="1126.1803278688526"/>
      <point x="562.4918032786885" y="1043.655737704918"/>
      <point x="469.80327868852464" y="926.6393442622951" type="curve"/>
      <point x="461.80327868852464" y="926.6393442622951" type="line"/>
      <point x="483.360655737705" y="995.1147540983607"/>
      <point x="509.26229508196724" y="1087.377049180328"/>
      <point x="531.9344262295082" y="1188.2295081967213" type="curve" smooth="yes"/>
      <point x="548.0655737704918" y="1260.1147540983607" type="line" smooth="yes"/>
      <point x="566.0655737704918" y="1340.5901639344263"/>
      <point x="607.7213114754098" y="1373.8196721311474"/>
      <point x="664.6065573770493" y="1373.8196721311474" type="curve" smooth="yes"/>
      <point x="708.4918032786886" y="1373.8196721311474"/>
      <point x="747.7213114754098" y="1362.9344262295083"/>
      <point x="768.8360655737706" y="1353.8196721311474" type="curve"/>
      <point x="768.8360655737705" y="1540.0" type="line"/>
      <point x="745.950819672131" y="1552.0"/>
      <point x="692.4098360655738" y="1568.7704918032787"/>
      <point x="634.7868852459017" y="1568.7704918032787" type="curve" smooth="yes"/>
      <point x="445.5245901639344" y="1568.7704918032787"/>
      <point x="357.9344262295082" y="1462.8196721311474"/>
      <point x="313.39344262295083" y="1253.0" type="curve" smooth="yes"/>
    </contour>
    <contour>
      <point x="546.7377049180328" y="170.60655737704917" type="curve" smooth="yes"/>
      <point x="422.86885245901635" y="170.60655737704917"/>
      <point x="368.72131147540983" y="251.75409836065575"/>
      <point x="368.72131147540983" y="371.6885245901639" type="curve" smooth="yes"/>
      <point x="368.72131147540983" y="656.5409836065573"/>
      <point x="534.1639344262295" y="935.1311475409835"/>
      <point x="707.0819672131147" y="935.1311475409835" type="curve" smooth="yes"/>
      <point x="810.1311475409835" y="935.1311475409835"/>
      <point x="866.4754098360655" y="867.7704918032787"/>
      <point x="866.4754098360655" y="733.4918032786886" type="curve" smooth="yes"/>
      <point x="866.4754098360655" y="457.91803278688525"/>
      <point x="738.7377049180328" y="170.60655737704917"/>
    </contour>
  </outline>
</glyph>
<glyph name="uni01AD" format="2">
  <advance width="750.8196721311475"/>
  <unicode hex="01AD"/>
  <anchor x="257.5245901639344" y="0.0" name="bottom"/>
  <anchor x="591.5245901639345" y="1567.0" name="top"/>
  <outline>
    <contour>
      <point x="392.72131147540983" y="-20.0" type="curve" smooth="yes"/>
      <point x="474.29508196721315" y="-20.0"/>
      <point x="559.6065573770492" y="0.8852459016393448"/>
      <point x="606.327868852459" y="23.52459016393443" type="curve"/>
      <point x="606.327868852459" y="200.0327868852459" type="line"/>
      <point x="549.344262295082" y="180.81967213114757"/>
      <point x="505.45901639344265" y="169.49180327868854"/>
      <point x="453.8032786885246" y="169.49180327868854" type="curve" smooth="yes"/>
      <point x="386.8688524590164" y="169.49180327868854"/>
      <point x="354.09836065573774" y="206.09836065573774"/>
      <point x="354.09836065573774" y="265.2295081967213" type="curve" smooth="yes"/>
      <point x="354.09836065573774" y="292.27868852459017"/>
      <point x="360.55737704918033" y="327.7704918032787"/>
      <point x="366.78688524590166" y="356.6885245901639" type="curve" smooth="yes"/>
      <point x="488.4754098360656" y="929.1311475409836" type="line"/>
      <point x="766.5737704918033" y="929.1311475409836" type="line"/>
      <point x="804.3114754098361" y="1106.8524590163936" type="line"/>
      <point x="525.2131147540983" y="1106.8524590163936" type="line"/>
      <point x="553.8032786885246" y="1242.7868852459017" type="line" smooth="yes"/>
      <point x="571.360655737705" y="1328.360655737705"/>
      <point x="616.5901639344262" y="1372.934426229508"/>
      <point x="699.0491803278688" y="1372.934426229508" type="curve" smooth="yes"/>
      <point x="755.4918032786886" y="1372.934426229508"/>
      <point x="809.377049180328" y="1360.049180327869"/>
      <point x="836.1475409836065" y="1350.7213114754097" type="curve"/>
      <point x="836.1475409836065" y="1537.344262295082" type="line"/>
      <point x="804.4918032786885" y="1550.2295081967213"/>
      <point x="745.0655737704918" y="1567.0"/>
      <point x="676.672131147541" y="1567.0" type="curve" smooth="yes"/>
      <point x="472.91803278688525" y="1567.0"/>
      <point x="373.42622950819674" y="1462.8852459016393"/>
      <point x="324.0" y="1235.9508196721313" type="curve" smooth="yes"/>
      <point x="296.7704918032787" y="1117.5737704918033" type="line"/>
      <point x="113.52459016393443" y="1039.344262295082" type="line"/>
      <point x="91.77049180327869" y="929.1311475409836" type="line"/>
      <point x="253.80327868852459" y="929.1311475409836" type="line"/>
      <point x="133.22950819672133" y="358.3606557377049" type="line" smooth="yes"/>
      <point x="123.0" y="310.1147540983606"/>
      <point x="117.88524590163934" y="264.42622950819674"/>
      <point x="117.88524590163934" y="227.40983606557376" type="curve" smooth="yes"/>
      <point x="117.88524590163934" y="41.885245901639344"/>
      <point x="231.88524590163934" y="-20.0"/>
    </contour>
  </outline>
</glyph>
<glyph name="Uhorn" format="2">
  <advance width="1532.377049180328"/>
  <unicode hex="01AF"/>
  <anchor x="649.8032786885245" y="0.0" name="bottom"/>
  <anchor x="883.0" y="1462.0" name="top"/>
  <outline>
    <contour>
      <point x="609.9344262295082" y="-20.0" type="curve" smooth="yes"/>
      <point x="977.8852459016395" y="-20.0"/>
      <point x="1150.27868852459" y="189.95081967213113"/>
      <point x="1216.8360655737704" y="505.9672131147541" type="curve" smooth="yes"/>
      <point x="1346.754098360656" y="1118.4262295081967" type="line"/>
      <point x="1608.1475409836066" y="1151.016393442623"/>
      <point x="1769.72131147541" y="1311.688524590164"/>
      <point x="1825.5737704918033" y="1533.1147540983607" type="curve"/>
      <point x="1816.1311475409836" y="1556.0" type="line"/>
      <point x="1573.8852459016393" y="1556.0" type="line"/>
      <point x="1548.4262295081967" y="1391.9180327868853"/>
      <point x="1489.032786885246" y="1299.9508196721313"/>
      <point x="1378.8360655737704" y="1271.3114754098362" type="curve"/>
      <point x="1420.065573770492" y="1462.0" type="line"/>
      <point x="1183.1803278688524" y="1462.0" type="line"/>
      <point x="984.1639344262295" y="527.7213114754098" type="line" smooth="yes"/>
      <point x="934.4754098360656" y="298.5245901639344"/>
      <point x="831.8852459016393" y="184.81967213114757"/>
      <point x="629.4262295081968" y="184.81967213114757" type="curve" smooth="yes"/>
      <point x="461.1803278688525" y="184.81967213114757"/>
      <point x="389.1475409836066" y="270.11475409836066"/>
      <point x="389.1475409836066" y="407.4098360655738" type="curve" smooth="yes"/>
      <point x="389.1475409836066" y="445.75409836065575"/>
      <point x="396.70491803278696" y="498.22950819672127"/>
      <point x="409.49180327868856" y="556.3770491803278" type="curve" smooth="yes"/>
      <point x="601.2622950819672" y="1462.0" type="line"/>
      <point x="364.8196721311475" y="1462.0" type="line"/>
      <point x="172.72131147540983" y="561.8524590163934" type="line" smooth="yes"/>
      <point x="160.04918032786884" y="504.26229508196724"/>
      <point x="152.7049180327869" y="440.655737704918"/>
      <point x="152.7049180327869" y="394.3114754098361" type="curve" smooth="yes"/>
      <point x="152.7049180327869" y="140.0655737704918"/>
      <point x="307.6885245901639" y="-20.0"/>
    </contour>
  </outline>
</glyph>
<glyph name="uni01B8" format="2">
  <advance width="1117.4918032786886"/>
  <unicode hex="01B8"/>
  <anchor x="441.5245901639344" y="0.0" name="bottom"/>
  <anchor x="752.5245901639345" y="1462.0" name="top"/>
  <outline>
    <contour>
      <point x="557.672131147541" y="-20.0" type="curve" smooth="yes"/>
      <point x="729.8688524590164" y="-20.0"/>
      <point x="861.2295081967213" y="4.885245901639343"/>
      <point x="989.1147540983607" y="62.11475409836066" type="curve"/>
      <point x="989.1147540983607" y="270.1803278688525" type="line"/>
      <point x="853.9180327868852" y="209.18032786885246"/>
      <point x="723.639344262295" y="172.6065573770492"/>
      <point x="595.9836065573771" y="172.6065573770492" type="curve" smooth="yes"/>
      <point x="414.80327868852464" y="172.6065573770492"/>
      <point x="308.9016393442623" y="245.29508196721312"/>
      <point x="308.9016393442623" y="383.9016393442623" type="curve" smooth="yes"/>
      <point x="308.9016393442623" y="606.4918032786885"/>
      <point x="519.8852459016393" y="663.8524590163935"/>
      <point x="765.3606557377049" y="663.8524590163935" type="curve" smooth="yes"/>
      <point x="852.1803278688524" y="663.8524590163935" type="line"/>
      <point x="888.032786885246" y="832.9180327868852" type="line"/>
      <point x="554.2786885245902" y="1257.27868852459" type="line"/>
      <point x="1152.327868852459" y="1257.27868852459" type="line"/>
      <point x="1195.295081967213" y="1462.0" type="line"/>
      <point x="322.0" y="1462.0" type="line"/>
      <point x="286.57377049180326" y="1293.5409836065573" type="line"/>
      <point x="638.8032786885245" y="835.8360655737705" type="line"/>
      <point x="333.3934426229508" y="822.9508196721312"/>
      <point x="64.90163934426229" y="700.1803278688525"/>
      <point x="64.90163934426229" y="371.95081967213116" type="curve" smooth="yes"/>
      <point x="64.90163934426229" y="143.63934426229508"/>
      <point x="226.72131147540983" y="-20.0"/>
    </contour>
  </outline>
</glyph>
<glyph name="uni01BA" format="2">
  <advance width="1010.639344262295"/>
  <unicode hex="01BA"/>
  <anchor x="284.0983606557377" y="-492.0" name="bottom"/>
  <anchor x="623.8688524590164" y="1106.8524590163936" name="top"/>
  <outline>
    <contour>
      <point x="261.0655737704918" y="-492.0" type="curve" smooth="yes"/>
      <point x="410.8688524590164" y="-492.0"/>
      <point x="551.0819672131148" y="-459.6885245901639"/>
      <point x="639.704918032787" y="-420.91803278688525" type="curve"/>
      <point x="639.7049180327868" y="-233.9344262295082" type="line"/>
      <point x="550.8524590163935" y="-270.04918032786884"/>
      <point x="425.7049180327869" y="-308.3606557377049"/>
      <point x="280.55737704918033" y="-308.3606557377049" type="curve" smooth="yes"/>
      <point x="161.0983606557377" y="-308.3606557377049"/>
      <point x="101.44262295081968" y="-276.0"/>
      <point x="101.44262295081968" y="-221.67213114754097" type="curve" smooth="yes"/>
      <point x="101.44262295081968" y="-157.88524590163934"/>
      <point x="164.1639344262295" y="-131.8688524590164"/>
      <point x="304.7213114754099" y="-113.50819672131146" type="curve" smooth="yes"/>
      <point x="745.5081967213115" y="-60.278688524590166"/>
      <point x="878.5245901639344" y="67.7704918032787"/>
      <point x="878.5245901639344" y="305.8360655737705" type="curve" smooth="yes"/>
      <point x="878.5245901639344" y="497.54098360655735"/>
      <point x="740.1475409836066" y="601.344262295082"/>
      <point x="550.2131147540983" y="623.655737704918" type="curve"/>
      <point x="952.0983606557378" y="947.0819672131147" type="line"/>
      <point x="986.1803278688525" y="1106.8524590163936" type="line"/>
      <point x="204.55737704918033" y="1106.8524590163936" type="line"/>
      <point x="164.2622950819672" y="918.9999999999999" type="line"/>
      <point x="635.2786885245902" y="918.9999999999999" type="line"/>
      <point x="268.344262295082" y="612.0" type="line"/>
      <point x="236.49180327868854" y="452.0327868852459" type="line"/>
      <point x="352.7704918032787" y="452.0327868852459" type="line" smooth="yes"/>
      <point x="527.8852459016393" y="452.0327868852459"/>
      <point x="644.0819672131147" y="421.78688524590166"/>
      <point x="644.0819672131147" y="305.1967213114754" type="curve" smooth="yes"/>
      <point x="644.0819672131147" y="163.95081967213116"/>
      <point x="529.655737704918" y="116.68852459016395"/>
      <point x="318.04918032786884" y="89.21311475409837" type="curve" smooth="yes"/>
      <point x="16.81967213114755" y="51.065573770491824"/>
      <point x="-103.73770491803279" y="-44.1967213114754"/>
      <point x="-103.73770491803279" y="-230.7704918032787" type="curve" smooth="yes"/>
      <point x="-103.73770491803279" y="-395.45901639344265"/>
      <point x="33.8688524590164" y="-492.0"/>
    </contour>
  </outline>
</glyph>
<glyph name="uni01BB" format="2">
  <advance width="1103.1475409836064"/>
  <unicode hex="01BB"/>
  <anchor x="433.9672131147541" y="0.0" name="bottom"/>
  <anchor x="767.967213114754" y="1567.0" name="top"/>
  <outline>
    <contour>
      <point x="-39.196721311475414" y="0.0" type="line"/>
      <point x="899.2131147540983" y="0.0" type="line"/>
      <point x="939.9508196721312" y="206.49180327868856" type="line"/>
      <point x="310.2295081967213" y="206.49180327868856" type="line"/>
      <point x="310.2295081967213" y="215.3770491803279" type="line"/>
      <point x="775.4590163934427" y="690.2131147540983" type="line"/>
      <point x="1050.5737704918033" y="690.2131147540983" type="line"/>
      <point x="1086.8852459016393" y="858.0" type="line"/>
      <point x="914.4426229508197" y="858.0" type="line"/>
      <point x="1019.2622950819673" y="966.8524590163934"/>
      <point x="1074.2459016393443" y="1095.4262295081967"/>
      <point x="1074.2459016393443" y="1231.016393442623" type="curve" smooth="yes"/>
      <point x="1074.2459016393443" y="1421.590163934426"/>
      <point x="937.4918032786886" y="1567.0"/>
      <point x="691.2295081967213" y="1567.0" type="curve" smooth="yes"/>
      <point x="507.54098360655735" y="1567.0"/>
      <point x="366.3606557377049" y="1489.262295081967"/>
      <point x="243.85245901639342" y="1387.311475409836" type="curve"/>
      <point x="356.40983606557376" y="1228.9016393442623" type="line"/>
      <point x="465.24590163934425" y="1314.622950819672"/>
      <point x="556.0491803278688" y="1366.967213114754"/>
      <point x="667.311475409836" y="1366.967213114754" type="curve" smooth="yes"/>
      <point x="767.1147540983607" y="1366.967213114754"/>
      <point x="832.2459016393442" y="1308.0327868852457"/>
      <point x="832.2459016393442" y="1201.8196721311476" type="curve" smooth="yes"/>
      <point x="832.2459016393442" y="1090.5081967213116"/>
      <point x="778.032786885246" y="983.7213114754098"/>
      <point x="660.4754098360656" y="858.0" type="curve"/>
      <point x="191.77049180327867" y="858.0" type="line"/>
      <point x="155.4590163934426" y="690.2131147540983" type="line"/>
      <point x="502.04918032786884" y="690.2131147540983" type="line"/>
      <point x="-1.7704918032786878" y="180.11475409836066" type="line"/>
    </contour>
  </outline>
</glyph>
<glyph name="uni01BF" format="2">
  <advance width="1186.672131147541"/>
  <unicode hex="01BF"/>
  <anchor x="371.9508196721311" y="-492.0" name="bottom"/>
  <anchor x="711.7213114754098" y="1106.8524590163936" name="top"/>
  <outline>
    <contour>
      <point x="-55.180327868852466" y="-492.0" type="line"/>
      <point x="177.26229508196724" y="-492.0" type="line"/>
      <point x="275.9344262295082" y="-28.40983606557377" type="line"/>
      <point x="757.9180327868853" y="23.475409836065573"/>
      <point x="1099.5737704918033" y="366.11475409836066"/>
      <point x="1099.5737704918033" y="762.2295081967213" type="curve" smooth="yes"/>
      <point x="1099.5737704918033" y="984.7377049180328"/>
      <point x="991.8360655737706" y="1126.1803278688524"/>
      <point x="793.032786885246" y="1126.1803278688524" type="curve" smooth="yes"/>
      <point x="635.4426229508197" y="1126.1803278688524"/>
      <point x="526.9672131147541" y="1029.2622950819673"/>
      <point x="454.75409836065575" y="916.2295081967213" type="curve"/>
      <point x="446.3114754098361" y="916.2295081967213" type="line"/>
      <point x="467.21311475409834" y="1106.8524590163936" type="line"/>
      <point x="283.4754098360656" y="1106.8524590163936" type="line"/>
    </contour>
    <contour>
      <point x="317.55737704918033" y="174.1803278688525" type="curve"/>
      <point x="384.91803278688525" y="492.5245901639344" type="line" smooth="yes"/>
      <point x="437.4754098360656" y="744.0983606557377"/>
      <point x="547.8524590163935" y="935.1311475409836"/>
      <point x="707.4754098360656" y="935.1311475409836" type="curve" smooth="yes"/>
      <point x="817.4426229508197" y="935.1311475409836"/>
      <point x="860.9016393442623" y="856.9508196721312"/>
      <point x="860.9016393442623" y="744.9016393442623" type="curve" smooth="yes"/>
      <point x="860.9016393442623" y="463.655737704918"/>
      <point x="622.8688524590164" y="214.52459016393445"/>
    </contour>
  </outline>
</glyph>
<glyph name="uni01C0" format="2">
  <advance width="624.4262295081967"/>
  <unicode hex="01C0"/>
  <anchor x="195.27868852459017" y="0.0" name="bottom"/>
  <anchor x="527.2786885245902" y="1556.0" name="top"/>
  <outline>
    <contour>
      <point x="101.77049180327867" y="0.0" type="line"/>
      <point x="287.88524590163934" y="0.0" type="line"/>
      <point x="619.327868852459" y="1556.0" type="line"/>
      <point x="433.327868852459" y="1556.0" type="line"/>
    </contour>
  </outline>
</glyph>
<glyph name="uni01E4" format="2">
  <advance width="1399.622950819672"/>
  <unicode hex="01E4"/>
  <anchor x="582.4262295081968" y="0.0" name="bottom"/>
  <anchor x="893.4262295081968" y="1462.0" name="top"/>
  <outline>
    <contour>
      <point x="685.1803278688525" y="-20.0" type="curve" smooth="yes"/>
      <point x="879.7540983606557" y="-20.0"/>
      <point x="1013.0819672131148" y="12.885245901639346"/>
      <point x="1139.9508196721313" y="56.77049180327869" type="curve"/>
      <point x="1197.5081967213114" y="322.9836065573771" type="line"/>
      <point x="1326.5081967213116" y="322.9836065573771" type="line"/>
      <point x="1361.9344262295083" y="492.0" type="line"/>
      <point x="1233.8196721311476" y="492.0" type="line"/>
      <point x="1304.8032786885246" y="820.016393442623" type="line"/>
      <point x="794.1967213114755" y="820.016393442623" type="line"/>
      <point x="750.3442622950819" y="616.6393442622951" type="line"/>
      <point x="1028.0491803278687" y="616.6393442622951" type="line"/>
      <point x="1000.3606557377049" y="492.0" type="line"/>
      <point x="738.311475409836" y="492.0" type="line"/>
      <point x="702.8852459016393" y="322.9836065573771" type="line"/>
      <point x="963.7213114754098" y="322.9836065573771" type="line"/>
      <point x="938.4754098360655" y="207.21311475409837" type="line"/>
      <point x="884.2295081967213" y="189.42622950819674"/>
      <point x="810.8360655737705" y="175.52459016393442"/>
      <point x="728.0819672131147" y="175.52459016393442" type="curve" smooth="yes"/>
      <point x="498.8360655737705" y="175.52459016393442"/>
      <point x="382.72131147540983" y="316.7704918032787"/>
      <point x="382.72131147540983" y="556.2786885245902" type="curve" smooth="yes"/>
      <point x="382.72131147540983" y="945.655737704918"/>
      <point x="600.4262295081967" y="1277.622950819672"/>
      <point x="947.7213114754098" y="1277.622950819672" type="curve" smooth="yes"/>
      <point x="1076.5409836065573" y="1277.622950819672"/>
      <point x="1182.688524590164" y="1240.3934426229507"/>
      <point x="1282.9180327868853" y="1191.8524590163934" type="curve"/>
      <point x="1372.8360655737704" y="1392.1311475409836" type="line"/>
      <point x="1246.967213114754" y="1451.7704918032787"/>
      <point x="1121.0819672131147" y="1483.8852459016393"/>
      <point x="955.0327868852459" y="1483.8852459016393" type="curve" smooth="yes"/>
      <point x="444.4262295081967" y="1483.8852459016393"/>
      <point x="136.37704918032787" y="1057.032786885246"/>
      <point x="136.37704918032787" y="538.4098360655738" type="curve" smooth="yes"/>
      <point x="136.37704918032787" y="181.11475409836066"/>
      <point x="340.72131147540983" y="-20.0"/>
    </contour>
  </outline>
</glyph>
<glyph name="aringacute" format="2">
  <advance width="1186.9016393442623"/>
  <unicode hex="01FB"/>
  <anchor x="475.62295081967216" y="0.0" name="bottom"/>
  <anchor x="893.6229508196722" y="1962.0" name="top"/>
  <outline>
    <contour>
      <point x="399.8688524590164" y="-20.0" type="curve" smooth="yes"/>
      <point x="548.1147540983607" y="-20.0"/>
      <point x="661.1639344262295" y="66.50819672131146"/>
      <point x="748.967213114754" y="177.327868852459" type="curve"/>
      <point x="756.967213114754" y="177.327868852459" type="line"/>
      <point x="736.2786885245902" y="0.0" type="line"/>
      <point x="915.5737704918033" y="0.0" type="line"/>
      <point x="1150.7868852459017" y="1106.8524590163936" type="line"/>
      <point x="971.7377049180328" y="1106.8524590163936" type="line"/>
      <point x="910.2786885245902" y="948.8032786885246" type="line"/>
      <point x="900.6065573770492" y="948.8032786885246" type="line"/>
      <point x="853.8360655737705" y="1047.9180327868853"/>
      <point x="766.7213114754098" y="1127.2950819672133"/>
      <point x="624.1639344262295" y="1127.2950819672133" type="curve" smooth="yes"/>
      <point x="309.1639344262295" y="1127.2950819672133"/>
      <point x="94.45901639344262" y="757.8032786885245"/>
      <point x="94.45901639344262" y="367.7213114754099" type="curve" smooth="yes"/>
      <point x="94.45901639344262" y="100.59016393442623"/>
      <point x="230.0655737704918" y="-20.0"/>
    </contour>
    <contour>
      <point x="485.5409836065574" y="170.60655737704917" type="curve" smooth="yes"/>
      <point x="388.49180327868856" y="170.60655737704917"/>
      <point x="332.5737704918033" y="238.40983606557376"/>
      <point x="332.5737704918033" y="371.688524590164" type="curve" smooth="yes"/>
      <point x="332.5737704918033" y="656.7377049180327"/>
      <point x="472.9836065573771" y="935.1311475409835"/>
      <point x="656.7704918032787" y="935.1311475409835" type="curve" smooth="yes"/>
      <point x="762.2786885245902" y="935.1311475409835"/>
      <point x="828.5409836065573" y="853.983606557377"/>
      <point x="828.5409836065573" y="740.4754098360656" type="curve" smooth="yes"/>
      <point x="828.5409836065573" y="680.2622950819673"/>
      <point x="823.4262295081967" y="619.9016393442622"/>
      <point x="806.8524590163935" y="552.967213114754" type="curve" smooth="yes"/>
      <point x="756.4590163934427" y="344.4098360655738"/>
      <point x="623.032786885246" y="170.60655737704917"/>
    </contour>
    <contour>
      <point x="732.0819672131147" y="1198.0" type="curve" smooth="yes"/>
      <point x="866.6065573770492" y="1198.0"/>
      <point x="967.688524590164" y="1281.3114754098362"/>
      <point x="967.688524590164" y="1424.0655737704917" type="curve" smooth="yes"/>
      <point x="967.688524590164" y="1563.4918032786886"/>
      <point x="865.7213114754098" y="1646.8032786885246"/>
      <point x="732.0819672131147" y="1646.8032786885246" type="curve" smooth="yes"/>
      <point x="598.4590163934427" y="1646.8032786885246"/>
      <point x="498.45901639344265" y="1563.4918032786886"/>
      <point x="498.45901639344265" y="1422.065573770492" type="curve" smooth="yes"/>
      <point x="498.45901639344265" y="1282.4262295081967"/>
      <point x="592.8852459016393" y="1198.0"/>
    </contour>
    <contour>
      <point x="732.0819672131147" y="1316.1475409836066" type="curve" smooth="yes"/>
      <point x="661.8360655737705" y="1316.1475409836066"/>
      <point x="626.6065573770492" y="1357.606557377049"/>
      <point x="626.6065573770492" y="1422.065573770492" type="curve" smooth="yes"/>
      <point x="626.6065573770492" y="1488.3114754098362"/>
      <point x="669.8360655737705" y="1527.5409836065573"/>
      <point x="732.0819672131147" y="1527.5409836065573" type="curve" smooth="yes"/>
      <point x="791.9836065573771" y="1527.5409836065573"/>
      <point x="838.0" y="1488.3114754098362"/>
      <point x="838.0" y="1422.065573770492" type="curve" smooth="yes"/>
      <point x="838.0" y="1357.606557377049"/>
      <point x="791.983606557377" y="1316.1475409836066"/>
    </contour>
    <contour>
      <point x="669.967213114754" y="1723.4590163934427" type="line"/>
      <point x="834.2459016393443" y="1723.4590163934427" type="line"/>
      <point x="937.4918032786885" y="1777.606557377049"/>
      <point x="1098.6065573770493" y="1885.344262295082"/>
      <point x="1165.5573770491803" y="1947.5409836065576" type="curve"/>
      <point x="1165.5573770491803" y="1962.0" type="line"/>
      <point x="888.7704918032787" y="1962.0" type="line"/>
      <point x="831.8688524590165" y="1894.639344262295"/>
      <point x="738.3114754098361" y="1799.4918032786886"/>
      <point x="669.967213114754" y="1739.688524590164" type="curve"/>
    </contour>
  </outline>
</glyph>
<glyph name="uni0224" format="2">
  <advance width="1091.8688524590164"/>
  <unicode hex="0224"/>
  <anchor x="336.688524590164" y="-434.7704918032787" name="bottom"/>
  <anchor x="739.8852459016393" y="1462.0" name="top"/>
  <outline>
    <contour>
      <point x="588.2786885245902" y="-434.7704918032787" type="curve" smooth="yes"/>
      <point x="731.6229508196722" y="-434.7704918032787"/>
      <point x="826.0655737704918" y="-363.9508196721311"/>
      <point x="869.2622950819672" y="-154.7377049180328" type="curve" smooth="yes"/>
      <point x="944.5737704918032" y="204.72131147540986" type="line"/>
      <point x="298.4098360655738" y="204.72131147540986" type="line"/>
      <point x="1152.311475409836" y="1291.7704918032787" type="line"/>
      <point x="1185.5081967213116" y="1462.0" type="line"/>
      <point x="289.08196721311475" y="1462.0" type="line"/>
      <point x="246.11475409836066" y="1257.27868852459" type="line"/>
      <point x="846.5245901639344" y="1257.27868852459" type="line"/>
      <point x="-5.721311475409838" y="168.672131147541" type="line"/>
      <point x="-38.14754098360656" y="0.0" type="line"/>
      <point x="701.1147540983607" y="0.0" type="line"/>
      <point x="672.1147540983605" y="-133.2295081967213" type="line" smooth="yes"/>
      <point x="653.672131147541" y="-216.57377049180326"/>
      <point x="619.1147540983605" y="-251.11475409836066"/>
      <point x="555.9016393442623" y="-251.11475409836066" type="curve" smooth="yes"/>
      <point x="522.9016393442623" y="-251.11475409836066"/>
      <point x="487.47540983606564" y="-243.11475409836063"/>
      <point x="460.1311475409836" y="-232.11475409836063" type="curve"/>
      <point x="460.1311475409836" y="-410.0" type="line"/>
      <point x="489.655737704918" y="-424.21311475409834"/>
      <point x="536.1967213114754" y="-434.7704918032787"/>
    </contour>
  </outline>
</glyph>
<glyph name="uni023C" format="2">
  <advance width="955.0"/>
  <unicode hex="023C"/>
  <anchor x="379.1639344262295" y="-305.8524590163934" name="bottom"/>
  <anchor x="709.4918032786885" y="1404.1475409836066" name="top"/>
  <outline>
    <contour>
      <point x="44.098360655737714" y="-305.8524590163934" type="line"/>
      <point x="206.0" y="-305.8524590163934" type="line"/>
      <point x="1070.4590163934427" y="1404.1475409836066" type="line"/>
      <point x="911.0" y="1404.1475409836066" type="line"/>
    </contour>
    <component base="c" xOffset="-4.440892098500626e-16"/>
  </outline>
</glyph>
<glyph name="uni023F" format="2">
  <advance width="922.1803278688525"/>
  <unicode hex="023F"/>
  <anchor x="239.14754098360655" y="-492.0" name="bottom"/>
  <anchor x="578.9180327868852" y="1106.8524590163936" name="top"/>
  <outline>
    <contour>
      <point x="494.72131147540983" y="-492.0" type="curve" smooth="yes"/>
      <point x="556.0491803278688" y="-492.0"/>
      <point x="612.377049180328" y="-478.7704918032787"/>
      <point x="649.5737704918032" y="-463.88524590163934" type="curve"/>
      <point x="649.5737704918032" y="-277.8196721311475" type="line"/>
      <point x="612.5737704918033" y="-291.04918032786884"/>
      <point x="571.7704918032787" y="-301.27868852459017"/>
      <point x="528.5409836065573" y="-301.27868852459017" type="curve" smooth="yes"/>
      <point x="451.60655737704917" y="-301.27868852459017"/>
      <point x="415.6885245901639" y="-254.9344262295082"/>
      <point x="392.95081967213116" y="-140.78688524590166" type="curve" smooth="yes"/>
      <point x="385.1803278688525" y="-96.62295081967213"/>
      <point x="374.5245901639345" y="-47.68852459016393"/>
      <point x="345.95081967213116" y="-19.114754098360656" type="curve"/>
      <point x="618.311475409836" y="-13.803278688524589"/>
      <point x="781.0655737704918" y="112.18032786885247"/>
      <point x="781.0655737704918" y="340.016393442623" type="curve" smooth="yes"/>
      <point x="781.0655737704918" y="492.688524590164"/>
      <point x="680.8360655737705" y="572.0"/>
      <point x="542.4918032786885" y="647.5737704918032" type="curve" smooth="yes"/>
      <point x="411.32786885245906" y="719.3934426229508"/>
      <point x="374.327868852459" y="754.2950819672132"/>
      <point x="374.327868852459" y="817.8852459016393" type="curve" smooth="yes"/>
      <point x="374.327868852459" y="895.2622950819672"/>
      <point x="443.016393442623" y="943.0983606557377"/>
      <point x="538.1147540983607" y="943.0983606557377" type="curve" smooth="yes"/>
      <point x="643.3934426229508" y="943.0983606557377"/>
      <point x="730.4918032786885" y="907.655737704918"/>
      <point x="805.0327868852459" y="868.0163934426229" type="curve"/>
      <point x="881.1803278688524" y="1042.8852459016393" type="line"/>
      <point x="784.5737704918033" y="1094.72131147541"/>
      <point x="666.688524590164" y="1127.2950819672133"/>
      <point x="535.4590163934427" y="1127.2950819672133" type="curve" smooth="yes"/>
      <point x="291.1967213114754" y="1127.2950819672133"/>
      <point x="139.0" y="1002.295081967213"/>
      <point x="139.0" y="795.9344262295082" type="curve" smooth="yes"/>
      <point x="139.0" y="656.0491803278688"/>
      <point x="218.11475409836066" y="576.704918032787"/>
      <point x="366.59016393442624" y="493.1311475409836" type="curve" smooth="yes"/>
      <point x="506.26229508196724" y="414.45901639344265"/>
      <point x="543.5081967213115" y="378.99999999999994"/>
      <point x="543.5081967213115" y="310.0655737704918" type="curve" smooth="yes"/>
      <point x="543.5081967213115" y="216.91803278688525"/>
      <point x="456.62295081967216" y="160.63934426229508"/>
      <point x="324.72131147540983" y="160.63934426229508" type="curve" smooth="yes"/>
      <point x="211.1639344262295" y="160.63934426229508"/>
      <point x="99.0327868852459" y="200.32786885245903"/>
      <point x="15.754098360655739" y="249.52459016393445" type="curve"/>
      <point x="15.754098360655739" y="47.229508196721305" type="line"/>
      <point x="38.11475409836065" y="33.65573770491804"/>
      <point x="59.36065573770492" y="26.770491803278688"/>
      <point x="81.60655737704917" y="12.196721311475413" type="curve" smooth="yes"/>
      <point x="152.47540983606558" y="-29.688524590163933"/>
      <point x="174.72131147540983" y="-74.65573770491802"/>
      <point x="191.01639344262293" y="-176.19672131147541" type="curve" smooth="yes"/>
      <point x="222.72131147540983" y="-385.91803278688525"/>
      <point x="297.8524590163935" y="-492.0"/>
    </contour>
  </outline>
</glyph>
<glyph name="uni0242" format="2">
  <advance width="931.9508196721312"/>
  <unicode hex="0242"/>
  <anchor x="349.0327868852459" y="0.0" name="bottom"/>
  <anchor x="583.8032786885246" y="1106.8524590163936" name="top"/>
  <outline>
    <contour>
      <point x="129.0" y="0.0" type="line"/>
      <point x="360.55737704918033" y="0.0" type="line"/>
      <point x="398.672131147541" y="183.80327868852459" type="line"/>
      <point x="698.3278688524591" y="293.1967213114754"/>
      <point x="877.4754098360656" y="470.50819672131144"/>
      <point x="877.4754098360656" y="754.7213114754098" type="curve" smooth="yes"/>
      <point x="877.4754098360656" y="970.5409836065573"/>
      <point x="734.9016393442623" y="1127.2950819672133"/>
      <point x="476.983606557377" y="1127.2950819672133" type="curve" smooth="yes"/>
      <point x="312.26229508196724" y="1127.2950819672133"/>
      <point x="196.1803278688525" y="1088.672131147541"/>
      <point x="71.34426229508196" y="1014.0" type="curve"/>
      <point x="154.2950819672131" y="837.9180327868852" type="line"/>
      <point x="238.01639344262296" y="891.7540983606557"/>
      <point x="331.73770491803276" y="932.016393442623"/>
      <point x="445.4918032786885" y="932.016393442623" type="curve" smooth="yes"/>
      <point x="558.7704918032787" y="932.016393442623"/>
      <point x="639.9180327868852" y="850.7213114754098"/>
      <point x="639.9180327868852" y="735.4262295081968" type="curve" smooth="yes"/>
      <point x="639.9180327868852" y="498.7213114754099"/>
      <point x="404.9016393442623" y="381.39344262295083"/>
      <point x="193.0983606557377" y="307.8360655737705" type="curve"/>
    </contour>
  </outline>
</glyph>
<glyph name="uni0246" format="2">
  <advance width="1078.2295081967213"/>
  <unicode hex="0246"/>
  <anchor x="492.2950819672131" y="0.0" name="bottom"/>
  <anchor x="756.2295081967213" y="1462.0" name="top"/>
  <outline>
    <contour>
      <point x="190.0" y="-154.0" type="line"/>
      <point x="358.57377049180326" y="-154.0" type="line"/>
      <point x="1116.606557377049" y="1556.0" type="line"/>
      <point x="950.1475409836065" y="1556.0" type="line"/>
    </contour>
    <component base="E" xOffset="2.220446049250313e-16"/>
  </outline>
</glyph>
<glyph name="uni024D" format="2">
  <advance width="835.8032786885246"/>
  <unicode hex="024D"/>
  <anchor x="300.73770491803276" y="0.0" name="bottom"/>
  <anchor x="535.9508196721312" y="1106.8524590163936" name="top"/>
  <outline>
    <contour>
      <point x="48.147540983606554" y="0.0" type="line"/>
      <point x="282.26229508196724" y="0.0" type="line"/>
      <point x="384.95081967213116" y="484.54098360655735" type="line"/>
      <point x="614.1147540983607" y="484.54098360655735" type="line"/>
      <point x="648.9836065573771" y="653.0" type="line"/>
      <point x="436.360655737705" y="653.0" type="line"/>
      <point x="502.8032786885246" y="807.2622950819673"/>
      <point x="615.2786885245902" y="909.7377049180328"/>
      <point x="751.3770491803278" y="909.7377049180328" type="curve" smooth="yes"/>
      <point x="789.0327868852459" y="909.7377049180328"/>
      <point x="823.8032786885246" y="903.967213114754"/>
      <point x="854.1639344262295" y="895.967213114754" type="curve"/>
      <point x="905.1147540983607" y="1114.622950819672" type="line"/>
      <point x="874.311475409836" y="1123.295081967213"/>
      <point x="832.1967213114754" y="1127.295081967213"/>
      <point x="796.295081967213" y="1127.295081967213" type="curve" smooth="yes"/>
      <point x="644.7213114754098" y="1127.295081967213"/>
      <point x="543.8688524590164" y="1027.9180327868853"/>
      <point x="456.09836065573774" y="902.0819672131147" type="curve"/>
      <point x="445.65573770491807" y="902.0819672131147" type="line"/>
      <point x="467.21311475409834" y="1106.8524590163936" type="line"/>
      <point x="283.4754098360656" y="1106.8524590163936" type="line"/>
      <point x="187.70491803278688" y="653.0" type="line"/>
      <point x="38.393442622950815" y="653.0" type="line"/>
      <point x="3.967213114754095" y="484.54098360655735" type="line"/>
      <point x="151.3934426229508" y="484.54098360655735" type="line"/>
    </contour>
  </outline>
</glyph>
<glyph name="uni024F" format="2">
  <advance width="1003.3606557377049"/>
  <unicode hex="024F"/>
  <anchor x="280.57377049180326" y="-492.0" name="bottom"/>
  <anchor x="581.3442622950819" y="1106.8524590163936" name="top"/>
  <outline>
    <contour>
      <point x="8.22950819672131" y="590.0" type="line"/>
      <point x="1007.9180327868852" y="590.0" type="line"/>
      <point x="1042.7868852459017" y="758.4590163934427" type="line"/>
      <point x="43.65573770491803" y="758.4590163934427" type="line"/>
    </contour>
    <component base="y"/>
  </outline>
</glyph>
<glyph name="uni0250" format="2">
  <advance width="1157.2131147540983"/>
  <unicode hex="0250"/>
  <anchor x="462.27868852459017" y="0.0" name="bottom"/>
  <anchor x="697.4918032786885" y="1106.8524590163936" name="top"/>
  <outline>
    <contour>
      <point x="489.57377049180326" y="-20.0" type="curve" smooth="yes"/>
      <point x="633.2131147540985" y="-20.0"/>
      <point x="766.8360655737705" y="18.0"/>
      <point x="877.9016393442623" y="74.42622950819673" type="curve"/>
      <point x="815.3770491803278" y="240.40983606557378" type="line"/>
      <point x="713.4098360655738" y="195.63934426229508"/>
      <point x="612.311475409836" y="160.40983606557378"/>
      <point x="507.7540983606557" y="160.40983606557378" type="curve" smooth="yes"/>
      <point x="407.29508196721315" y="160.40983606557378"/>
      <point x="341.03278688524597" y="198.98360655737704"/>
      <point x="341.03278688524597" y="296.27868852459017" type="curve" smooth="yes"/>
      <point x="341.03278688524597" y="317.1803278688525"/>
      <point x="344.1475409836066" y="345.08196721311475"/>
      <point x="349.7049180327869" y="371.655737704918" type="curve" smooth="yes"/>
      <point x="361.93442622950823" y="429.57377049180326" type="line"/>
      <point x="537.672131147541" y="435.57377049180326" type="line" smooth="yes"/>
      <point x="847.2131147540983" y="446.1311475409836"/>
      <point x="1100.639344262295" y="533.9180327868852"/>
      <point x="1100.639344262295" y="828.5245901639345" type="curve" smooth="yes"/>
      <point x="1100.639344262295" y="1018.1967213114755"/>
      <point x="972.72131147541" y="1126.1803278688524"/>
      <point x="797.8032786885246" y="1126.1803278688524" type="curve" smooth="yes"/>
      <point x="649.4098360655738" y="1126.1803278688524"/>
      <point x="543.1803278688525" y="1065.4262295081967"/>
      <point x="448.95081967213116" y="951.9508196721312" type="curve"/>
      <point x="439.95081967213116" y="951.9508196721312" type="line"/>
      <point x="433.75409836065575" y="1105.737704918033" type="line"/>
      <point x="269.8032786885246" y="1105.737704918033" type="line"/>
      <point x="117.91803278688525" y="382.5409836065574" type="line" smooth="yes"/>
      <point x="110.36065573770492" y="345.08196721311475"/>
      <point x="106.36065573770492" y="311.18032786885243"/>
      <point x="106.36065573770492" y="278.8360655737705" type="curve" smooth="yes"/>
      <point x="106.36065573770492" y="78.42622950819673"/>
      <point x="248.4918032786885" y="-20.0"/>
    </contour>
    <contour>
      <point x="395.360655737705" y="578.0327868852459" type="line"/>
      <point x="415.0327868852459" y="672.4918032786885" type="line" smooth="yes"/>
      <point x="452.95081967213116" y="854.9508196721312"/>
      <point x="570.2295081967212" y="946.2131147540983"/>
      <point x="712.8360655737705" y="946.2131147540983" type="curve" smooth="yes"/>
      <point x="801.2295081967213" y="946.2131147540983"/>
      <point x="866.8196721311476" y="899.9508196721312"/>
      <point x="866.8196721311476" y="814.344262295082" type="curve" smooth="yes"/>
      <point x="866.8196721311476" y="643.8688524590164"/>
      <point x="723.8360655737705" y="591.1475409836066"/>
      <point x="523.2950819672132" y="583.1475409836066" type="curve" smooth="yes"/>
    </contour>
  </outline>
</glyph>
<glyph name="uni0251" format="2">
  <advance width="1211.27868852459"/>
  <unicode hex="0251"/>
  <anchor x="475.62295081967216" y="0.0" name="bottom"/>
  <anchor x="710.8360655737705" y="1106.8524590163936" name="top"/>
  <anchor x="1263.344262295082" y="1106.8524590163936" name="topright"/>
  <outline>
    <contour>
      <point x="399.8688524590164" y="-20.0" type="curve" smooth="yes"/>
      <point x="545.8852459016393" y="-20.0"/>
      <point x="655.8196721311475" y="60.93442622950819"/>
      <point x="742.5081967213115" y="165.62295081967213" type="curve"/>
      <point x="749.3934426229508" y="165.62295081967213" type="line"/>
      <point x="763.1147540983607" y="38.147540983606554"/>
      <point x="838.2950819672132" y="-20.0"/>
      <point x="959.950819672131" y="-20.0" type="curve" smooth="yes"/>
      <point x="1019.7868852459017" y="-20.0"/>
      <point x="1077.1147540983607" y="-5.114754098360655"/>
      <point x="1103.0983606557377" y="7.77049180327869" type="curve"/>
      <point x="1103.0983606557377" y="186.13114754098365" type="line"/>
      <point x="1083.311475409836" y="179.01639344262298"/>
      <point x="1056.983606557377" y="174.13114754098365"/>
      <point x="1037.655737704918" y="174.13114754098365" type="curve" smooth="yes"/>
      <point x="999.5409836065575" y="174.13114754098365"/>
      <point x="974.9836065573771" y="198.0327868852459"/>
      <point x="974.9836065573771" y="244.14754098360655" type="curve" smooth="yes"/>
      <point x="974.9836065573771" y="264.6065573770492"/>
      <point x="979.2131147540985" y="293.8688524590164"/>
      <point x="985.4426229508198" y="326.688524590164" type="curve" smooth="yes"/>
      <point x="1150.7868852459017" y="1106.8524590163936" type="line"/>
      <point x="971.7377049180328" y="1106.8524590163936" type="line"/>
      <point x="910.2786885245902" y="948.8032786885246" type="line"/>
      <point x="900.6065573770492" y="948.8032786885246" type="line"/>
      <point x="853.8360655737705" y="1047.9180327868853"/>
      <point x="766.7213114754098" y="1127.2950819672133"/>
      <point x="624.1639344262295" y="1127.2950819672133" type="curve" smooth="yes"/>
      <point x="309.1639344262295" y="1127.2950819672133"/>
      <point x="94.45901639344262" y="757.8032786885245"/>
      <point x="94.45901639344262" y="367.7213114754099" type="curve" smooth="yes"/>
      <point x="94.45901639344262" y="100.59016393442623"/>
      <point x="230.0655737704918" y="-20.0"/>
    </contour>
    <contour>
      <point x="485.5409836065574" y="170.60655737704917" type="curve" smooth="yes"/>
      <point x="388.49180327868856" y="170.60655737704917"/>
      <point x="332.5737704918033" y="238.40983606557376"/>
      <point x="332.5737704918033" y="371.688524590164" type="curve" smooth="yes"/>
      <point x="332.5737704918033" y="656.7377049180327"/>
      <point x="472.9836065573771" y="935.1311475409835"/>
      <point x="656.7704918032787" y="935.1311475409835" type="curve" smooth="yes"/>
      <point x="762.2786885245902" y="935.1311475409835"/>
      <point x="828.5409836065573" y="853.983606557377"/>
      <point x="828.5409836065573" y="740.4754098360656" type="curve" smooth="yes"/>
      <point x="828.5409836065573" y="680.2622950819673"/>
      <point x="823.4262295081967" y="619.9016393442622"/>
      <point x="806.8524590163935" y="552.967213114754" type="curve" smooth="yes"/>
      <point x="758.6885245901639" y="344.4098360655738"/>
      <point x="623.032786885246" y="170.60655737704917"/>
    </contour>
  </outline>
</glyph>
<glyph name="uni0254" format="2">
  <advance width="955.0"/>
  <unicode hex="0254"/>
  <anchor x="360.8360655737705" y="0.0" name="bottom"/>
  <anchor x="596.1639344262295" y="1106.8524590163936" name="top"/>
  <outline>
    <contour>
      <point x="279.6885245901639" y="-20.0" type="curve" smooth="yes"/>
      <point x="643.6393442622951" y="-20.0"/>
      <point x="861.0983606557377" y="319.8688524590164"/>
      <point x="861.0983606557377" y="716.9672131147541" type="curve" smooth="yes"/>
      <point x="861.0983606557377" y="1000.2622950819672"/>
      <point x="688.8032786885245" y="1127.2950819672133"/>
      <point x="450.11475409836066" y="1127.2950819672133" type="curve" smooth="yes"/>
      <point x="325.60655737704917" y="1127.2950819672133"/>
      <point x="228.0655737704918" y="1099.081967213115"/>
      <point x="143.65573770491804" y="1055.655737704918" type="curve"/>
      <point x="143.65573770491804" y="862.0491803278688" type="line"/>
      <point x="231.6393442622951" y="903.4754098360655"/>
      <point x="314.75409836065575" y="936.2459016393442"/>
      <point x="413.08196721311475" y="936.2459016393442" type="curve" smooth="yes"/>
      <point x="545.0491803278688" y="936.2459016393442"/>
      <point x="623.5409836065573" y="852.967213114754"/>
      <point x="623.5409836065573" y="704.7868852459017" type="curve" smooth="yes"/>
      <point x="623.5409836065573" y="426.8688524590164"/>
      <point x="487.22950819672127" y="171.72131147540983"/>
      <point x="273.2622950819672" y="171.72131147540983" type="curve" smooth="yes"/>
      <point x="185.2622950819672" y="171.72131147540983"/>
      <point x="114.57377049180327" y="198.72131147540983"/>
      <point x="52.49180327868853" y="225.81967213114754" type="curve"/>
      <point x="-16.65573770491804" y="40.9672131147541" type="line"/>
      <point x="66.98360655737706" y="2.6557377049180335"/>
      <point x="167.31147540983608" y="-20.0"/>
    </contour>
  </outline>
</glyph>
<glyph name="uni0255" format="2">
  <advance width="1002.2622950819673"/>
  <unicode hex="0255"/>
  <anchor x="384.08196721311475" y="0.0" name="bottom"/>
  <anchor x="619.2950819672132" y="1106.8524590163936" name="top"/>
  <outline>
    <contour>
      <point x="104.60655737704919" y="-103.98360655737706" type="line"/>
      <point x="141.37704918032787" y="-36.540983606557376"/>
      <point x="176.62295081967213" y="20.39344262295082"/>
      <point x="215.39344262295083" y="74.04918032786885" type="curve"/>
      <point x="284.40983606557376" y="10.45901639344262"/>
      <point x="388.9672131147541" y="-20.0"/>
      <point x="516.6065573770492" y="-20.0" type="curve" smooth="yes"/>
      <point x="728.7704918032788" y="-20.0"/>
      <point x="919.0655737704918" y="77.11475409836065"/>
      <point x="919.0655737704918" y="300.55737704918033" type="curve" smooth="yes"/>
      <point x="919.0655737704918" y="435.75409836065575"/>
      <point x="830.4262295081968" y="549.2131147540983"/>
      <point x="651.6393442622951" y="549.2131147540983" type="curve" smooth="yes"/>
      <point x="524.4098360655738" y="549.2131147540983"/>
      <point x="423.72131147540983" y="500.63934426229514"/>
      <point x="328.8032786885246" y="416.1475409836065" type="curve"/>
      <point x="329.688524590164" y="435.7049180327869"/>
      <point x="330.5737704918033" y="456.4918032786885"/>
      <point x="331.45901639344265" y="475.60655737704917" type="curve" smooth="yes"/>
      <point x="345.1803278688525" y="713.0655737704918"/>
      <point x="484.7049180327869" y="935.1311475409835"/>
      <point x="682.8524590163935" y="935.1311475409835" type="curve" smooth="yes"/>
      <point x="770.8524590163935" y="935.1311475409835"/>
      <point x="841.5409836065575" y="908.1311475409835"/>
      <point x="904.0655737704918" y="880.9180327868853" type="curve"/>
      <point x="973.2131147540983" y="1065.8852459016393" type="line"/>
      <point x="889.016393442623" y="1104.1967213114754"/>
      <point x="788.8032786885246" y="1127.2950819672133"/>
      <point x="676.4262295081967" y="1127.2950819672133" type="curve" smooth="yes"/>
      <point x="311.91803278688525" y="1127.2950819672133"/>
      <point x="94.45901639344262" y="786.8688524590164"/>
      <point x="94.45901639344262" y="389.8852459016394" type="curve" smooth="yes"/>
      <point x="94.45901639344262" y="312.8032786885246"/>
      <point x="108.78688524590163" y="241.36065573770492"/>
      <point x="131.88524590163937" y="193.04918032786884" type="curve"/>
      <point x="80.88524590163934" y="123.49180327868852"/>
      <point x="31.19672131147541" y="45.459016393442624"/>
      <point x="-13.803278688524593" y="-35.22950819672131" type="curve"/>
    </contour>
    <contour>
      <point x="544.0983606557377" y="161.75409836065575" type="curve" smooth="yes"/>
      <point x="452.75409836065575" y="161.75409836065575"/>
      <point x="390.5245901639344" y="200.327868852459"/>
      <point x="361.18032786885243" y="257.32786885245906" type="curve"/>
      <point x="433.4590163934426" y="332.8524590163934"/>
      <point x="530.1475409836065" y="385.1639344262295"/>
      <point x="623.2295081967213" y="385.1639344262295" type="curve" smooth="yes"/>
      <point x="698.5737704918033" y="385.1639344262295"/>
      <point x="739.1475409836065" y="347.26229508196724"/>
      <point x="739.1475409836065" y="289.672131147541" type="curve" smooth="yes"/>
      <point x="739.1475409836065" y="213.14754098360658"/>
      <point x="657.639344262295" y="161.75409836065575"/>
    </contour>
  </outline>
</glyph>
<glyph name="uni0258" format="2">
  <advance width="1048.72131147541"/>
  <unicode hex="0258"/>
  <anchor x="406.91803278688525" y="0.0" name="bottom"/>
  <anchor x="642.688524590164" y="1106.8524590163936" name="top"/>
  <outline>
    <contour>
      <point x="373.03278688524597" y="-20.0" type="curve" smooth="yes"/>
      <point x="767.0983606557377" y="-20.0"/>
      <point x="953.7049180327868" y="322.983606557377"/>
      <point x="953.7049180327868" y="683.5409836065575" type="curve" smooth="yes"/>
      <point x="953.7049180327868" y="932.6229508196722"/>
      <point x="822.295081967213" y="1127.295081967213"/>
      <point x="547.4426229508197" y="1127.295081967213" type="curve" smooth="yes"/>
      <point x="305.1475409836066" y="1127.295081967213"/>
      <point x="145.1639344262295" y="1000.4918032786885"/>
      <point x="145.1639344262295" y="789.4754098360656" type="curve" smooth="yes"/>
      <point x="145.1639344262295" y="605.3770491803278"/>
      <point x="286.311475409836" y="461.2786885245901"/>
      <point x="641.8688524590164" y="461.2786885245901" type="curve" smooth="yes"/>
      <point x="686.0655737704918" y="461.2786885245901" type="line"/>
      <point x="639.4918032786885" y="280.6393442622951"/>
      <point x="539.9344262295082" y="161.29508196721315"/>
      <point x="339.9672131147541" y="161.29508196721315" type="curve" smooth="yes"/>
      <point x="214.7377049180328" y="161.29508196721315"/>
      <point x="128.9672131147541" y="192.52459016393442"/>
      <point x="28.77049180327869" y="243.29508196721312" type="curve"/>
      <point x="28.77049180327869" y="57.65573770491804" type="line"/>
      <point x="120.08196721311478" y="9.770491803278688"/>
      <point x="208.14754098360658" y="-20.0"/>
    </contour>
    <contour>
      <point x="717.0327868852459" y="632.5081967213115" type="curve"/>
      <point x="656.2459016393442" y="632.5081967213115" type="line" smooth="yes"/>
      <point x="466.9344262295082" y="632.5081967213115"/>
      <point x="368.5245901639344" y="686.6065573770492"/>
      <point x="368.5245901639344" y="798.8032786885245" type="curve" smooth="yes"/>
      <point x="368.5245901639344" y="887.0491803278688"/>
      <point x="424.21311475409834" y="948.1967213114754"/>
      <point x="529.4918032786885" y="948.1967213114754" type="curve" smooth="yes"/>
      <point x="641.622950819672" y="948.1967213114754"/>
      <point x="720.1475409836065" y="851.8524590163935"/>
      <point x="720.1475409836065" y="691.1147540983607" type="curve" smooth="yes"/>
      <point x="720.1475409836065" y="673.7704918032787"/>
      <point x="719.0327868852459" y="651.4098360655738"/>
    </contour>
  </outline>
</glyph>
<glyph name="uni025E" format="2">
  <advance width="1174.6065573770493"/>
  <unicode hex="025E"/>
  <anchor x="470.91803278688525" y="0.0" name="bottom"/>
  <anchor x="705.688524590164" y="1106.8524590163936" name="top"/>
  <outline>
    <contour>
      <point x="552.7049180327868" y="-18.885245901639344" type="curve" smooth="yes"/>
      <point x="832.1967213114755" y="-18.885245901639344"/>
      <point x="1051.6065573770493" y="97.34426229508196"/>
      <point x="1051.6065573770493" y="344.0" type="curve" smooth="yes"/>
      <point x="1051.6065573770493" y="467.0"/>
      <point x="978.4918032786885" y="540.1147540983607"/>
      <point x="860.1803278688524" y="567.4590163934427" type="curve"/>
      <point x="861.0655737704917" y="574.1147540983607" type="line"/>
      <point x="1025.0655737704917" y="602.688524590164"/>
      <point x="1114.6065573770493" y="691.2786885245902"/>
      <point x="1114.6065573770493" y="842.4590163934427" type="curve" smooth="yes"/>
      <point x="1114.6065573770493" y="1016.4262295081967"/>
      <point x="965.0" y="1127.2950819672133"/>
      <point x="729.622950819672" y="1127.2950819672133" type="curve" smooth="yes"/>
      <point x="326.65573770491807" y="1127.2950819672133"/>
      <point x="94.45901639344262" y="832.2622950819672"/>
      <point x="94.45901639344262" y="421.08196721311475" type="curve" smooth="yes"/>
      <point x="94.45901639344262" y="142.93442622950818"/>
      <point x="257.0327868852459" y="-18.885245901639344"/>
    </contour>
    <contour>
      <point x="565.5737704918032" y="165.52459016393445" type="curve" smooth="yes"/>
      <point x="414.672131147541" y="165.52459016393445"/>
      <point x="329.45901639344265" y="242.91803278688525"/>
      <point x="329.45901639344265" y="418.1967213114754" type="curve" smooth="yes"/>
      <point x="329.45901639344265" y="693.967213114754"/>
      <point x="449.4098360655738" y="943.0983606557377"/>
      <point x="720.9672131147541" y="943.0983606557377" type="curve" smooth="yes"/>
      <point x="828.9344262295083" y="943.0983606557377"/>
      <point x="887.2786885245902" y="894.8524590163935"/>
      <point x="887.2786885245902" y="818.1475409836066" type="curve" smooth="yes"/>
      <point x="887.2786885245902" y="703.7213114754098"/>
      <point x="786.1803278688525" y="659.6065573770493"/>
      <point x="621.9180327868852" y="659.6065573770493" type="curve" smooth="yes"/>
      <point x="568.8852459016393" y="659.6065573770493" type="line"/>
      <point x="531.688524590164" y="484.27868852459017" type="line"/>
      <point x="599.3114754098361" y="484.27868852459017" type="line" smooth="yes"/>
      <point x="738.7377049180327" y="484.27868852459017"/>
      <point x="821.6229508196722" y="447.7049180327869"/>
      <point x="821.6229508196722" y="346.1967213114754" type="curve" smooth="yes"/>
      <point x="821.6229508196722" y="223.11475409836066"/>
      <point x="703.983606557377" y="165.52459016393445"/>
    </contour>
  </outline>
</glyph>
<glyph name="uni0265" format="2">
  <advance width="1208.5737704918033"/>
  <unicode hex="0265"/>
  <anchor x="382.73770491803276" y="-492.0" name="bottom"/>
  <anchor x="722.5081967213115" y="1106.8524590163936" name="top"/>
  <outline>
    <contour>
      <point x="586.5409836065573" y="-492.0" type="line"/>
      <point x="818.9836065573771" y="-492.0" type="line"/>
      <point x="1159.639344262295" y="1106.8524590163936" type="line"/>
      <point x="927.1967213114755" y="1106.8524590163936" type="line"/>
      <point x="828.0819672131148" y="638.2786885245902" type="line" smooth="yes"/>
      <point x="762.032786885246" y="332.16393442622956"/>
      <point x="612.0819672131147" y="170.60655737704917"/>
      <point x="473.40983606557376" y="170.60655737704917" type="curve" smooth="yes"/>
      <point x="384.6885245901639" y="170.60655737704917"/>
      <point x="345.9016393442623" y="217.4098360655738"/>
      <point x="345.9016393442623" y="303.6393442622951" type="curve" smooth="yes"/>
      <point x="345.9016393442623" y="337.75409836065575"/>
      <point x="351.9016393442623" y="379.8688524590164"/>
      <point x="363.0163934426229" y="433.22950819672127" type="curve" smooth="yes"/>
      <point x="506.1475409836066" y="1106.8524590163936" type="line"/>
      <point x="271.4754098360656" y="1106.8524590163936" type="line"/>
      <point x="135.0" y="466.0655737704918" type="line" smooth="yes"/>
      <point x="121.22950819672131" y="396.655737704918"/>
      <point x="112.11475409836066" y="329.37704918032784"/>
      <point x="112.11475409836066" y="273.6885245901639" type="curve" smooth="yes"/>
      <point x="112.11475409836066" y="87.27868852459017"/>
      <point x="213.0327868852459" y="-20.0"/>
      <point x="390.5409836065574" y="-20.0" type="curve" smooth="yes"/>
      <point x="547.7377049180327" y="-20.0"/>
      <point x="655.655737704918" y="77.65573770491801"/>
      <point x="735.4262295081967" y="179.54098360655735" type="curve"/>
      <point x="744.5409836065573" y="179.54098360655735" type="line"/>
      <point x="722.5573770491803" y="102.24590163934425"/>
      <point x="686.2459016393442" y="-21.245901639344275"/>
      <point x="674.4754098360655" y="-82.09836065573772" type="curve" smooth="yes"/>
    </contour>
  </outline>
</glyph>
<glyph name="uni0267" format="2">
  <advance width="1208.5737704918033"/>
  <unicode hex="0267"/>
  <anchor x="382.73770491803276" y="-492.0" name="bottom"/>
  <anchor x="821.1803278688525" y="1568.7704918032787" name="top"/>
  <outline>
    <contour>
      <point x="541.4262295081967" y="-492.0" type="curve" smooth="yes"/>
      <point x="766.672131147541" y="-492.0"/>
      <point x="863.5245901639345" y="-347.8360655737705"/>
      <point x="907.4098360655738" y="-140.9672131147541" type="curve" smooth="yes"/>
      <point x="1076.0000000000002" y="654.2786885245902" type="line" smooth="yes"/>
      <point x="1088.8852459016393" y="718.3770491803278"/>
      <point x="1098.4426229508197" y="775.8032786885245"/>
      <point x="1098.4426229508197" y="827.5901639344262" type="curve" smooth="yes"/>
      <point x="1098.4426229508197" y="1018.4590163934427"/>
      <point x="996.4262295081967" y="1126.1803278688526"/>
      <point x="816.688524590164" y="1126.1803278688526" type="curve" smooth="yes"/>
      <point x="659.1639344262295" y="1126.1803278688526"/>
      <point x="555.7868852459017" y="1028.639344262295"/>
      <point x="476.016393442623" y="926.6393442622951" type="curve"/>
      <point x="466.45901639344265" y="926.6393442622951" type="line"/>
      <point x="485.13114754098365" y="987.5737704918033"/>
      <point x="502.80327868852464" y="1057.032786885246"/>
      <point x="518.360655737705" y="1126.606557377049" type="curve" smooth="yes"/>
      <point x="548.0655737704918" y="1257.4590163934427" type="line" smooth="yes"/>
      <point x="565.1803278688525" y="1337.7049180327867"/>
      <point x="607.7213114754098" y="1373.8196721311474"/>
      <point x="664.6065573770493" y="1373.8196721311474" type="curve" smooth="yes"/>
      <point x="708.4918032786886" y="1373.8196721311474"/>
      <point x="747.7213114754098" y="1362.9344262295083"/>
      <point x="768.8360655737706" y="1353.8196721311474" type="curve"/>
      <point x="768.8360655737705" y="1540.0" type="line"/>
      <point x="745.950819672131" y="1552.0"/>
      <point x="692.4098360655738" y="1568.7704918032787"/>
      <point x="634.7868852459017" y="1568.7704918032787" type="curve" smooth="yes"/>
      <point x="445.5245901639344" y="1568.7704918032787"/>
      <point x="356.8196721311475" y="1458.9180327868853"/>
      <point x="313.39344262295083" y="1251.8852459016393" type="curve" smooth="yes"/>
      <point x="48.147540983606554" y="0.0" type="line"/>
      <point x="282.26229508196724" y="0.0" type="line"/>
      <point x="381.3770491803279" y="468.57377049180326" type="line" smooth="yes"/>
      <point x="446.311475409836" y="774.688524590164"/>
      <point x="595.1475409836065" y="935.1311475409835"/>
      <point x="734.3770491803278" y="935.1311475409835" type="curve" smooth="yes"/>
      <point x="822.5409836065573" y="935.1311475409835"/>
      <point x="862.4426229508197" y="887.7704918032787"/>
      <point x="862.4426229508197" y="800.4262295081968" type="curve" smooth="yes"/>
      <point x="862.4426229508197" y="767.983606557377"/>
      <point x="856.4426229508197" y="726.983606557377"/>
      <point x="844.7704918032787" y="672.5081967213115" type="curve" smooth="yes"/>
      <point x="678.5081967213115" y="-111.11475409836063" type="line" smooth="yes"/>
      <point x="652.2786885245902" y="-239.03278688524588"/>
      <point x="591.8524590163935" y="-299.5081967213115"/>
      <point x="509.8524590163935" y="-299.5081967213115" type="curve" smooth="yes"/>
      <point x="467.9508196721311" y="-299.5081967213115"/>
      <point x="432.72131147540983" y="-291.27868852459017"/>
      <point x="393.6229508196721" y="-277.39344262295083" type="curve"/>
      <point x="393.6229508196721" y="-469.2295081967213" type="line"/>
      <point x="430.72131147540983" y="-482.11475409836066"/>
      <point x="485.2295081967213" y="-492.0"/>
    </contour>
  </outline>
</glyph>
<glyph name="uni0273" format="2">
  <advance width="1208.5737704918033"/>
  <unicode hex="0273"/>
  <anchor x="382.7377049180328" y="-492.0" name="bottom"/>
  <anchor x="722.5081967213115" y="1106.8524590163936" name="top"/>
  <anchor x="1285.4590163934427" y="1106.8524590163936" name="topright"/>
  <outline>
    <contour>
      <point x="922.7213114754098" y="-492.0" type="curve" smooth="yes"/>
      <point x="988.4918032786885" y="-492.0"/>
      <point x="1055.4590163934427" y="-477.88524590163934"/>
      <point x="1092.655737704918" y="-459.88524590163934" type="curve"/>
      <point x="1092.655737704918" y="-280.8360655737705" type="line"/>
      <point x="1064.7868852459017" y="-292.1639344262295"/>
      <point x="1029.327868852459" y="-301.5081967213115"/>
      <point x="983.639344262295" y="-301.5081967213115" type="curve" smooth="yes"/>
      <point x="931.7540983606557" y="-301.5081967213115"/>
      <point x="897.1803278688525" y="-277.1639344262295"/>
      <point x="897.1803278688525" y="-215.01639344262293" type="curve" smooth="yes"/>
      <point x="897.1803278688525" y="-191.77049180327867"/>
      <point x="902.2950819672132" y="-159.4262295081967"/>
      <point x="910.2950819672132" y="-123.31147540983605" type="curve" smooth="yes"/>
      <point x="1076.0000000000002" y="654.2786885245902" type="line" smooth="yes"/>
      <point x="1087.7704918032787" y="711.688524590164"/>
      <point x="1098.4426229508197" y="776.9180327868852"/>
      <point x="1098.4426229508197" y="834.2786885245902" type="curve" smooth="yes"/>
      <point x="1098.4426229508197" y="1019.5737704918033"/>
      <point x="995.3114754098361" y="1127.2950819672133"/>
      <point x="816.688524590164" y="1127.2950819672133" type="curve" smooth="yes"/>
      <point x="648.983606557377" y="1127.2950819672133"/>
      <point x="536.7540983606558" y="1016.688524590164"/>
      <point x="455.2131147540984" y="902.0819672131147" type="curve"/>
      <point x="445.65573770491807" y="902.0819672131147" type="line"/>
      <point x="467.21311475409834" y="1106.8524590163936" type="line"/>
      <point x="283.4754098360656" y="1106.8524590163936" type="line"/>
      <point x="48.147540983606554" y="0.0" type="line"/>
      <point x="282.26229508196724" y="0.0" type="line"/>
      <point x="381.3770491803279" y="468.57377049180326" type="line" smooth="yes"/>
      <point x="446.311475409836" y="774.688524590164"/>
      <point x="596.2622950819673" y="935.1311475409835"/>
      <point x="734.3770491803278" y="935.1311475409835" type="curve" smooth="yes"/>
      <point x="822.5409836065573" y="935.1311475409835"/>
      <point x="863.5573770491802" y="887.7704918032787"/>
      <point x="863.5573770491802" y="803.7704918032787" type="curve" smooth="yes"/>
      <point x="863.5573770491802" y="767.983606557377"/>
      <point x="856.4426229508197" y="726.983606557377"/>
      <point x="844.7704918032787" y="672.5081967213115" type="curve" smooth="yes"/>
      <point x="677.6229508196722" y="-114.65573770491802" type="line" smooth="yes"/>
      <point x="665.8524590163935" y="-168.73770491803276"/>
      <point x="661.8524590163935" y="-213.26229508196718"/>
      <point x="661.8524590163935" y="-251.3934426229508" type="curve" smooth="yes"/>
      <point x="661.8524590163935" y="-419.1639344262295"/>
      <point x="764.7213114754098" y="-492.0"/>
    </contour>
  </outline>
</glyph>
<glyph name="uni0276" format="2">
  <advance width="1675.606557377049"/>
  <unicode hex="0276"/>
  <anchor x="721.1967213114755" y="0.0" name="bottom"/>
  <anchor x="956.4098360655737" y="1106.8524590163936" name="top"/>
  <outline>
    <contour>
      <point x="510.655737704918" y="-16.0" type="curve" smooth="yes"/>
      <point x="588.5081967213115" y="-16.0"/>
      <point x="667.2295081967213" y="14.163934426229503"/>
      <point x="731.2786885245902" y="63.47540983606556" type="curve"/>
      <point x="718.360655737705" y="0.0" type="line"/>
      <point x="1436.9508196721313" y="0.0" type="line"/>
      <point x="1475.9180327868853" y="186.7377049180328" type="line"/>
      <point x="983.6393442622951" y="186.7377049180328" type="line"/>
      <point x="1046.5737704918033" y="482.50819672131144" type="line"/>
      <point x="1508.295081967213" y="482.50819672131144" type="line"/>
      <point x="1547.4918032786884" y="666.9180327868853" type="line"/>
      <point x="1085.7704918032787" y="666.9180327868853" type="line"/>
      <point x="1139.918032786885" y="921.8852459016393" type="line"/>
      <point x="1632.1967213114754" y="921.8852459016393" type="line"/>
      <point x="1671.606557377049" y="1106.8524590163936" type="line"/>
      <point x="952.0163934426229" y="1106.8524590163936" type="line"/>
      <point x="929.4262295081967" y="1002.4754098360656" type="line"/>
      <point x="869.0819672131148" y="1079.344262295082"/>
      <point x="781.0491803278688" y="1123.9508196721313"/>
      <point x="660.7213114754098" y="1123.9508196721313" type="curve" smooth="yes"/>
      <point x="285.88524590163934" y="1123.9508196721313"/>
      <point x="94.45901639344262" y="769.3278688524591"/>
      <point x="94.45901639344262" y="407.77049180327873" type="curve" smooth="yes"/>
      <point x="94.45901639344262" y="145.88524590163937"/>
      <point x="254.88524590163934" y="-16.0"/>
    </contour>
    <contour>
      <point x="529.0655737704918" y="175.49180327868854" type="curve" smooth="yes"/>
      <point x="400.1967213114754" y="175.49180327868854"/>
      <point x="330.5737704918033" y="257.32786885245906"/>
      <point x="330.5737704918033" y="403.86885245901635" type="curve" smooth="yes"/>
      <point x="330.5737704918033" y="663.8360655737705"/>
      <point x="447.2295081967213" y="932.016393442623"/>
      <point x="654.7540983606558" y="932.016393442623" type="curve" smooth="yes"/>
      <point x="793.0819672131147" y="932.016393442623"/>
      <point x="842.344262295082" y="822.9344262295082"/>
      <point x="842.344262295082" y="699.344262295082" type="curve" smooth="yes"/>
      <point x="842.344262295082" y="404.8360655737705"/>
      <point x="716.8032786885246" y="175.49180327868854"/>
    </contour>
  </outline>
</glyph>
<glyph name="uni027A" format="2">
  <advance width="853.0819672131148"/>
  <unicode hex="027A"/>
  <anchor x="309.65573770491807" y="0.0" name="bottom"/>
  <anchor x="640.7704918032787" y="1556.0" name="top"/>
  <outline>
    <contour>
      <point x="39.72131147540984" y="-20.000000000000004" type="curve" smooth="yes"/>
      <point x="190.85245901639342" y="-20.000000000000004"/>
      <point x="292.1475409836065" y="79.37704918032787"/>
      <point x="379.91803278688525" y="204.77049180327867" type="curve"/>
      <point x="389.91803278688525" y="204.77049180327867" type="line"/>
      <point x="368.3606557377049" y="0.0" type="line"/>
      <point x="552.0983606557377" y="0.0" type="line"/>
      <point x="883.2131147540983" y="1556.0" type="line"/>
      <point x="650.5409836065575" y="1556.0" type="line"/>
      <point x="447.3114754098361" y="605.7377049180328" type="line" smooth="yes"/>
      <point x="400.54098360655735" y="380.7704918032787"/>
      <point x="264.8524590163934" y="196.55737704918033"/>
      <point x="84.1967213114754" y="196.55737704918033" type="curve" smooth="yes"/>
      <point x="46.54098360655738" y="196.55737704918033"/>
      <point x="11.770491803278688" y="202.32786885245903"/>
      <point x="-18.590163934426226" y="211.32786885245903" type="curve"/>
      <point x="-69.54098360655738" y="-7.77049180327869" type="line"/>
      <point x="-38.73770491803279" y="-16.0"/>
      <point x="3.3770491803278677" y="-20.000000000000004"/>
    </contour>
  </outline>
</glyph>
<glyph name="uni0284" format="2">
  <advance width="564.5245901639345"/>
  <unicode hex="0284"/>
  <anchor x="61.37704918032787" y="-492.0" name="bottom"/>
  <anchor x="499.3770491803279" y="1568.7704918032787" name="top"/>
  <outline>
    <contour>
      <point x="-98.01639344262293" y="-492.0" type="curve" smooth="yes"/>
      <point x="96.11475409836066" y="-492.0"/>
      <point x="205.8360655737705" y="-370.60655737704917"/>
      <point x="256.3770491803279" y="-127.2295081967213" type="curve" smooth="yes"/>
      <point x="386.72131147540983" y="496.04918032786884" type="line"/>
      <point x="537.1475409836066" y="496.04918032786884" type="line"/>
      <point x="575.5573770491803" y="678.672131147541" type="line"/>
      <point x="425.688524590164" y="678.672131147541" type="line"/>
      <point x="535.4754098360656" y="1194.622950819672" type="line" smooth="yes"/>
      <point x="561.8360655737705" y="1317.0819672131147"/>
      <point x="612.9672131147541" y="1377.1639344262296"/>
      <point x="692.5737704918032" y="1377.1639344262296" type="curve" smooth="yes"/>
      <point x="735.5737704918033" y="1377.1639344262296"/>
      <point x="771.4590163934427" y="1366.27868852459"/>
      <point x="799.2622950819672" y="1356.049180327869" type="curve"/>
      <point x="799.2622950819672" y="1542.2295081967213" type="line"/>
      <point x="770.8032786885245" y="1554.2295081967213"/>
      <point x="717.2622950819672" y="1568.7704918032787"/>
      <point x="656.5245901639345" y="1568.7704918032787" type="curve" smooth="yes"/>
      <point x="446.8688524590164" y="1568.7704918032787"/>
      <point x="351.8032786885246" y="1430.5245901639344"/>
      <point x="304.8032786885246" y="1213.295081967213" type="curve" smooth="yes"/>
      <point x="191.01639344262296" y="678.672131147541" type="line"/>
      <point x="46.147540983606554" y="678.672131147541" type="line"/>
      <point x="7.737704918032776" y="496.04918032786884" type="line"/>
      <point x="152.9344262295082" y="496.04918032786884" type="line"/>
      <point x="22.819672131147534" y="-116.08196721311474" type="line" smooth="yes"/>
      <point x="-2.6557377049180335" y="-238.11475409836066"/>
      <point x="-58.34426229508197" y="-300.39344262295083"/>
      <point x="-133.4918032786885" y="-300.39344262295083" type="curve" smooth="yes"/>
      <point x="-177.37704918032784" y="-300.39344262295083"/>
      <point x="-215.0327868852459" y="-289.5081967213115"/>
      <point x="-241.62295081967213" y="-279.1639344262295" type="curve"/>
      <point x="-241.62295081967213" y="-467.4590163934426" type="line"/>
      <point x="-205.08196721311475" y="-481.22950819672127"/>
      <point x="-153.88524590163934" y="-492.0"/>
    </contour>
  </outline>
</glyph>
<glyph name="uni0289" format="2">
  <advance width="1208.5737704918033"/>
  <unicode hex="0289"/>
  <anchor x="469.6229508196721" y="0.0" name="bottom"/>
  <anchor x="722.5081967213115" y="1106.8524590163936" name="top"/>
  <outline>
    <contour>
      <point x="6.262295081967212" y="514.4590163934427" type="line"/>
      <point x="1177.7704918032787" y="514.4590163934427" type="line"/>
      <point x="1214.0819672131147" y="683.9180327868853" type="line"/>
      <point x="42.57377049180327" y="683.9180327868853" type="line"/>
    </contour>
    <component base="u" xOffset="-8.881784197001252e-16"/>
  </outline>
</glyph>
<glyph name="uni028B" format="2">
  <advance width="1274.1475409836066"/>
  <unicode hex="028B"/>
  <anchor x="519.688524590164" y="0.0" name="bottom"/>
  <anchor x="754.4590163934427" y="1106.8524590163936" name="top"/>
  <outline>
    <contour>
      <point x="545.672131147541" y="-20.0" type="curve" smooth="yes"/>
      <point x="880.9344262295083" y="-20.0"/>
      <point x="1039.2131147540983" y="169.0327868852459"/>
      <point x="1104.1147540983607" y="479.42622950819674" type="curve" smooth="yes"/>
      <point x="1164.9016393442623" y="769.3770491803278" type="line" smooth="yes"/>
      <point x="1172.016393442623" y="805.4918032786885"/>
      <point x="1174.9016393442623" y="837.8196721311476"/>
      <point x="1174.9016393442623" y="869.7049180327868" type="curve" smooth="yes"/>
      <point x="1174.9016393442623" y="1028.0655737704917"/>
      <point x="1081.0655737704917" y="1127.2950819672133"/>
      <point x="906.7213114754098" y="1127.2950819672133" type="curve" smooth="yes"/>
      <point x="856.4426229508197" y="1127.2950819672133"/>
      <point x="788.8032786885246" y="1117.081967213115"/>
      <point x="738.2950819672132" y="1101.5409836065573" type="curve"/>
      <point x="738.2950819672132" y="914.344262295082" type="line"/>
      <point x="775.9672131147541" y="926.344262295082"/>
      <point x="810.5409836065573" y="932.9016393442623"/>
      <point x="847.311475409836" y="932.9016393442623" type="curve" smooth="yes"/>
      <point x="904.1147540983607" y="932.9016393442623"/>
      <point x="938.4590163934427" y="897.672131147541"/>
      <point x="938.4590163934427" y="832.0819672131147" type="curve" smooth="yes"/>
      <point x="938.4590163934427" y="813.9508196721312"/>
      <point x="935.3442622950819" y="795.7049180327868"/>
      <point x="931.1147540983607" y="772.2295081967213" type="curve" smooth="yes"/>
      <point x="869.7704918032787" y="489.40983606557376" type="line" smooth="yes"/>
      <point x="824.5245901639345" y="275.1967213114754"/>
      <point x="730.4918032786885" y="170.3770491803279"/>
      <point x="567.3114754098361" y="170.3770491803279" type="curve" smooth="yes"/>
      <point x="422.80327868852464" y="170.3770491803279"/>
      <point x="361.016393442623" y="244.21311475409837"/>
      <point x="361.016393442623" y="373.2622950819672" type="curve" smooth="yes"/>
      <point x="361.016393442623" y="409.8360655737705"/>
      <point x="366.13114754098365" y="451.5245901639344"/>
      <point x="375.8032786885246" y="497.77049180327873" type="curve" smooth="yes"/>
      <point x="503.6885245901639" y="1106.8524590163936" type="line"/>
      <point x="269.57377049180326" y="1106.8524590163936" type="line"/>
      <point x="141.68852459016392" y="496.5245901639344" type="line" smooth="yes"/>
      <point x="131.68852459016392" y="446.18032786885243"/>
      <point x="125.68852459016394" y="399.1803278688525"/>
      <point x="125.68852459016394" y="353.0655737704918" type="curve" smooth="yes"/>
      <point x="125.68852459016394" y="131.62295081967213"/>
      <point x="255.11475409836063" y="-20.0"/>
    </contour>
  </outline>
</glyph>
<glyph name="ezhcurl" format="2">
  <advance width="1025.2459016393443"/>
  <unicode hex="0293"/>
  <anchor x="288.5245901639344" y="-503.5081967213115" name="bottom"/>
  <anchor x="630.9508196721312" y="1106.8524590163936" name="top"/>
  <outline>
    <contour>
      <point x="213.01639344262298" y="-492.0" type="curve" smooth="yes"/>
      <point x="369.72131147540983" y="-492.0"/>
      <point x="494.88524590163934" y="-448.6393442622951"/>
      <point x="587.7704918032788" y="-380.13114754098365" type="curve"/>
      <point x="621.7540983606557" y="-424.44262295081967"/>
      <point x="645.655737704918" y="-461.672131147541"/>
      <point x="670.688524590164" y="-503.5081967213115" type="curve"/>
      <point x="813.8524590163935" y="-409.11475409836066" type="line"/>
      <point x="783.7213114754098" y="-360.40983606557376"/>
      <point x="745.5737704918033" y="-306.4590163934426"/>
      <point x="714.327868852459" y="-265.0" type="curve"/>
      <point x="792.327868852459" y="-173.2622950819672"/>
      <point x="830.8360655737705" y="-57.22950819672131"/>
      <point x="830.8360655737705" y="79.09836065573771" type="curve" smooth="yes"/>
      <point x="830.8360655737705" y="314.0655737704918"/>
      <point x="673.704918032787" y="458.8032786885246"/>
      <point x="464.5081967213115" y="480.2295081967213" type="curve"/>
      <point x="953.8688524590164" y="947.0819672131147" type="line"/>
      <point x="987.0655737704918" y="1106.8524590163936" type="line"/>
      <point x="194.37704918032787" y="1106.8524590163936" type="line"/>
      <point x="154.29508196721312" y="918.9999999999999" type="line"/>
      <point x="667.1639344262295" y="918.9999999999999" type="line"/>
      <point x="223.5737704918033" y="488.8360655737705" type="line"/>
      <point x="188.60655737704917" y="325.11475409836066" type="line"/>
      <point x="281.8688524590164" y="325.11475409836066" type="line" smooth="yes"/>
      <point x="476.91803278688525" y="325.11475409836066"/>
      <point x="592.8524590163935" y="234.24590163934425"/>
      <point x="592.8524590163935" y="62.91803278688525" type="curve" smooth="yes"/>
      <point x="592.8524590163935" y="6.836065573770501"/>
      <point x="584.295081967213" y="-37.508196721311464"/>
      <point x="563.4262295081968" y="-85.37704918032784" type="curve"/>
      <point x="467.19672131147547" y="12.606557377049192"/>
      <point x="351.0655737704918" y="78.21311475409837"/>
      <point x="193.01639344262296" y="78.21311475409837" type="curve" smooth="yes"/>
      <point x="-6.918032786885238" y="78.21311475409837"/>
      <point x="-160.45901639344262" y="-17.770491803278674"/>
      <point x="-160.45901639344262" y="-210.6229508196721" type="curve" smooth="yes"/>
      <point x="-160.45901639344262" y="-397.6885245901639"/>
      <point x="-5.14754098360655" y="-492.0"/>
    </contour>
    <contour>
      <point x="196.7704918032787" y="-310.3606557377049" type="curve" smooth="yes"/>
      <point x="89.03278688524591" y="-310.3606557377049"/>
      <point x="25.229508196721326" y="-269.78688524590166"/>
      <point x="25.229508196721326" y="-199.31147540983608" type="curve" smooth="yes"/>
      <point x="25.229508196721326" y="-135.21311475409834"/>
      <point x="72.45901639344264" y="-85.83606557377048"/>
      <point x="182.22950819672133" y="-85.83606557377048" type="curve" smooth="yes"/>
      <point x="287.9180327868852" y="-85.83606557377048"/>
      <point x="373.50819672131144" y="-135.2622950819672"/>
      <point x="455.5409836065574" y="-224.93442622950818" type="curve"/>
      <point x="386.8360655737705" y="-283.57377049180326"/>
      <point x="287.93442622950823" y="-310.3606557377049"/>
    </contour>
  </outline>
</glyph>
<glyph name="glottalturned" format="2">
  <advance width="897.3934426229508"/>
  <unicode hex="0296"/>
  <anchor x="331.75409836065575" y="0.0" name="bottom"/>
  <anchor x="662.4262295081967" y="1556.0" name="top"/>
  <outline>
    <contour>
      <point x="307.40983606557376" y="-20.0" type="curve" smooth="yes"/>
      <point x="602.7868852459017" y="-20.0"/>
      <point x="811.5245901639345" y="152.75409836065575"/>
      <point x="811.5245901639345" y="461.26229508196724" type="curve" smooth="yes"/>
      <point x="811.5245901639345" y="647.5737704918033"/>
      <point x="736.672131147541" y="795.4918032786885"/>
      <point x="550.8688524590164" y="909.6065573770492" type="curve"/>
      <point x="687.2131147540983" y="1556.0" type="line"/>
      <point x="452.5409836065574" y="1556.0" type="line"/>
      <point x="294.7704918032787" y="808.8032786885246" type="line"/>
      <point x="492.72131147540983" y="727.9180327868852"/>
      <point x="573.8360655737705" y="600.4590163934427"/>
      <point x="573.8360655737705" y="455.95081967213116" type="curve" smooth="yes"/>
      <point x="573.8360655737705" y="279.6393442622951"/>
      <point x="452.57377049180326" y="171.49180327868854"/>
      <point x="307.40983606557376" y="171.49180327868854" type="curve" smooth="yes"/>
      <point x="204.0983606557377" y="171.49180327868854"/>
      <point x="118.8032786885246" y="219.13114754098362"/>
      <point x="52.459016393442624" y="269.93442622950823" type="curve"/>
      <point x="-58.34426229508197" y="101.54098360655738" type="line"/>
      <point x="38.049180327868854" y="27.885245901639344"/>
      <point x="145.34426229508196" y="-20.0"/>
    </contour>
  </outline>
</glyph>
<glyph name="cstretched" format="2">
  <advance width="1001.7213114754098"/>
  <unicode hex="0297"/>
  <anchor x="279.0327868852459" y="-490.327868852459" name="bottom"/>
  <anchor x="618.8032786885246" y="1106.8524590163936" name="top"/>
  <outline>
    <contour>
      <point x="443.4918032786885" y="-490.327868852459" type="curve" smooth="yes"/>
      <point x="559.1475409836066" y="-490.327868852459"/>
      <point x="656.6557377049181" y="-462.11475409836066"/>
      <point x="736.7213114754098" y="-418.6885245901639" type="curve"/>
      <point x="736.7213114754098" y="-223.9672131147541" type="line"/>
      <point x="656.4262295081968" y="-264.27868852459017"/>
      <point x="585.2950819672132" y="-298.1639344262295"/>
      <point x="487.0819672131148" y="-298.1639344262295" type="curve" smooth="yes"/>
      <point x="357.9016393442623" y="-298.1639344262295"/>
      <point x="277.44262295081967" y="-215.9016393442623"/>
      <point x="277.44262295081967" y="2.393442622950822" type="curve" smooth="yes"/>
      <point x="277.44262295081967" y="425.5737704918033"/>
      <point x="419.45901639344265" y="935.1311475409835"/>
      <point x="736.2622950819672" y="935.1311475409835" type="curve" smooth="yes"/>
      <point x="813.672131147541" y="935.1311475409835"/>
      <point x="887.2622950819672" y="908.1311475409835"/>
      <point x="950.344262295082" y="880.9180327868852" type="curve"/>
      <point x="1019.4918032786885" y="1065.8852459016393" type="line"/>
      <point x="945.8852459016393" y="1100.8524590163934"/>
      <point x="843.327868852459" y="1127.295081967213"/>
      <point x="728.2786885245902" y="1127.295081967213" type="curve" smooth="yes"/>
      <point x="207.37704918032787" y="1127.295081967213"/>
      <point x="41.0" y="467.9344262295082"/>
      <point x="41.0" y="4.147540983606558" type="curve" smooth="yes"/>
      <point x="41.0" y="-342.8032786885246"/>
      <point x="197.0" y="-490.327868852459"/>
    </contour>
  </outline>
</glyph>
<glyph name="eopenclosed" format="2">
  <advance width="1174.6065573770493"/>
  <unicode hex="029A"/>
  <anchor x="470.91803278688525" y="0.0" name="bottom"/>
  <anchor x="705.688524590164" y="1106.8524590163936" name="top"/>
  <outline>
    <contour>
      <point x="471.16393442622956" y="-20.0" type="curve" smooth="yes"/>
      <point x="895.1475409836066" y="-20.0"/>
      <point x="1085.1639344262296" y="264.45901639344265"/>
      <point x="1085.1639344262296" y="638.5737704918033" type="curve" smooth="yes"/>
      <point x="1085.1639344262296" y="949.0327868852459"/>
      <point x="913.344262295082" y="1127.2950819672133"/>
      <point x="601.4590163934427" y="1127.2950819672133" type="curve" smooth="yes"/>
      <point x="325.77049180327873" y="1127.2950819672133"/>
      <point x="156.4590163934426" y="1004.5245901639344"/>
      <point x="156.4590163934426" y="797.655737704918" type="curve" smooth="yes"/>
      <point x="156.4590163934426" y="673.5081967213115"/>
      <point x="223.91803278688525" y="607.0819672131147"/>
      <point x="336.26229508196724" y="574.7540983606558" type="curve"/>
      <point x="336.26229508196724" y="568.5409836065575" type="line"/>
      <point x="161.7704918032787" y="536.8688524590164"/>
      <point x="48.57377049180327" y="455.4918032786885"/>
      <point x="48.57377049180327" y="285.42622950819674" type="curve" smooth="yes"/>
      <point x="48.57377049180327" y="91.31147540983606"/>
      <point x="215.2295081967213" y="-20.0"/>
    </contour>
    <contour>
      <point x="490.91803278688525" y="164.8688524590164" type="curve" smooth="yes"/>
      <point x="361.18032786885243" y="164.8688524590164"/>
      <point x="283.016393442623" y="220.0"/>
      <point x="283.016393442623" y="311.8360655737705" type="curve" smooth="yes"/>
      <point x="283.016393442623" y="429.8032786885246"/>
      <point x="383.016393442623" y="484.27868852459017"/>
      <point x="571.1803278688524" y="484.27868852459017" type="curve" smooth="yes"/>
      <point x="616.4098360655738" y="484.27868852459017" type="line"/>
      <point x="651.3770491803278" y="659.6065573770492" type="line"/>
      <point x="598.8032786885245" y="659.6065573770492" type="line" smooth="yes"/>
      <point x="459.3770491803279" y="659.6065573770492"/>
      <point x="384.9016393442623" y="694.1803278688525"/>
      <point x="384.9016393442623" y="794.360655737705" type="curve" smooth="yes"/>
      <point x="384.9016393442623" y="891.2786885245902"/>
      <point x="464.4918032786885" y="942.4426229508197"/>
      <point x="588.9180327868853" y="942.4426229508197" type="curve" smooth="yes"/>
      <point x="755.5901639344262" y="942.4426229508197"/>
      <point x="850.7213114754098" y="848.4918032786885"/>
      <point x="850.7213114754098" y="640.5737704918032" type="curve" smooth="yes"/>
      <point x="850.7213114754098" y="399.8032786885246"/>
      <point x="769.0819672131148" y="164.8688524590164"/>
    </contour>
  </outline>
</glyph>
<glyph name="uni029B" format="2">
  <advance width="1158.0655737704917"/>
  <unicode hex="029B"/>
  <anchor x="462.1475409836066" y="0.0" name="bottom"/>
  <anchor x="796.1475409836066" y="1567.0" name="top"/>
  <outline>
    <contour>
      <point x="539.8852459016393" y="-18.885245901639344" type="curve" smooth="yes"/>
      <point x="693.5245901639345" y="-18.885245901639344"/>
      <point x="801.8032786885246" y="10.885245901639344"/>
      <point x="919.5573770491803" y="61.868852459016395" type="curve"/>
      <point x="1038.5573770491803" y="620.1803278688525" type="line"/>
      <point x="599.0819672131147" y="620.1803278688525" type="line"/>
      <point x="562.7704918032788" y="449.5081967213115" type="line"/>
      <point x="781.8032786885246" y="449.5081967213115" type="line"/>
      <point x="729.4262295081968" y="198.52459016393442" type="line"/>
      <point x="668.0327868852459" y="181.95081967213116"/>
      <point x="620.344262295082" y="173.95081967213116"/>
      <point x="555.377049180328" y="173.95081967213116" type="curve" smooth="yes"/>
      <point x="405.360655737705" y="173.95081967213116"/>
      <point x="330.344262295082" y="271.42622950819674"/>
      <point x="330.344262295082" y="433.0327868852459" type="curve" smooth="yes"/>
      <point x="330.344262295082" y="735.5409836065573"/>
      <point x="481.49180327868856" y="931.7868852459015"/>
      <point x="722.7868852459017" y="931.7868852459015" type="curve" smooth="yes"/>
      <point x="817.6393442622951" y="931.7868852459015"/>
      <point x="910.0655737704918" y="902.7868852459017"/>
      <point x="986.7213114754098" y="863.5573770491803" type="curve"/>
      <point x="1073.360655737705" y="1047.5245901639344" type="line"/>
      <point x="1118.1803278688526" y="1257.0491803278687" type="line" smooth="yes"/>
      <point x="1137.1803278688526" y="1343.5081967213114"/>
      <point x="1172.934426229508" y="1373.1639344262294"/>
      <point x="1234.4918032786886" y="1373.1639344262294" type="curve" smooth="yes"/>
      <point x="1272.8032786885246" y="1373.1639344262294"/>
      <point x="1305.9016393442623" y="1364.2786885245903"/>
      <point x="1332.4754098360654" y="1355.1639344262294" type="curve"/>
      <point x="1332.4754098360654" y="1541.344262295082" type="line"/>
      <point x="1306.4918032786884" y="1554.2295081967213"/>
      <point x="1261.7213114754097" y="1567.0"/>
      <point x="1210.967213114754" y="1567.0" type="curve" smooth="yes"/>
      <point x="1066.7377049180327" y="1567.0"/>
      <point x="971.8524590163935" y="1493.0819672131147"/>
      <point x="933.0819672131147" y="1315.7377049180327" type="curve" smooth="yes"/>
      <point x="888.5081967213115" y="1111.2786885245903" type="line"/>
      <point x="841.377049180328" y="1121.065573770492"/>
      <point x="779.9508196721312" y="1127.2950819672133"/>
      <point x="723.2459016393443" y="1127.2950819672133" type="curve" smooth="yes"/>
      <point x="305.0327868852459" y="1127.2950819672133"/>
      <point x="94.45901639344262" y="819.377049180328"/>
      <point x="94.45901639344262" y="423.7377049180328" type="curve" smooth="yes"/>
      <point x="94.45901639344262" y="140.29508196721312"/>
      <point x="266.0" y="-18.885245901639344"/>
    </contour>
  </outline>
</glyph>
<glyph name="kturned" format="2">
  <advance width="1079.9508196721313"/>
  <unicode hex="029E"/>
  <anchor x="318.42622950819674" y="-492.0" name="bottom"/>
  <anchor x="658.1967213114754" y="1106.8524590163936" name="top"/>
  <outline>
    <contour>
      <point x="456.57377049180326" y="-492.0" type="line"/>
      <point x="691.2459016393443" y="-492.0" type="line"/>
      <point x="1031.016393442623" y="1106.8524590163936" type="line"/>
      <point x="796.344262295082" y="1106.8524590163936" type="line"/>
      <point x="718.3278688524591" y="730.9836065573771" type="line"/>
      <point x="582.8360655737705" y="634.4590163934427" type="line"/>
      <point x="372.96721311475414" y="1106.8524590163936" type="line"/>
      <point x="113.88524590163934" y="1106.8524590163936" type="line"/>
      <point x="402.9016393442623" y="485.60655737704917" type="line"/>
      <point x="-80.16393442622952" y="0.0" type="line"/>
      <point x="190.81967213114757" y="0.0" type="line"/>
      <point x="681.2786885245902" y="505.65573770491807" type="line"/>
      <point x="687.4918032786885" y="505.65573770491807" type="line"/>
      <point x="674.4918032786885" y="464.55737704918033"/>
      <point x="638.9344262295082" y="354.655737704918"/>
      <point x="605.983606557377" y="202.4918032786885" type="curve" smooth="yes"/>
    </contour>
  </outline>
</glyph>
<glyph name="uni029F" format="2">
  <advance width="889.8360655737705"/>
  <unicode hex="029F"/>
  <anchor x="328.03278688524586" y="0.0" name="bottom"/>
  <anchor x="563.8032786885245" y="1106.8524590163936" name="top"/>
  <outline>
    <contour>
      <point x="48.147540983606554" y="0.0" type="line"/>
      <point x="735.5409836065573" y="0.0" type="line"/>
      <point x="773.9508196721312" y="186.7377049180328" type="line"/>
      <point x="320.672131147541" y="186.7377049180328" type="line"/>
      <point x="517.0327868852459" y="1106.8524590163936" type="line"/>
      <point x="283.4754098360656" y="1106.8524590163936" type="line"/>
    </contour>
  </outline>
</glyph>
<glyph name="dzlig" format="2">
  <advance width="1867.754098360656"/>
  <unicode hex="02A3"/>
  <anchor x="816.4918032786885" y="0.0" name="bottom"/>
  <anchor x="1147.1639344262294" y="1556.0" name="top"/>
  <outline>
    <contour>
      <point x="399.86885245901635" y="-20.0" type="curve" smooth="yes"/>
      <point x="549.0" y="-20.0"/>
      <point x="654.4754098360656" y="65.39344262295081"/>
      <point x="744.5081967213115" y="177.327868852459" type="curve"/>
      <point x="752.5081967213114" y="177.327868852459" type="line"/>
      <point x="731.7213114754098" y="0.0" type="line"/>
      <point x="1666.0327868852457" y="0.0" type="line"/>
      <point x="1703.2131147540983" y="178.3770491803279" type="line"/>
      <point x="1217.393442622951" y="178.3770491803279" type="line"/>
      <point x="1841.3606557377047" y="936.9508196721312" type="line"/>
      <point x="1876.5573770491806" y="1106.8524590163936" type="line"/>
      <point x="1148.7868852459017" y="1106.8524590163936" type="line"/>
      <point x="1245.5737704918033" y="1556.0" type="line"/>
      <point x="1012.5737704918032" y="1556.0" type="line"/>
      <point x="937.1311475409835" y="1198.0" type="line" smooth="yes"/>
      <point x="917.4590163934427" y="1106.1967213114754"/>
      <point x="906.7868852459015" y="1005.3934426229508"/>
      <point x="900.0983606557377" y="948.8032786885246" type="curve"/>
      <point x="890.4262295081967" y="948.8032786885246" type="line"/>
      <point x="841.8852459016393" y="1045.2622950819673"/>
      <point x="764.9672131147541" y="1126.1803278688526"/>
      <point x="624.1639344262295" y="1126.1803278688526" type="curve" smooth="yes"/>
      <point x="299.688524590164" y="1126.1803278688526"/>
      <point x="94.45901639344262" y="753.3442622950819"/>
      <point x="94.45901639344262" y="368.6065573770492" type="curve" smooth="yes"/>
      <point x="94.45901639344262" y="97.80327868852459"/>
      <point x="230.0655737704918" y="-20.0"/>
    </contour>
    <contour>
      <point x="490.1967213114754" y="170.60655737704917" type="curve" smooth="yes"/>
      <point x="387.1475409836065" y="170.60655737704917"/>
      <point x="332.5737704918033" y="238.40983606557376"/>
      <point x="332.5737704918033" y="371.688524590164" type="curve" smooth="yes"/>
      <point x="332.5737704918033" y="647.2622950819673"/>
      <point x="467.4098360655738" y="935.1311475409835"/>
      <point x="653.4262295081967" y="935.1311475409835" type="curve" smooth="yes"/>
      <point x="772.8688524590164" y="935.1311475409835"/>
      <point x="829.655737704918" y="853.983606557377"/>
      <point x="829.655737704918" y="733.4918032786885" type="curve" smooth="yes"/>
      <point x="829.655737704918" y="482.4098360655738"/>
      <point x="674.1803278688525" y="170.60655737704917"/>
    </contour>
    <contour>
      <point x="949.655737704918" y="161.29508196721312" type="line"/>
      <point x="1111.0491803278687" y="928.4754098360656" type="line"/>
      <point x="1572.8852459016393" y="928.4754098360656" type="line"/>
    </contour>
  </outline>
</glyph>
<glyph name="uni02A4" format="2">
  <advance width="1961.8196721311476"/>
  <unicode hex="02A4"/>
  <anchor x="758.8032786885245" y="-493.7704918032787" name="bottom"/>
  <anchor x="1193.9180327868853" y="1556.0" name="top"/>
  <outline>
    <contour>
      <point x="1171.295081967213" y="-493.7704918032787" type="curve" smooth="yes"/>
      <point x="1539.7049180327867" y="-493.7704918032787"/>
      <point x="1766.8524590163936" y="-263.7704918032787"/>
      <point x="1766.8524590163936" y="69.14754098360656" type="curve" smooth="yes"/>
      <point x="1766.8524590163936" y="301.2295081967213"/>
      <point x="1617.360655737705" y="444.6393442622951"/>
      <point x="1400.6393442622953" y="462.96721311475414" type="curve"/>
      <point x="1889.8852459016393" y="947.0819672131147" type="line"/>
      <point x="1923.0819672131147" y="1106.8524590163936" type="line"/>
      <point x="1148.7868852459017" y="1106.8524590163936" type="line"/>
      <point x="1245.5737704918033" y="1556.0" type="line"/>
      <point x="1012.5737704918032" y="1556.0" type="line"/>
      <point x="937.1311475409835" y="1198.0" type="line" smooth="yes"/>
      <point x="917.4590163934427" y="1106.1967213114754"/>
      <point x="906.7868852459015" y="1005.3934426229508"/>
      <point x="900.0983606557377" y="948.8032786885246" type="curve"/>
      <point x="890.4262295081967" y="948.8032786885246" type="line"/>
      <point x="841.8852459016393" y="1045.2622950819673"/>
      <point x="764.9672131147541" y="1126.1803278688526"/>
      <point x="624.1639344262295" y="1126.1803278688526" type="curve" smooth="yes"/>
      <point x="299.688524590164" y="1126.1803278688526"/>
      <point x="94.45901639344262" y="753.3442622950819"/>
      <point x="94.45901639344262" y="368.6065573770492" type="curve" smooth="yes"/>
      <point x="94.45901639344262" y="97.80327868852459"/>
      <point x="230.0655737704918" y="-20.0"/>
      <point x="399.86885245901635" y="-20.0" type="curve" smooth="yes"/>
      <point x="549.0" y="-20.0"/>
      <point x="654.4754098360656" y="65.39344262295081"/>
      <point x="744.5081967213115" y="177.327868852459" type="curve"/>
      <point x="752.5081967213114" y="177.327868852459" type="line"/>
      <point x="731.7213114754098" y="0.0" type="line"/>
      <point x="915.5737704918032" y="0.0" type="line"/>
      <point x="1109.9344262295083" y="918.9999999999999" type="line"/>
      <point x="1603.1803278688524" y="918.9999999999999" type="line"/>
      <point x="1159.5901639344263" y="471.57377049180326" type="line"/>
      <point x="1124.1803278688524" y="307.8524590163935" type="line"/>
      <point x="1226.7377049180327" y="307.8524590163935" type="line" smooth="yes"/>
      <point x="1421.7868852459017" y="307.8524590163935"/>
      <point x="1527.9836065573772" y="217.86885245901638"/>
      <point x="1527.9836065573772" y="51.852459016393446" type="curve" smooth="yes"/>
      <point x="1527.9836065573772" y="-142.1311475409836"/>
      <point x="1408.0655737704917" y="-299.7377049180328"/>
      <point x="1157.1475409836066" y="-299.7377049180328" type="curve" smooth="yes"/>
      <point x="1034.4918032786884" y="-299.7377049180328"/>
      <point x="908.8688524590164" y="-260.04918032786884"/>
      <point x="820.4918032786885" y="-209.08196721311475" type="curve"/>
      <point x="820.4918032786885" y="-419.344262295082" type="line"/>
      <point x="912.016393442623" y="-466.11475409836066"/>
      <point x="1020.8524590163935" y="-493.7704918032787"/>
    </contour>
    <contour>
      <point x="490.1967213114754" y="170.60655737704917" type="curve" smooth="yes"/>
      <point x="387.1475409836065" y="170.60655737704917"/>
      <point x="332.5737704918033" y="238.40983606557376"/>
      <point x="332.5737704918033" y="371.688524590164" type="curve" smooth="yes"/>
      <point x="332.5737704918033" y="647.2622950819673"/>
      <point x="467.4098360655738" y="935.1311475409835"/>
      <point x="653.4262295081967" y="935.1311475409835" type="curve" smooth="yes"/>
      <point x="772.8688524590164" y="935.1311475409835"/>
      <point x="829.655737704918" y="853.983606557377"/>
      <point x="829.655737704918" y="733.4918032786885" type="curve" smooth="yes"/>
      <point x="829.655737704918" y="482.4098360655738"/>
      <point x="674.1803278688525" y="170.60655737704917"/>
    </contour>
  </outline>
</glyph>
<glyph name="uni02A7" format="2">
  <advance width="1106.4754098360656"/>
  <unicode hex="02A7"/>
  <anchor x="331.688524590164" y="-492.0" name="bottom"/>
  <anchor x="769.688524590164" y="1567.0" name="top"/>
  <outline>
    <contour>
      <point x="442.9344262295082" y="-492.0" type="curve" smooth="yes"/>
      <point x="637.5081967213115" y="-492.0"/>
      <point x="747.2295081967213" y="-370.60655737704917"/>
      <point x="797.7704918032788" y="-127.2295081967213" type="curve" smooth="yes"/>
      <point x="1077.4262295081967" y="1192.8524590163934" type="line" smooth="yes"/>
      <point x="1103.2295081967213" y="1315.311475409836"/>
      <point x="1154.360655737705" y="1375.3934426229507"/>
      <point x="1233.967213114754" y="1375.3934426229507" type="curve" smooth="yes"/>
      <point x="1276.967213114754" y="1375.3934426229507"/>
      <point x="1312.409836065574" y="1364.5081967213114"/>
      <point x="1340.6557377049182" y="1354.2786885245903" type="curve"/>
      <point x="1340.6557377049182" y="1540.4590163934427" type="line"/>
      <point x="1311.7540983606557" y="1552.4590163934427"/>
      <point x="1259.2131147540983" y="1567.0"/>
      <point x="1197.4754098360656" y="1567.0" type="curve" smooth="yes"/>
      <point x="988.3770491803278" y="1567.0"/>
      <point x="892.8688524590165" y="1428.7540983606557"/>
      <point x="846.1967213114755" y="1211.5245901639344" type="curve" smooth="yes"/>
      <point x="823.7540983606557" y="1106.8524590163936" type="line"/>
      <point x="525.2131147540983" y="1106.8524590163936" type="line"/>
      <point x="577.5573770491803" y="1351.5409836065573" type="line"/>
      <point x="432.60655737704917" y="1351.5409836065573" type="line"/>
      <point x="303.39344262295083" y="1120.0" type="line"/>
      <point x="113.52459016393443" y="1039.344262295082" type="line"/>
      <point x="91.77049180327869" y="929.1311475409836" type="line"/>
      <point x="253.80327868852459" y="929.1311475409836" type="line"/>
      <point x="133.22950819672133" y="358.3606557377049" type="line" smooth="yes"/>
      <point x="123.0" y="310.1147540983606"/>
      <point x="117.88524590163934" y="264.42622950819674"/>
      <point x="117.88524590163934" y="227.40983606557376" type="curve" smooth="yes"/>
      <point x="117.88524590163934" y="41.885245901639344"/>
      <point x="231.88524590163934" y="-20.0"/>
      <point x="392.72131147540983" y="-20.0" type="curve" smooth="yes"/>
      <point x="466.0655737704918" y="-20.0"/>
      <point x="542.688524590164" y="-3.3442622950819665"/>
      <point x="592.1967213114754" y="17.295081967213118" type="curve"/>
      <point x="564.2131147540983" y="-116.08196721311474" type="line" smooth="yes"/>
      <point x="538.2950819672132" y="-238.11475409836066"/>
      <point x="482.60655737704917" y="-300.39344262295083"/>
      <point x="407.9016393442623" y="-300.39344262295083" type="curve" smooth="yes"/>
      <point x="364.016393442623" y="-300.39344262295083"/>
      <point x="326.3606557377049" y="-289.5081967213115"/>
      <point x="299.32786885245906" y="-279.1639344262295" type="curve"/>
      <point x="299.32786885245906" y="-467.4590163934426" type="line"/>
      <point x="335.86885245901647" y="-481.22950819672127"/>
      <point x="387.5081967213115" y="-492.0"/>
    </contour>
    <contour>
      <point x="453.8032786885246" y="169.49180327868854" type="curve" smooth="yes"/>
      <point x="386.8688524590164" y="169.49180327868854"/>
      <point x="354.09836065573774" y="206.09836065573774"/>
      <point x="354.09836065573774" y="265.2295081967213" type="curve" smooth="yes"/>
      <point x="354.09836065573774" y="292.27868852459017"/>
      <point x="360.55737704918033" y="327.7704918032787"/>
      <point x="366.78688524590166" y="356.6885245901639" type="curve" smooth="yes"/>
      <point x="488.4754098360656" y="929.1311475409836" type="line"/>
      <point x="784.7868852459017" y="929.1311475409836" type="line"/>
      <point x="631.1639344262295" y="201.14754098360658" type="line"/>
      <point x="575.2950819672132" y="182.81967213114757"/>
      <point x="507.0" y="169.49180327868854"/>
    </contour>
  </outline>
</glyph>
